<svg width="30" height="30" viewBox="0 0 30 30" fill="none" xmlns="http://www.w3.org/2000/svg">
<path d="M23 14.2375C22.375 14.4 21.75 14.5 21.125 14.5C19.3027 14.4967 17.5559 13.7713 16.2673 12.4827C14.9787 11.1941 14.2533 9.44736 14.25 7.62501C14.25 5.78751 14.975 4.12501 16.125 2.88751C15.8982 2.60943 15.6121 2.38547 15.2878 2.23194C14.9634 2.0784 14.6089 1.99917 14.25 2.00001C12.875 2.00001 11.75 3.12501 11.75 4.50001V4.86251C8.0375 5.96251 5.5 9.37501 5.5 13.25V20.75L3 23.25V24.5H25.5V23.25L23 20.75V14.2375ZM14.25 28.25C15.6375 28.25 16.75 27.1375 16.75 25.75H11.75C11.75 26.413 12.0134 27.0489 12.4822 27.5178C12.9511 27.9866 13.587 28.25 14.25 28.25Z" fill="#18392A"/>
<circle cx="21.25" cy="7.5" r="5" fill="#B61417"/>
<path d="M20.8796 10.5V6.236L19.7036 6.66V5.508L22.1516 4.62V10.5H20.8796Z" fill="white"/>
</svg>
