<svg width="19" height="18" viewBox="0 0 19 18" fill="none" xmlns="http://www.w3.org/2000/svg">
<path d="M17.6664 14.3779L14.6012 11.3397L12.2434 10.3742C13.0285 9.26762 13.4491 7.9475 13.4475 6.59475C13.4475 2.95838 10.4628 0 6.79408 0C3.12534 0 0.140625 2.95838 0.140625 6.59475C0.140625 10.2311 3.12534 13.1895 6.79408 13.1895C8.17076 13.1911 9.51364 12.767 10.6357 11.9763L11.6072 14.307L14.6724 17.3454C14.869 17.5402 15.1023 17.6948 15.3592 17.8002C15.616 17.9057 15.8913 17.96 16.1693 17.96C16.4474 17.96 16.7227 17.9057 16.9795 17.8003C17.2364 17.6949 17.4698 17.5403 17.6663 17.3454C17.8629 17.1506 18.0189 16.9193 18.1253 16.6647C18.2317 16.4101 18.2865 16.1373 18.2865 15.8617C18.2865 15.5861 18.2317 15.3133 18.1253 15.0587C18.019 14.8041 17.863 14.5728 17.6664 14.3779ZM1.35034 6.59475C1.35034 3.61962 3.79247 1.19905 6.79408 1.19905C9.7957 1.19905 12.2378 3.61962 12.2378 6.59475C12.2378 9.56988 9.7957 11.9905 6.79408 11.9905C3.79247 11.9905 1.35034 9.56988 1.35034 6.59475ZM16.811 16.4975C16.6407 16.6659 16.41 16.7605 16.1694 16.7605C15.9289 16.7605 15.6981 16.6659 15.5278 16.4975L12.6331 13.6284L11.7299 11.4613L13.9163 12.3566L16.8111 15.2257C16.9809 15.3945 17.0763 15.6232 17.0763 15.8616C17.0763 16.1001 16.9809 16.3287 16.811 16.4975Z" fill="#18392A"/>
</svg>
