<svg width="17" height="20" viewBox="0 0 17 20" fill="none" xmlns="http://www.w3.org/2000/svg">
<g clip-path="url(#clip0_534_929)">
<path d="M15.7571 6.82353C14.4244 7.64706 13.6013 9.05882 13.6013 10.6275C13.6013 12.3922 14.6596 14 16.2667 14.6667C15.9531 15.6863 15.4827 16.6275 14.8948 17.4902C14.0324 18.7059 13.1309 19.9608 11.7982 19.9608C10.4655 19.9608 10.0736 19.1765 8.5057 19.1765C6.97703 19.1765 6.42827 20 5.17398 20C3.91968 20 3.05735 18.8627 2.07743 17.451C0.783936 15.4902 0.0391968 13.2157 0 10.8235C0 6.94118 2.50859 4.86274 5.01719 4.86274C6.34988 4.86274 7.44739 5.72549 8.27052 5.72549C9.05446 5.72549 10.3088 4.82353 11.7982 4.82353C13.3661 4.78431 14.8556 5.52941 15.7571 6.82353ZM11.0927 3.17647C11.759 2.39216 12.1118 1.41176 12.151 0.392157C12.151 0.27451 12.151 0.117647 12.1118 0C10.9751 0.117647 9.91679 0.666667 9.17205 1.52941C8.5057 2.27451 8.11374 3.21569 8.07454 4.23529C8.07454 4.35294 8.07454 4.47059 8.11374 4.58824C8.19213 4.58824 8.30972 4.62745 8.38811 4.62745C9.44643 4.54902 10.4263 4 11.0927 3.17647Z" fill="black"/>
</g>
<defs>
<clipPath id="clip0_534_929">
<rect width="16.2667" height="20" fill="white"/>
</clipPath>
</defs>
</svg>
