<svg width="20" height="21" viewBox="0 0 20 21" fill="none" xmlns="http://www.w3.org/2000/svg">
<path d="M18.8 10.4824C18.8 9.83242 18.7417 9.20742 18.6333 8.60742H10V12.1533H14.9333C14.7208 13.2991 14.075 14.2699 13.1042 14.9199V17.2199H16.0667C17.8 15.6241 18.8 13.2741 18.8 10.4824Z" fill="#4285F4"/>
<path d="M10.0003 19.4406C12.4753 19.4406 14.5503 18.6198 16.0669 17.2198L13.1044 14.9198C12.2836 15.4698 11.2336 15.7948 10.0003 15.7948C7.61276 15.7948 5.59193 14.1823 4.87109 12.0156H1.80859V14.3906C3.31693 17.3865 6.41693 19.4406 10.0003 19.4406Z" fill="#34A853"/>
<path d="M4.87051 12.0165C4.68718 11.4665 4.58301 10.879 4.58301 10.2749C4.58301 9.6707 4.68718 9.0832 4.87051 8.5332V6.1582H1.80801C1.16634 7.43559 0.832442 8.84538 0.833009 10.2749C0.833009 11.754 1.18718 13.154 1.80801 14.3915L4.87051 12.0165Z" fill="#FBBC05"/>
<path d="M10.0003 4.75326C11.3461 4.75326 12.5544 5.21576 13.5044 6.12409L16.1336 3.49492C14.5461 2.01576 12.4711 1.10742 10.0003 1.10742C6.41693 1.10742 3.31693 3.16159 1.80859 6.15742L4.87109 8.53242C5.59193 6.36576 7.61276 4.75326 10.0003 4.75326Z" fill="#EA4335"/>
</svg>
