<svg width="147" height="164" viewBox="0 0 147 164" fill="none" xmlns="http://www.w3.org/2000/svg">
<g filter="url(#filter0_d_11_119)">
<rect x="40" y="44" width="67" height="84" fill="white"/>
</g>
<path d="M83.2512 74.1359H69.9309C69.3624 74.1359 68.9036 74.6033 68.9036 75.1825C68.9036 75.7617 69.3624 76.2292 69.9309 76.2292H83.2512C83.8023 76.2292 84.3053 76.4908 84.6277 76.9515C84.95 77.408 85.0316 77.9777 84.8537 78.5106L82.5048 85.5305C82.272 86.2282 81.6286 86.6998 80.9023 86.6998H71.1012C70.3107 86.6998 69.6151 86.1274 69.4479 85.3397L67.0575 74.0146C66.6883 72.2661 65.1473 71 63.3937 71H61.0273C60.4588 71 60 71.4674 60 72.0467C60 72.6259 60.4588 73.0933 61.0273 73.0933H63.3937C64.1842 73.0933 64.8798 73.6657 65.047 74.4534L67.4374 85.7785C67.8066 87.527 69.3476 88.7931 71.1012 88.7931H80.9023C82.5048 88.7931 83.9294 87.7533 84.4472 86.2078L86.7962 79.1879C87.1894 78.0091 87.0089 76.7498 86.2959 75.7345C85.5843 74.7192 84.474 74.1373 83.2487 74.1373L83.2512 74.1359Z" fill="#002140"/>
<path d="M71.4277 89.3907C69.759 89.3907 68.4004 90.5737 68.4004 92.0267C68.4004 93.4797 69.759 94.6627 71.4277 94.6627C73.0963 94.6627 74.4549 93.4797 74.4549 92.0267C74.4549 90.5737 73.0963 89.3907 71.4277 89.3907ZM71.4277 92.9054C70.8732 92.9054 70.4186 92.5095 70.4186 92.0267C70.4186 91.5439 70.8732 91.148 71.4277 91.148C71.9821 91.148 72.4368 91.5439 72.4368 92.0267C72.4368 92.5095 71.9821 92.9054 71.4277 92.9054Z" fill="#002140"/>
<path d="M81.0273 89.3907C79.3586 89.3907 78 90.5737 78 92.0267C78 93.4797 79.3586 94.6627 81.0273 94.6627C82.6959 94.6627 84.0545 93.4797 84.0545 92.0267C84.0545 90.5737 82.6959 89.3907 81.0273 89.3907ZM81.0273 92.9054C80.4728 92.9054 80.0182 92.5095 80.0182 92.0267C80.0182 91.5439 80.4728 91.148 81.0273 91.148C81.5817 91.148 82.0364 91.5439 82.0364 92.0267C82.0364 92.5095 81.5817 92.9054 81.0273 92.9054Z" fill="#002140"/>
<defs>
<filter id="filter0_d_11_119" x="0" y="0" width="147" height="164" filterUnits="userSpaceOnUse" color-interpolation-filters="sRGB">
<feFlood flood-opacity="0" result="BackgroundImageFix"/>
<feColorMatrix in="SourceAlpha" type="matrix" values="0 0 0 0 0 0 0 0 0 0 0 0 0 0 0 0 0 0 127 0" result="hardAlpha"/>
<feOffset dy="-4"/>
<feGaussianBlur stdDeviation="20"/>
<feComposite in2="hardAlpha" operator="out"/>
<feColorMatrix type="matrix" values="0 0 0 0 0 0 0 0 0 0 0 0 0 0 0 0 0 0 0.07 0"/>
<feBlend mode="normal" in2="BackgroundImageFix" result="effect1_dropShadow_11_119"/>
<feBlend mode="normal" in="SourceGraphic" in2="effect1_dropShadow_11_119" result="shape"/>
</filter>
</defs>
</svg>
