<svg width="27" height="25" viewBox="0 0 27 25" fill="none" xmlns="http://www.w3.org/2000/svg">
<path d="M23.2512 3.74525H9.93091C9.36238 3.74525 8.90358 4.21269 8.90358 4.79191C8.90358 5.37112 9.36238 5.83856 9.93091 5.83856H23.2512C23.8023 5.83856 24.3053 6.10022 24.6277 6.56085C24.95 7.0174 25.0316 7.58706 24.8537 8.11995L22.5048 15.1399C22.272 15.8376 21.6286 16.3092 20.9023 16.3092H11.1012C10.3107 16.3092 9.61509 15.7368 9.44788 14.9491L7.05746 3.62395C6.68827 1.87544 5.14728 0.609375 3.39367 0.609375H1.02733C0.458804 0.609375 0 1.07681 0 1.65603C0 2.23525 0.458804 2.70268 1.02733 2.70268H3.39367C4.18423 2.70268 4.8798 3.27506 5.04702 4.06277L7.43743 15.3879C7.80662 17.1364 9.34761 18.4025 11.1012 18.4025H20.9023C22.5048 18.4025 23.9294 17.3626 24.4472 15.8172L26.7962 8.79727C27.1894 7.61843 27.0089 6.35916 26.2959 5.34388C25.5843 4.32855 24.474 3.74665 23.2487 3.74665L23.2512 3.74525Z" fill="#002140"/>
<path d="M11.4277 19C9.759 19 8.40039 20.183 8.40039 21.636C8.40039 23.089 9.759 24.272 11.4277 24.272C13.0963 24.272 14.4549 23.089 14.4549 21.636C14.4549 20.183 13.0963 19 11.4277 19ZM11.4277 22.5147C10.8732 22.5147 10.4186 22.1188 10.4186 21.636C10.4186 21.1532 10.8732 20.7573 11.4277 20.7573C11.9821 20.7573 12.4368 21.1532 12.4368 21.636C12.4368 22.1188 11.9821 22.5147 11.4277 22.5147Z" fill="#002140"/>
<path d="M21.0273 19C19.3586 19 18 20.183 18 21.636C18 23.089 19.3586 24.272 21.0273 24.272C22.6959 24.272 24.0545 23.089 24.0545 21.636C24.0545 20.183 22.6959 19 21.0273 19ZM21.0273 22.5147C20.4728 22.5147 20.0182 22.1188 20.0182 21.636C20.0182 21.1532 20.4728 20.7573 21.0273 20.7573C21.5817 20.7573 22.0364 21.1532 22.0364 21.636C22.0364 22.1188 21.5817 22.5147 21.0273 22.5147Z" fill="#002140"/>
</svg>
