<svg width="67" height="85" viewBox="0 0 67 85" fill="none" xmlns="http://www.w3.org/2000/svg">
<rect y="3" width="67" height="82" fill="url(#paint0_linear_1_25)"/>
<line x1="1.31134e-07" y1="1.5" x2="67" y2="1.50001" stroke="url(#paint1_linear_1_25)" stroke-width="3"/>
<path d="M41.2512 33.7453H27.9309C27.3624 33.7453 26.9036 34.2127 26.9036 34.7919C26.9036 35.3711 27.3624 35.8386 27.9309 35.8386H41.2512C41.8023 35.8386 42.3053 36.1002 42.6277 36.5609C42.95 37.0174 43.0316 37.5871 42.8537 38.1199L40.5048 45.1399C40.272 45.8376 39.6286 46.3092 38.9023 46.3092H29.1012C28.3107 46.3092 27.6151 45.7368 27.4479 44.9491L25.0575 33.6239C24.6883 31.8754 23.1473 30.6094 21.3937 30.6094H19.0273C18.4588 30.6094 18 31.0768 18 31.656C18 32.2352 18.4588 32.7027 19.0273 32.7027H21.3937C22.1842 32.7027 22.8798 33.2751 23.047 34.0628L25.4374 45.3879C25.8066 47.1364 27.3476 48.4025 29.1012 48.4025H38.9023C40.5048 48.4025 41.9294 47.3626 42.4472 45.8172L44.7962 38.7973C45.1894 37.6184 45.0089 36.3592 44.2959 35.3439C43.5843 34.3286 42.474 33.7466 41.2487 33.7466L41.2512 33.7453Z" fill="url(#paint2_linear_1_25)"/>
<path d="M29.4277 49.0001C27.759 49.0001 26.4004 50.1831 26.4004 51.6361C26.4004 53.0891 27.759 54.2721 29.4277 54.2721C31.0963 54.2721 32.4549 53.0891 32.4549 51.6361C32.4549 50.1831 31.0963 49.0001 29.4277 49.0001ZM29.4277 52.5147C28.8732 52.5147 28.4186 52.1189 28.4186 51.6361C28.4186 51.1533 28.8732 50.7574 29.4277 50.7574C29.9821 50.7574 30.4368 51.1533 30.4368 51.6361C30.4368 52.1189 29.9821 52.5147 29.4277 52.5147Z" fill="url(#paint3_linear_1_25)"/>
<path d="M39.0273 49.0001C37.3586 49.0001 36 50.1831 36 51.6361C36 53.0891 37.3586 54.2721 39.0273 54.2721C40.6959 54.2721 42.0545 53.0891 42.0545 51.6361C42.0545 50.1831 40.6959 49.0001 39.0273 49.0001ZM39.0273 52.5147C38.4728 52.5147 38.0182 52.1189 38.0182 51.6361C38.0182 51.1533 38.4728 50.7574 39.0273 50.7574C39.5817 50.7574 40.0364 51.1533 40.0364 51.6361C40.0364 52.1189 39.5817 52.5147 39.0273 52.5147Z" fill="url(#paint4_linear_1_25)"/>
<defs>
<linearGradient id="paint0_linear_1_25" x1="33.5" y1="3" x2="33.5" y2="85" gradientUnits="userSpaceOnUse">
<stop stop-color="#DCE8D6"/>
<stop offset="1" stop-color="#DCE8D6" stop-opacity="0"/>
</linearGradient>
<linearGradient id="paint1_linear_1_25" x1="33.5" y1="3" x2="33.5" y2="4" gradientUnits="userSpaceOnUse">
<stop stop-color="#ADB815"/>
<stop offset="1" stop-color="#18392A"/>
</linearGradient>
<linearGradient id="paint2_linear_1_25" x1="31.5" y1="30.6094" x2="31.5" y2="48.4025" gradientUnits="userSpaceOnUse">
<stop stop-color="#ADB815"/>
<stop offset="1" stop-color="#18392A"/>
</linearGradient>
<linearGradient id="paint3_linear_1_25" x1="29.4277" y1="49.0001" x2="29.4277" y2="54.2721" gradientUnits="userSpaceOnUse">
<stop stop-color="#ADB815"/>
<stop offset="1" stop-color="#18392A"/>
</linearGradient>
<linearGradient id="paint4_linear_1_25" x1="39.0273" y1="49.0001" x2="39.0273" y2="54.2721" gradientUnits="userSpaceOnUse">
<stop stop-color="#ADB815"/>
<stop offset="1" stop-color="#18392A"/>
</linearGradient>
</defs>
</svg>
