<svg width="24" height="24" viewBox="0 0 24 24" fill="none" xmlns="http://www.w3.org/2000/svg">
<path d="M19.5789 16.175C18.6947 16.175 18.0632 15.3875 18.0632 14.6C18.0632 13.6813 18.8211 13.025 19.5789 13.025C20.3368 13.025 21.0947 13.8125 21.0947 14.6C21.2211 15.3875 20.4632 16.175 19.5789 16.175ZM19.5789 9.875C17.1789 9.875 15.1579 11.975 15.1579 14.4688C15.1579 17.8812 19.5789 23 19.5789 23C19.5789 23 24 17.8812 24 14.4688C24 11.975 21.9789 9.875 19.5789 9.875ZM15.0316 8.95625C14.6526 7.25 13.1368 5.9375 11.3684 5.9375C9.22105 5.9375 7.57895 7.64375 7.57895 9.875C7.57895 12.1062 9.22105 13.8125 11.3684 13.8125C11.8737 13.8125 12.2526 13.6813 12.6316 13.55C12.8842 11.7125 13.7684 10.1375 15.0316 8.95625ZM12.6316 15.125H5.05263C5.05263 14.4288 4.78647 13.7611 4.31269 13.2688C3.83891 12.7766 3.19634 12.5 2.52632 12.5V7.25C3.19634 7.25 3.83891 6.97344 4.31269 6.48115C4.78647 5.98887 5.05263 5.32119 5.05263 4.625H17.6842C17.6842 5.32119 17.9504 5.98887 18.4242 6.48115C18.8979 6.97344 19.5405 7.25 20.2105 7.25C20.2105 7.25 21.4737 7.25 22.7368 8.0375V2H0V17.75H13.2632C13.0105 16.8313 12.7579 16.0437 12.6316 15.125Z" fill="black"/>
</svg>
