<svg width="25" height="25" viewBox="0 0 25 25" fill="none" xmlns="http://www.w3.org/2000/svg">
<path d="M19.4339 13.1836V8.46402C19.4339 7.96333 19.2442 7.48315 18.9064 7.12911C18.5686 6.77507 18.1104 6.57617 17.6327 6.57617H5.02391C4.54619 6.57617 4.08803 6.77507 3.75023 7.12911C3.41243 7.48315 3.22266 7.96333 3.22266 8.46402V14.1276C3.22266 14.6283 3.41243 15.1084 3.75023 15.4625C4.08803 15.8165 4.54619 16.0154 5.02391 16.0154H11.3283" stroke="url(#paint0_linear_534_808)" stroke-width="1.51765" stroke-linecap="round" stroke-linejoin="round"/>
<path d="M19.3236 16.8813C19.7685 17.1682 19.7406 17.8658 19.2831 17.9205L16.9712 18.1952L15.9345 20.3776C15.7292 20.8108 15.0943 20.5985 14.9889 20.0623L13.8586 14.2893C13.7694 13.8362 14.1585 13.5511 14.5341 13.7937L19.3236 16.8813Z" stroke="url(#paint1_linear_534_808)" stroke-width="1.51765"/>
<path d="M11.3291 11.3061L11.3381 11.2949M14.9316 11.3061L14.9406 11.2949M7.72656 11.3061L7.73557 11.2949" stroke="url(#paint2_linear_534_808)" stroke-width="1.51765" stroke-linecap="round" stroke-linejoin="round"/>
<defs>
<linearGradient id="paint0_linear_534_808" x1="11.3283" y1="6.57617" x2="11.3283" y2="16.0154" gradientUnits="userSpaceOnUse">
<stop stop-color="#ADB815"/>
<stop offset="1" stop-color="#18392A"/>
</linearGradient>
<linearGradient id="paint1_linear_534_808" x1="16.744" y1="13.7051" x2="16.744" y2="20.6096" gradientUnits="userSpaceOnUse">
<stop stop-color="#ADB815"/>
<stop offset="1" stop-color="#18392A"/>
</linearGradient>
<linearGradient id="paint2_linear_534_808" x1="11.3336" y1="11.2949" x2="11.3336" y2="11.3061" gradientUnits="userSpaceOnUse">
<stop stop-color="#ADB815"/>
<stop offset="1" stop-color="#18392A"/>
</linearGradient>
</defs>
</svg>
