<svg width="40" height="40" viewBox="0 0 40 40" fill="none" xmlns="http://www.w3.org/2000/svg">
<rect width="40" height="40" rx="4" fill="#DCE8D6"/>
<g clip-path="url(#clip0_4_166)">
<mask id="path-2-outside-1_4_166" maskUnits="userSpaceOnUse" x="9.71484" y="9.71429" width="20" height="20" fill="black">
<rect fill="white" x="9.71484" y="9.71429" width="20" height="20"/>
<path d="M20.0006 10.7143C14.8726 10.7143 10.7148 14.8717 10.7148 20C10.7148 25.1283 14.8726 29.2857 20.0006 29.2857C25.1291 29.2857 29.2863 25.1283 29.2863 20C29.2863 14.8717 25.1291 10.7143 20.0006 10.7143ZM10.9325 20C10.9325 17.4679 11.9768 15.1761 13.656 13.5294L14.89 14.7638C14.8323 15.1042 14.5885 16.9291 15.7507 18.091C16.1109 18.4515 16.5844 18.6316 17.058 18.6316C17.4849 18.6316 17.911 18.4838 18.2554 18.1911C18.5373 18.5957 18.6945 19.0737 18.7027 19.5743L18.7006 20.4782H17.6389C17.5789 20.4782 17.5301 20.527 17.5301 20.5871C17.5301 20.6471 17.5789 20.6959 17.6389 20.6959H18.1108V22.9069C18.1108 22.9075 18.1104 22.908 18.1104 22.9086C18.1104 22.9093 18.1108 22.9098 18.1108 22.9104V25.2542C18.1108 26.2744 18.9407 27.1045 19.9607 27.1045C20.9806 27.1045 21.8105 26.2744 21.8105 25.2542V22.6268L25.9867 26.803C24.3883 28.2111 22.2932 29.0681 20.0006 29.0681C15.0004 29.0681 10.9325 25.0002 10.9325 20ZM18.124 17.6943L16.9054 16.476C16.863 16.4335 16.7941 16.4335 16.7517 16.476C16.709 16.5184 16.709 16.5873 16.7517 16.6298L17.9702 17.8481C18.0244 17.9023 18.0753 17.959 18.1238 18.0172C17.483 18.5704 16.512 18.5445 15.9045 17.9372C14.8577 16.8904 15.0448 15.1965 15.1009 14.8256C15.472 14.7692 17.1648 14.5809 18.2127 15.6288C18.5212 15.9371 18.691 16.3468 18.691 16.7828C18.691 17.1859 18.5443 17.5656 18.2786 17.8644C18.2293 17.8062 18.1785 17.7489 18.124 17.6943ZM18.3284 23.0175H19.851L19.8517 24.6496C19.8517 24.7098 19.9004 24.7584 19.9605 24.7584C20.0207 24.7584 20.0693 24.7096 20.0693 24.6496L20.0686 23.0175H21.5929V25.2542C21.5929 26.1545 20.8607 26.8869 19.9606 26.8869C19.0605 26.8869 18.3284 26.1545 18.3284 25.2542L18.3284 23.0175ZM21.5929 22.7999H20.0686L20.0678 20.6959H21.5929V22.7999ZM19.851 22.7999H18.3284V20.6959H19.8502L19.851 22.7999ZM26.1489 26.6577L21.8105 22.3193V20.6959H22.2814C22.3414 20.6959 22.3902 20.6471 22.3902 20.5871C22.3902 20.527 22.3414 20.4783 22.2814 20.4783H20.0677L20.0666 17.365C20.071 17.112 20.1232 16.8668 20.217 16.6391C20.5354 16.8786 20.9199 17.0101 21.3252 17.0101C21.8193 17.0101 22.2837 16.8176 22.6329 16.4683C23.8913 15.2102 23.501 13.1732 23.4838 13.087C23.4753 13.0441 23.4415 13.0103 23.3986 13.0018C23.3122 12.9846 21.2744 12.5948 20.0171 13.8522C19.6676 14.2017 19.4752 14.6663 19.4752 15.1604C19.4752 15.6544 19.6676 16.1188 20.0171 16.4682C20.0257 16.4768 20.0352 16.4842 20.0441 16.4926C19.9224 16.7632 19.8543 17.0576 19.849 17.363L19.8501 20.4782H18.9183L18.9204 19.5727C18.9113 19.0151 18.7324 18.4849 18.4133 18.0392C18.7322 17.6962 18.9086 17.2534 18.9086 16.7828C18.9086 16.2887 18.7162 15.8243 18.3665 15.475C17.2139 14.3222 15.408 14.5533 15.0472 14.6133L13.8134 13.3792C15.4351 11.8629 17.6106 10.9319 20.0006 10.9319C25.0007 10.9319 29.0686 14.9999 29.0686 20C29.0686 22.6294 27.9427 24.9998 26.1489 26.6577ZM21.6319 14.8533C21.5895 14.8109 21.5206 14.8109 21.4781 14.8533L20.4971 15.8345C20.3596 15.9719 20.2441 16.1256 20.1486 16.2899C19.8551 15.9844 19.6926 15.5851 19.6926 15.1604C19.6926 14.7244 19.8625 14.3145 20.1709 14.006C21.2175 12.9595 22.912 13.1469 23.2827 13.2029C23.3391 13.5738 23.5275 15.2661 22.4791 16.3146C22.1709 16.6227 21.7612 16.7924 21.3254 16.7924C20.9529 16.7924 20.5998 16.6676 20.3123 16.4392C20.4024 16.2755 20.5156 16.1235 20.6509 15.9883L21.6319 15.0071C21.6745 14.9647 21.6745 14.8958 21.6319 14.8533Z"/>
</mask>
<path d="M20.0006 10.7143C14.8726 10.7143 10.7148 14.8717 10.7148 20C10.7148 25.1283 14.8726 29.2857 20.0006 29.2857C25.1291 29.2857 29.2863 25.1283 29.2863 20C29.2863 14.8717 25.1291 10.7143 20.0006 10.7143ZM10.9325 20C10.9325 17.4679 11.9768 15.1761 13.656 13.5294L14.89 14.7638C14.8323 15.1042 14.5885 16.9291 15.7507 18.091C16.1109 18.4515 16.5844 18.6316 17.058 18.6316C17.4849 18.6316 17.911 18.4838 18.2554 18.1911C18.5373 18.5957 18.6945 19.0737 18.7027 19.5743L18.7006 20.4782H17.6389C17.5789 20.4782 17.5301 20.527 17.5301 20.5871C17.5301 20.6471 17.5789 20.6959 17.6389 20.6959H18.1108V22.9069C18.1108 22.9075 18.1104 22.908 18.1104 22.9086C18.1104 22.9093 18.1108 22.9098 18.1108 22.9104V25.2542C18.1108 26.2744 18.9407 27.1045 19.9607 27.1045C20.9806 27.1045 21.8105 26.2744 21.8105 25.2542V22.6268L25.9867 26.803C24.3883 28.2111 22.2932 29.0681 20.0006 29.0681C15.0004 29.0681 10.9325 25.0002 10.9325 20ZM18.124 17.6943L16.9054 16.476C16.863 16.4335 16.7941 16.4335 16.7517 16.476C16.709 16.5184 16.709 16.5873 16.7517 16.6298L17.9702 17.8481C18.0244 17.9023 18.0753 17.959 18.1238 18.0172C17.483 18.5704 16.512 18.5445 15.9045 17.9372C14.8577 16.8904 15.0448 15.1965 15.1009 14.8256C15.472 14.7692 17.1648 14.5809 18.2127 15.6288C18.5212 15.9371 18.691 16.3468 18.691 16.7828C18.691 17.1859 18.5443 17.5656 18.2786 17.8644C18.2293 17.8062 18.1785 17.7489 18.124 17.6943ZM18.3284 23.0175H19.851L19.8517 24.6496C19.8517 24.7098 19.9004 24.7584 19.9605 24.7584C20.0207 24.7584 20.0693 24.7096 20.0693 24.6496L20.0686 23.0175H21.5929V25.2542C21.5929 26.1545 20.8607 26.8869 19.9606 26.8869C19.0605 26.8869 18.3284 26.1545 18.3284 25.2542L18.3284 23.0175ZM21.5929 22.7999H20.0686L20.0678 20.6959H21.5929V22.7999ZM19.851 22.7999H18.3284V20.6959H19.8502L19.851 22.7999ZM26.1489 26.6577L21.8105 22.3193V20.6959H22.2814C22.3414 20.6959 22.3902 20.6471 22.3902 20.5871C22.3902 20.527 22.3414 20.4783 22.2814 20.4783H20.0677L20.0666 17.365C20.071 17.112 20.1232 16.8668 20.217 16.6391C20.5354 16.8786 20.9199 17.0101 21.3252 17.0101C21.8193 17.0101 22.2837 16.8176 22.6329 16.4683C23.8913 15.2102 23.501 13.1732 23.4838 13.087C23.4753 13.0441 23.4415 13.0103 23.3986 13.0018C23.3122 12.9846 21.2744 12.5948 20.0171 13.8522C19.6676 14.2017 19.4752 14.6663 19.4752 15.1604C19.4752 15.6544 19.6676 16.1188 20.0171 16.4682C20.0257 16.4768 20.0352 16.4842 20.0441 16.4926C19.9224 16.7632 19.8543 17.0576 19.849 17.363L19.8501 20.4782H18.9183L18.9204 19.5727C18.9113 19.0151 18.7324 18.4849 18.4133 18.0392C18.7322 17.6962 18.9086 17.2534 18.9086 16.7828C18.9086 16.2887 18.7162 15.8243 18.3665 15.475C17.2139 14.3222 15.408 14.5533 15.0472 14.6133L13.8134 13.3792C15.4351 11.8629 17.6106 10.9319 20.0006 10.9319C25.0007 10.9319 29.0686 14.9999 29.0686 20C29.0686 22.6294 27.9427 24.9998 26.1489 26.6577ZM21.6319 14.8533C21.5895 14.8109 21.5206 14.8109 21.4781 14.8533L20.4971 15.8345C20.3596 15.9719 20.2441 16.1256 20.1486 16.2899C19.8551 15.9844 19.6926 15.5851 19.6926 15.1604C19.6926 14.7244 19.8625 14.3145 20.1709 14.006C21.2175 12.9595 22.912 13.1469 23.2827 13.2029C23.3391 13.5738 23.5275 15.2661 22.4791 16.3146C22.1709 16.6227 21.7612 16.7924 21.3254 16.7924C20.9529 16.7924 20.5998 16.6676 20.3123 16.4392C20.4024 16.2755 20.5156 16.1235 20.6509 15.9883L21.6319 15.0071C21.6745 14.9647 21.6745 14.8958 21.6319 14.8533Z" fill="url(#paint0_linear_4_166)"/>
<path d="M13.656 13.5294L13.8681 13.3173L13.6581 13.1072L13.4459 13.3152L13.656 13.5294ZM14.89 14.7638L15.1858 14.8139L15.2117 14.6612L15.1022 14.5517L14.89 14.7638ZM15.7507 18.091L15.9629 17.879L15.9628 17.8788L15.7507 18.091ZM18.2554 18.1911L18.5016 18.0196L18.3128 17.7485L18.0611 17.9625L18.2554 18.1911ZM18.7027 19.5743L19.0028 19.575L19.0027 19.5694L18.7027 19.5743ZM18.7006 20.4782V20.7782H18.9999L19.0006 20.479L18.7006 20.4782ZM18.1108 20.6959H18.4108V20.3959H18.1108V20.6959ZM21.8105 22.6268L22.0227 22.4147L21.5105 21.9026V22.6268H21.8105ZM25.9867 26.803L26.185 27.0281L26.4248 26.8168L26.1988 26.5909L25.9867 26.803ZM18.124 17.6943L18.3362 17.4823L18.3361 17.4822L18.124 17.6943ZM16.9054 16.476L16.6933 16.6881L16.6933 16.6881L16.9054 16.476ZM16.7517 16.476L16.9633 16.6886L16.9638 16.6881L16.7517 16.476ZM16.7517 16.6298L16.9638 16.4176L16.9633 16.4172L16.7517 16.6298ZM17.9702 17.8481L18.1824 17.6361L18.1823 17.636L17.9702 17.8481ZM18.1238 18.0172L18.3199 18.2443L18.5431 18.0516L18.3542 17.8251L18.1238 18.0172ZM15.9045 17.9372L15.6924 18.1493L15.6924 18.1493L15.9045 17.9372ZM15.1009 14.8256L15.0558 14.529L14.8373 14.5622L14.8043 14.7807L15.1009 14.8256ZM18.2127 15.6288L18.0006 15.8409L18.0006 15.841L18.2127 15.6288ZM18.2786 17.8644L18.0495 18.0582L18.2729 18.3222L18.5028 18.0638L18.2786 17.8644ZM18.3284 23.0175V22.7175H18.0284L18.0284 23.0175L18.3284 23.0175ZM19.851 23.0175L20.151 23.0174L20.1509 22.7175H19.851V23.0175ZM19.8517 24.6496L20.1517 24.6496L20.1517 24.6495L19.8517 24.6496ZM20.0693 24.6496L20.3693 24.6496L20.3693 24.6495L20.0693 24.6496ZM20.0686 23.0175V22.7175H19.7685L19.7686 23.0176L20.0686 23.0175ZM21.5929 23.0175H21.8929V22.7175H21.5929V23.0175ZM18.3284 25.2542L18.0284 25.2542V25.2542H18.3284ZM21.5929 22.7999V23.0999H21.8929V22.7999H21.5929ZM20.0686 22.7999L19.7686 22.8L19.7687 23.0999H20.0686V22.7999ZM20.0678 20.6959V20.3959H19.7677L19.7678 20.696L20.0678 20.6959ZM21.5929 20.6959H21.8929V20.3959H21.5929V20.6959ZM19.851 22.7999V23.0999H20.1511L20.151 22.7997L19.851 22.7999ZM18.3284 22.7999H18.0284V23.0999H18.3284V22.7999ZM18.3284 20.6959V20.3959H18.0284V20.6959H18.3284ZM19.8502 20.6959L20.1502 20.6958L20.1501 20.3959H19.8502V20.6959ZM26.1489 26.6577L25.9368 26.8698L26.1408 27.0737L26.3526 26.878L26.1489 26.6577ZM21.8105 22.3193H21.5105V22.4435L21.5984 22.5314L21.8105 22.3193ZM21.8105 20.6959V20.3959H21.5105V20.6959H21.8105ZM20.0677 20.4783L19.7677 20.4784L19.7679 20.7783H20.0677V20.4783ZM20.0666 17.365L19.7666 17.3598L19.7666 17.3651L20.0666 17.365ZM20.217 16.6391L20.3974 16.3993L20.0874 16.1661L19.9397 16.5248L20.217 16.6391ZM22.6329 16.4683L22.4208 16.2562L22.4207 16.2563L22.6329 16.4683ZM23.4838 13.087L23.1895 13.1454L23.1896 13.1459L23.4838 13.087ZM23.3986 13.0018L23.3398 13.296L23.3402 13.2961L23.3986 13.0018ZM20.0171 16.4682L20.2292 16.256L20.2291 16.256L20.0171 16.4682ZM20.0441 16.4926L20.3177 16.6156L20.4044 16.4227L20.2518 16.2762L20.0441 16.4926ZM19.849 17.363L19.549 17.3577L19.549 17.3631L19.849 17.363ZM19.8501 20.4782V20.7782H20.1502L20.1501 20.4781L19.8501 20.4782ZM18.9183 20.4782L18.6183 20.4775L18.6175 20.7782H18.9183V20.4782ZM18.9204 19.5727L19.2204 19.5734L19.2203 19.5678L18.9204 19.5727ZM18.4133 18.0392L18.1936 17.8349L18.0266 18.0145L18.1694 18.2138L18.4133 18.0392ZM18.3665 15.475L18.1544 15.6871L18.1545 15.6872L18.3665 15.475ZM15.0472 14.6133L14.835 14.8254L14.9442 14.9346L15.0964 14.9092L15.0472 14.6133ZM13.8134 13.3792L13.6085 13.1601L13.382 13.372L13.6013 13.5913L13.8134 13.3792ZM21.6319 14.8533L21.4198 15.0655L21.4202 15.0659L21.6319 14.8533ZM21.4781 14.8533L21.266 14.6412L21.266 14.6412L21.4781 14.8533ZM20.4971 15.8345L20.7091 16.0468L20.7093 16.0466L20.4971 15.8345ZM20.1486 16.2899L19.9323 16.4978L20.2081 16.7846L20.408 16.4406L20.1486 16.2899ZM20.1709 14.006L19.9587 13.7939L19.9587 13.7939L20.1709 14.006ZM23.2827 13.2029L23.5793 13.1578L23.546 12.9393L23.3275 12.9063L23.2827 13.2029ZM20.3123 16.4392L20.0495 16.2945L19.9274 16.5165L20.1257 16.674L20.3123 16.4392ZM20.6509 15.9883L20.863 16.2004L20.8631 16.2004L20.6509 15.9883ZM21.6319 15.0071L21.4202 14.7945L21.4198 14.795L21.6319 15.0071ZM20.0006 10.4143C14.7069 10.4143 10.4148 14.706 10.4148 20H11.0148C11.0148 15.0374 15.0382 11.0143 20.0006 11.0143V10.4143ZM10.4148 20C10.4148 25.294 14.7069 29.5857 20.0006 29.5857V28.9857C15.0382 28.9857 11.0148 24.9626 11.0148 20H10.4148ZM20.0006 29.5857C25.2948 29.5857 29.5863 25.294 29.5863 20H28.9863C28.9863 24.9626 24.9634 28.9857 20.0006 28.9857V29.5857ZM29.5863 20C29.5863 14.706 25.2948 10.4143 20.0006 10.4143V11.0143C24.9634 11.0143 28.9863 15.0374 28.9863 20H29.5863ZM11.2325 20C11.2325 17.5522 12.2418 15.3365 13.866 13.7436L13.4459 13.3152C11.7119 15.0157 10.6325 17.3837 10.6325 20H11.2325ZM13.4438 13.7415L14.6779 14.9759L15.1022 14.5517L13.8681 13.3173L13.4438 13.7415ZM14.5942 14.7136C14.5628 14.8992 14.4832 15.4718 14.565 16.155C14.6467 16.8373 14.893 17.6577 15.5386 18.3032L15.9628 17.8788C15.4463 17.3624 15.2333 16.6895 15.1608 16.0837C15.0884 15.4789 15.1595 14.9688 15.1858 14.8139L14.5942 14.7136ZM15.5385 18.303C15.9575 18.7224 16.5085 18.9316 17.058 18.9316V18.3316C16.6604 18.3316 16.2643 18.1806 15.9629 17.879L15.5385 18.303ZM17.058 18.9316C17.5541 18.9316 18.0496 18.7598 18.4497 18.4196L18.0611 17.9625C17.7725 18.2079 17.4156 18.3316 17.058 18.3316V18.9316ZM18.0093 18.3625C18.2574 18.7188 18.3955 19.1389 18.4028 19.5793L19.0027 19.5694C18.9935 19.0085 18.8172 18.4726 18.5016 18.0196L18.0093 18.3625ZM18.4028 19.5736L18.4006 20.4775L19.0006 20.479L19.0027 19.575L18.4028 19.5736ZM18.7006 20.1782H17.6389V20.7782H18.7006V20.1782ZM17.6389 20.1782C17.4132 20.1782 17.2301 20.3613 17.2301 20.5871H17.8301C17.8301 20.6927 17.7445 20.7782 17.6389 20.7782V20.1782ZM17.2301 20.5871C17.2301 20.8128 17.4132 20.9959 17.6389 20.9959V20.3959C17.7445 20.3959 17.8301 20.4814 17.8301 20.5871H17.2301ZM17.6389 20.9959H18.1108V20.3959H17.6389V20.9959ZM17.8108 20.6959V22.9069H18.4108V20.6959H17.8108ZM17.8108 22.9069C17.8108 22.8775 17.8151 22.8537 17.8187 22.8384C17.8205 22.8309 17.8223 22.8249 17.8233 22.8213C17.8243 22.818 17.8252 22.8152 17.825 22.8158C17.825 22.8158 17.825 22.8158 17.825 22.8159C17.825 22.816 17.825 22.8161 17.8249 22.8162C17.8248 22.8164 17.8247 22.8168 17.8246 22.8173C17.8243 22.8183 17.8238 22.8198 17.8232 22.8217C17.8221 22.8255 17.8203 22.8316 17.8185 22.8393C17.8148 22.8548 17.8104 22.8789 17.8104 22.9086H18.4104C18.4104 22.9381 18.4061 22.9618 18.4025 22.9771C18.4007 22.9846 18.3989 22.9906 18.3979 22.9942C18.3969 22.9975 18.396 23.0003 18.3962 22.9997C18.3962 22.9997 18.3962 22.9997 18.3962 22.9996C18.3962 22.9996 18.3962 22.9995 18.3963 22.9993C18.3964 22.9991 18.3965 22.9987 18.3966 22.9982C18.3969 22.9973 18.3974 22.9957 18.398 22.9938C18.3991 22.99 18.4009 22.9839 18.4027 22.9762C18.4064 22.9607 18.4108 22.9366 18.4108 22.9069H17.8108ZM17.8104 22.9086C17.8104 22.9384 17.8148 22.9625 17.8185 22.9781C17.8203 22.9857 17.8221 22.9919 17.8232 22.9957C17.8238 22.9976 17.8243 22.9991 17.8246 23.0001C17.8247 23.0006 17.8249 23.001 17.8249 23.0012C17.825 23.0013 17.825 23.0014 17.825 23.0015C17.8251 23.0016 17.8251 23.0016 17.8251 23.0016C17.8253 23.0022 17.8243 22.9994 17.8234 22.9961C17.8223 22.9925 17.8205 22.9865 17.8188 22.9789C17.8152 22.9636 17.8108 22.9399 17.8108 22.9104H18.4108C18.4108 22.8807 18.4064 22.8566 18.4027 22.841C18.4009 22.8333 18.3991 22.8272 18.398 22.8234C18.3974 22.8215 18.3969 22.8199 18.3966 22.819C18.3965 22.8185 18.3963 22.8181 18.3962 22.8179C18.3962 22.8177 18.3962 22.8176 18.3962 22.8176C18.3961 22.8175 18.3961 22.8175 18.3961 22.8175C18.3959 22.8169 18.3968 22.8197 18.3978 22.823C18.3989 22.8266 18.4007 22.8326 18.4024 22.8402C18.406 22.8554 18.4104 22.8792 18.4104 22.9086H17.8104ZM17.8108 22.9104V25.2542H18.4108V22.9104H17.8108ZM17.8108 25.2542C17.8108 26.44 18.775 27.4045 19.9607 27.4045V26.8045C19.1064 26.8045 18.4108 26.1088 18.4108 25.2542H17.8108ZM19.9607 27.4045C21.1464 27.4045 22.1105 26.44 22.1105 25.2542H21.5105C21.5105 26.1088 20.8149 26.8045 19.9607 26.8045V27.4045ZM22.1105 25.2542V22.6268H21.5105V25.2542H22.1105ZM21.5984 22.839L25.7745 27.0151L26.1988 26.5909L22.0227 22.4147L21.5984 22.839ZM25.7884 26.5779C24.2423 27.9399 22.217 28.7681 20.0006 28.7681V29.3681C22.3694 29.3681 24.5343 28.4824 26.185 27.0281L25.7884 26.5779ZM20.0006 28.7681C15.1661 28.7681 11.2325 24.8345 11.2325 20H10.6325C10.6325 25.1658 14.8347 29.3681 20.0006 29.3681V28.7681ZM18.3361 17.4822L17.1176 16.2638L16.6933 16.6881L17.9119 17.9065L18.3361 17.4822ZM17.1176 16.2638C16.958 16.1042 16.6991 16.1042 16.5395 16.2638L16.9638 16.6881C16.8891 16.7628 16.768 16.7628 16.6933 16.6881L17.1176 16.2638ZM16.54 16.2634C16.3796 16.4231 16.3796 16.6827 16.54 16.8424L16.9633 16.4172C17.0385 16.492 17.0385 16.6137 16.9633 16.6886L16.54 16.2634ZM16.5395 16.8419L17.7581 18.0603L18.1823 17.636L16.9638 16.4176L16.5395 16.8419ZM17.758 18.0602C17.8047 18.1069 17.8495 18.1567 17.8934 18.2094L18.3542 17.8251C18.301 17.7613 18.2441 17.6978 18.1824 17.6361L17.758 18.0602ZM17.9278 17.7902C17.4045 18.2418 16.6117 18.22 16.1166 17.725L15.6924 18.1493C16.4123 18.8691 17.5614 18.899 18.3199 18.2443L17.9278 17.7902ZM16.1166 17.7251C15.6577 17.2661 15.4591 16.6543 15.3867 16.0897C15.3145 15.5269 15.3717 15.041 15.3975 14.8704L14.8043 14.7807C14.774 14.981 14.7096 15.5275 14.7916 16.1661C14.8732 16.8029 15.1045 17.5615 15.6924 18.1493L16.1166 17.7251ZM15.146 15.1222C15.3166 15.0962 15.8023 15.0386 16.3649 15.1106C16.9292 15.1829 17.541 15.3814 18.0006 15.8409L18.4248 15.4167C17.8365 14.8283 17.0779 14.597 16.4411 14.5155C15.8025 14.4338 15.2562 14.4985 15.0558 14.529L15.146 15.1222ZM18.0006 15.841C18.2528 16.0931 18.391 16.4264 18.391 16.7828H18.991C18.991 16.2672 18.7896 15.7812 18.4248 15.4166L18.0006 15.841ZM18.391 16.7828C18.391 17.1116 18.2718 17.4205 18.0544 17.6651L18.5028 18.0638C18.8167 17.7107 18.991 17.2603 18.991 16.7828H18.391ZM18.5076 17.6707C18.4556 17.6092 18.3989 17.545 18.3362 17.4823L17.9118 17.9064C17.9582 17.9528 18.003 18.0032 18.0495 18.0582L18.5076 17.6707ZM18.3284 23.3175H19.851V22.7175H18.3284V23.3175ZM19.551 23.0176L19.5517 24.6497L20.1517 24.6495L20.151 23.0174L19.551 23.0176ZM19.5517 24.6496C19.5517 24.8758 19.7351 25.0584 19.9605 25.0584V24.4584C20.0658 24.4584 20.1517 24.5438 20.1517 24.6496H19.5517ZM19.9605 25.0584C20.1867 25.0584 20.3693 24.8749 20.3693 24.6496H19.7693C19.7693 24.5442 19.8547 24.4584 19.9605 24.4584V25.0584ZM20.3693 24.6495L20.3686 23.0174L19.7686 23.0176L19.7693 24.6497L20.3693 24.6495ZM20.0686 23.3175H21.5929V22.7175H20.0686V23.3175ZM21.2929 23.0175V25.2542H21.8929V23.0175H21.2929ZM21.2929 25.2542C21.2929 25.9889 20.695 26.5869 19.9606 26.5869V27.1869C21.0265 27.1869 21.8929 26.3201 21.8929 25.2542H21.2929ZM19.9606 26.5869C19.2263 26.5869 18.6284 25.9889 18.6284 25.2542H18.0284C18.0284 26.3201 18.8948 27.1869 19.9606 27.1869V26.5869ZM18.6284 25.2542L18.6284 23.0175L18.0284 23.0175L18.0284 25.2542L18.6284 25.2542ZM21.5929 22.4999H20.0686V23.0999H21.5929V22.4999ZM20.3686 22.7997L20.3678 20.6958L19.7678 20.696L19.7686 22.8L20.3686 22.7997ZM20.0678 20.9959H21.5929V20.3959H20.0678V20.9959ZM21.2929 20.6959V22.7999H21.8929V20.6959H21.2929ZM19.851 22.4999H18.3284V23.0999H19.851V22.4999ZM18.6284 22.7999V20.6959H18.0284V22.7999H18.6284ZM18.3284 20.9959H19.8502V20.3959H18.3284V20.9959ZM19.5502 20.696L19.551 22.8L20.151 22.7997L20.1502 20.6958L19.5502 20.696ZM26.3611 26.4455L22.0227 22.1071L21.5984 22.5314L25.9368 26.8698L26.3611 26.4455ZM22.1105 22.3193V20.6959H21.5105V22.3193H22.1105ZM21.8105 20.9959H22.2814V20.3959H21.8105V20.9959ZM22.2814 20.9959C22.5071 20.9959 22.6902 20.8128 22.6902 20.5871H22.0902C22.0902 20.4814 22.1757 20.3959 22.2814 20.3959V20.9959ZM22.6902 20.5871C22.6902 20.3614 22.5071 20.1783 22.2814 20.1783V20.7783C22.1757 20.7783 22.0902 20.6927 22.0902 20.5871H22.6902ZM22.2814 20.1783H20.0677V20.7783H22.2814V20.1783ZM20.3677 20.4781L20.3666 17.3649L19.7666 17.3651L19.7677 20.4784L20.3677 20.4781ZM20.3665 17.3702C20.3703 17.1553 20.4146 16.9471 20.4944 16.7534L19.9397 16.5248C19.8318 16.7866 19.7717 17.0687 19.7666 17.3598L20.3665 17.3702ZM20.0367 16.8788C20.4063 17.1569 20.8539 17.3101 21.3252 17.3101V16.7101C20.9859 16.7101 20.6645 16.6003 20.3974 16.3993L20.0367 16.8788ZM21.3252 17.3101C21.8988 17.3101 22.4396 17.086 22.845 16.6804L22.4207 16.2563C22.1278 16.5493 21.7397 16.7101 21.3252 16.7101V17.3101ZM22.845 16.6805C23.5439 15.9817 23.7749 15.0777 23.8356 14.3636C23.8965 13.6472 23.7895 13.0857 23.778 13.0282L23.1896 13.1459C23.1954 13.1745 23.2921 13.6746 23.2378 14.3128C23.1833 14.9533 22.9803 15.6968 22.4208 16.2562L22.845 16.6805ZM23.7781 13.0287C23.7459 12.8666 23.6191 12.7397 23.4569 12.7075L23.3402 13.2961C23.264 13.281 23.2046 13.2215 23.1895 13.1454L23.7781 13.0287ZM23.4573 12.7076C23.3997 12.6961 22.838 12.5892 22.1215 12.6501C21.4075 12.7108 20.5034 12.9416 19.8049 13.6401L20.2292 14.0643C20.7882 13.5054 21.5316 13.3024 22.1724 13.2479C22.8107 13.1937 23.311 13.2902 23.3398 13.296L23.4573 12.7076ZM19.8049 13.6401C19.3992 14.0458 19.1752 14.5868 19.1752 15.1604H19.7752C19.7752 14.7459 19.936 14.3576 20.2292 14.0643L19.8049 13.6401ZM19.1752 15.1604C19.1752 15.734 19.3992 16.2748 19.805 16.6803L20.2291 16.256C19.9359 15.9629 19.7752 15.5748 19.7752 15.1604H19.1752ZM19.8049 16.6803C19.8173 16.6927 19.829 16.7027 19.8334 16.7066C19.8365 16.7093 19.8372 16.71 19.8381 16.7107C19.8387 16.7112 19.8378 16.7105 19.8363 16.709L20.2518 16.2762C20.2459 16.2705 20.2405 16.2657 20.2366 16.2621C20.2329 16.2589 20.229 16.2555 20.2276 16.2543C20.2229 16.2502 20.2254 16.2523 20.2292 16.256L19.8049 16.6803ZM19.7704 16.3696C19.6325 16.6764 19.5551 17.0108 19.549 17.3577L20.1489 17.3682C20.1535 17.1044 20.2123 16.8499 20.3177 16.6156L19.7704 16.3696ZM19.549 17.3631L19.5501 20.4783L20.1501 20.4781L20.149 17.3629L19.549 17.3631ZM19.8501 20.1782H18.9183V20.7782H19.8501V20.1782ZM19.2183 20.4789L19.2204 19.5734L18.6204 19.572L18.6183 20.4775L19.2183 20.4789ZM19.2203 19.5678C19.2102 18.9483 19.0113 18.3592 18.6572 17.8646L18.1694 18.2138C18.4535 18.6107 18.6123 19.0818 18.6204 19.5776L19.2203 19.5678ZM18.633 18.2435C19.003 17.8456 19.2086 17.33 19.2086 16.7828H18.6086C18.6086 17.1768 18.4615 17.5469 18.1936 17.8349L18.633 18.2435ZM19.2086 16.7828C19.2086 16.2092 18.9845 15.6683 18.5785 15.2627L18.1545 15.6872C18.4478 15.9803 18.6086 16.3683 18.6086 16.7828H19.2086ZM18.5787 15.2629C17.9383 14.6224 17.1255 14.3751 16.4465 14.2916C15.7667 14.2079 15.1937 14.2848 14.998 14.3174L15.0964 14.9092C15.2614 14.8818 15.7718 14.8131 16.3733 14.8871C16.9756 14.9612 17.6421 15.1748 18.1544 15.6871L18.5787 15.2629ZM15.2593 14.4012L14.0256 13.1671L13.6013 13.5913L14.835 14.8254L15.2593 14.4012ZM14.0183 13.5983C15.5869 12.1316 17.6901 11.2319 20.0006 11.2319V10.6319C17.5311 10.6319 15.2832 11.5942 13.6085 13.1601L14.0183 13.5983ZM20.0006 11.2319C24.835 11.2319 28.7686 15.1655 28.7686 20H29.3686C29.3686 14.8342 25.1664 10.6319 20.0006 10.6319V11.2319ZM28.7686 20C28.7686 22.5418 27.6806 24.8337 25.9453 26.4373L26.3526 26.878C28.2049 25.166 29.3686 22.7169 29.3686 20H28.7686ZM21.844 14.6412C21.6844 14.4816 21.4256 14.4816 21.266 14.6412L21.6903 15.0655C21.6155 15.1402 21.4945 15.1402 21.4198 15.0655L21.844 14.6412ZM21.266 14.6412L20.285 15.6224L20.7093 16.0466L21.6903 15.0654L21.266 14.6412ZM20.2852 15.6222C20.1277 15.7795 19.9967 15.9543 19.8893 16.1391L20.408 16.4406C20.4916 16.2969 20.5915 16.1643 20.7091 16.0468L20.2852 15.6222ZM20.3649 16.082C20.1246 15.8319 19.9926 15.5069 19.9926 15.1604H19.3926C19.3926 15.6633 19.5856 16.1369 19.9323 16.4978L20.3649 16.082ZM19.9926 15.1604C19.9926 14.804 20.1309 14.4704 20.383 14.2181L19.9587 13.7939C19.5942 14.1586 19.3926 14.6447 19.3926 15.1604H19.9926ZM20.383 14.2182C20.8418 13.7594 21.4537 13.5609 22.0184 13.4886C22.5813 13.4165 23.0673 13.4738 23.2378 13.4996L23.3275 12.9063C23.1273 12.876 22.5808 12.8116 21.9421 12.8935C21.3052 12.9751 20.5465 13.2061 19.9587 13.7939L20.383 14.2182ZM22.9861 13.248C23.012 13.4186 23.0696 13.9041 22.9976 14.4666C22.9254 15.0308 22.7268 15.6426 22.2669 16.1024L22.6912 16.5267C23.2798 15.9381 23.5112 15.1796 23.5928 14.5428C23.6745 13.9043 23.6097 13.3582 23.5793 13.1578L22.9861 13.248ZM22.2669 16.1024C22.015 16.3543 21.6817 16.4924 21.3254 16.4924V17.0924C21.8408 17.0924 22.3268 16.8911 22.6912 16.5267L22.2669 16.1024ZM21.3254 16.4924C21.0211 16.4924 20.7337 16.3908 20.499 16.2043L20.1257 16.674C20.4659 16.9444 20.8847 17.0924 21.3254 17.0924V16.4924ZM20.5752 16.5838C20.6518 16.4445 20.7481 16.3154 20.863 16.2004L20.4388 15.7761C20.2832 15.9317 20.153 16.1065 20.0495 16.2945L20.5752 16.5838ZM20.8631 16.2004L21.8441 15.2192L21.4198 14.795L20.4388 15.7762L20.8631 16.2004ZM21.8436 15.2197C22.004 15.06 22.004 14.8004 21.8436 14.6407L21.4202 15.0659C21.3451 14.9911 21.3451 14.8693 21.4202 14.7945L21.8436 15.2197Z" fill="url(#paint1_linear_4_166)" mask="url(#path-2-outside-1_4_166)"/>
</g>
<defs>
<linearGradient id="paint0_linear_4_166" x1="20.0006" y1="10.7143" x2="20.0006" y2="29.2857" gradientUnits="userSpaceOnUse">
<stop stop-color="#ADB815"/>
<stop offset="1" stop-color="#18392A"/>
</linearGradient>
<linearGradient id="paint1_linear_4_166" x1="20.0006" y1="10.7143" x2="20.0006" y2="29.2857" gradientUnits="userSpaceOnUse">
<stop stop-color="#ADB815"/>
<stop offset="1" stop-color="#18392A"/>
</linearGradient>
<clipPath id="clip0_4_166">
<rect width="20" height="20" fill="white" transform="translate(10 10)"/>
</clipPath>
</defs>
</svg>
