<svg width="28" height="28" viewBox="0 0 28 28" fill="none" xmlns="http://www.w3.org/2000/svg">
<path d="M15.7507 12.8337C16.8336 12.8337 17.8722 12.4035 18.638 11.6377C19.4038 10.8719 19.834 9.83329 19.834 8.75033C19.834 7.66736 19.4038 6.62875 18.638 5.86297C17.8722 5.0972 16.8336 4.66699 15.7507 4.66699M15.3342 23.3337H4.50048C3.30348 23.3337 2.33398 22.4388 2.33398 21.334C2.33398 18.5725 4.75948 16.3337 7.75082 16.3337H12.0838C13.2436 16.3295 14.3772 16.6782 15.3342 17.3335M22.1673 16.3337V23.3337M25.6673 19.8337H18.6673M14.0007 8.75033C14.0007 9.83329 13.5704 10.8719 12.8047 11.6377C12.0389 12.4035 11.0003 12.8337 9.91732 12.8337C8.83435 12.8337 7.79574 12.4035 7.02997 11.6377C6.26419 10.8719 5.83398 9.83329 5.83398 8.75033C5.83398 7.66736 6.26419 6.62875 7.02997 5.86297C7.79574 5.0972 8.83435 4.66699 9.91732 4.66699C11.0003 4.66699 12.0389 5.0972 12.8047 5.86297C13.5704 6.62875 14.0007 7.66736 14.0007 8.75033Z" stroke="url(#paint0_linear_534_4104)" stroke-width="1.5" stroke-linecap="round" stroke-linejoin="round"/>
<defs>
<linearGradient id="paint0_linear_534_4104" x1="14.0007" y1="4.66699" x2="14.0007" y2="23.3337" gradientUnits="userSpaceOnUse">
<stop stop-color="#ADB815"/>
<stop offset="1" stop-color="#18392A"/>
</linearGradient>
</defs>
</svg>
