<svg width="60" height="59" viewBox="0 0 60 59" fill="none" xmlns="http://www.w3.org/2000/svg">
<path d="M2.25391 32.998H4.50391V54.8919H2.25391V32.998Z" fill="#125938"/>
<path d="M4.34766 16.6787H29.9998V19.8741H4.34766V16.6787Z" fill="#125938"/>
<path d="M4.34766 0.941406H29.9998V14.0781H4.34766V0.941406Z" fill="#125938"/>
<path d="M43.2598 8.99303L40.8685 4.02246L36.0859 5.32431L39.7816 12.6618L43.2598 8.99303Z" fill="#125938"/>
<path d="M36.8555 42.9541H58.0513V33.3682H36.8555V42.9541ZM39.138 36.6817C39.138 35.9716 39.6815 35.3799 40.3337 35.3799C40.9859 35.3799 41.5294 35.9716 41.5294 36.6817V39.4037C41.5294 40.1138 40.9859 40.7056 40.3337 40.7056C39.6815 40.7056 39.138 40.1139 39.138 39.4037V36.6817Z" fill="#125938"/>
<path d="M53.3696 26.6236L55.5435 16.5643C55.7609 15.6175 55.6522 14.6707 55.2174 13.9606L50.3262 4.01949C49.5653 2.36263 47.6088 1.77086 46.087 2.59932L43.4783 4.13779L44.5653 6.38642L47.174 4.84795C47.5 4.61126 48.0435 4.7296 48.1522 5.20299L53.0434 15.1441C53.1521 15.3808 53.2608 15.7359 53.1521 15.9726L50.8696 26.6234H21.8477V22.363H12.391V26.6234H0V30.7656H60V26.6234L53.3696 26.6236Z" fill="#125938"/>
<path d="M36.8555 55.0302H58.0513V45.4443H36.8555V55.0302ZM39.138 48.8762C39.138 48.1661 39.6815 47.5744 40.3337 47.5744C40.9859 47.5744 41.5294 48.1661 41.5294 48.8762V51.5982C41.5294 52.3083 40.9859 52.9001 40.3337 52.9001C39.6815 52.9001 39.138 52.3083 39.138 51.5982V48.8762Z" fill="#125938"/>
<path d="M10.1447 40.5066C9.34208 39.9121 8.57423 39.7043 8.5076 39.6851C8.42937 39.6659 8.38011 39.5796 8.4004 39.4933C8.41778 39.407 8.49601 39.3527 8.57425 39.3751C8.59163 39.3783 9.33919 39.5828 10.1679 40.1614C10.1331 39.3974 9.93319 37.7002 8.8785 37.0065C7.95709 36.3991 6.58368 36.674 4.79883 37.8184C4.95529 38.3937 5.73181 40.9477 7.30523 41.4944C8.1484 41.7852 9.10457 41.4528 10.1447 40.5066Z" fill="#125938"/>
<path d="M19.1145 36.9134C17.0776 36.5585 15.704 36.8111 15.0318 37.6677C14.4581 38.3997 14.5682 39.3874 14.6436 39.7869C14.9739 39.6079 15.3418 39.4513 15.7591 39.3362C15.8373 39.3138 15.9155 39.3682 15.9358 39.4513C15.9561 39.5376 15.9069 39.6239 15.8315 39.6463C15.5273 39.7294 15.252 39.8348 14.9999 39.9563C16.7153 40.3399 17.9264 40.1673 18.5928 39.4225C19.3346 38.5946 19.1782 37.2842 19.1145 36.9134Z" fill="#125938"/>
<path d="M16.7319 45.6543H7.63385C7.39336 45.6543 7.19922 45.8685 7.19922 46.1338V47.2397C7.19922 47.5051 7.39336 47.7192 7.63385 47.7192H16.7319C16.9724 47.7192 17.1665 47.5051 17.1665 47.2397V46.1338C17.1665 45.8685 16.9695 45.6543 16.7319 45.6543Z" fill="#125938"/>
<path d="M8.01273 52.9788C8.01273 53.6916 8.53717 54.2733 9.18332 54.2733H15.155C15.8012 54.2733 16.3256 53.6916 16.3256 52.9788V48.0371H8.00977V52.9788H8.01273Z" fill="#125938"/>
<path d="M12.0614 44.3599C12.0382 44.6859 12.0382 45.0151 12.0527 45.3316H12.3396C12.328 45.0855 12.3222 44.7562 12.3512 44.3663C12.4468 42.9342 12.9365 41.1761 14.5707 40.1821C14.5504 40.1757 14.533 40.1725 14.5128 40.1693C14.4635 40.1565 14.4229 40.115 14.4084 40.0638C14.4055 40.0543 14.394 40.0095 14.3795 39.9424C13.0553 40.7799 12.473 42.0904 12.2237 43.2219C11.934 41.8826 11.2009 40.9779 10.465 40.3834C10.465 40.4793 10.465 40.5465 10.4621 40.5592C10.4592 40.604 10.4418 40.6456 10.4099 40.6743C10.4012 40.6807 10.3925 40.6871 10.3867 40.6967C11.2241 41.4031 12.0325 42.5475 12.0614 44.3599Z" fill="#125938"/>
</svg>
