<svg width="32" height="32" viewBox="0 0 32 32" fill="none" xmlns="http://www.w3.org/2000/svg">
<path d="M25.3327 5.33301C26.353 5.33295 27.3347 5.72277 28.077 6.42272C28.8194 7.12266 29.2662 8.07982 29.326 9.09834L29.3327 9.33301V11.7557C29.3297 12.1158 29.2326 12.4689 29.0511 12.7799C28.8696 13.091 28.61 13.3492 28.298 13.529L28.1554 13.6063C27.724 13.8181 27.3578 14.1424 27.0956 14.5451C26.8334 14.9478 26.6849 15.4139 26.6658 15.8941C26.6467 16.3742 26.7576 16.8506 26.987 17.2729C27.2163 17.6952 27.5555 18.0476 27.9687 18.293L28.1554 18.393C28.7327 18.6783 29.2487 19.2677 29.3234 20.0463L29.3327 20.2437V22.6663C29.3327 23.6866 28.9429 24.6684 28.243 25.4107C27.543 26.153 26.5859 26.5998 25.5674 26.6597L25.3327 26.6663H6.66602C5.64573 26.6664 4.664 26.2766 3.92167 25.5766C3.17934 24.8767 2.73254 23.9195 2.67268 22.901L2.66602 22.6663V20.2437C2.66602 19.4357 3.13535 18.8063 3.70068 18.4703L3.84335 18.393C4.27472 18.1813 4.64087 17.8569 4.90307 17.4542C5.16528 17.0515 5.31379 16.5854 5.33292 16.1053C5.35204 15.6251 5.24106 15.1487 5.01172 14.7264C4.78237 14.3042 4.44319 13.9517 4.03002 13.7063L3.84335 13.6063C3.26602 13.321 2.75002 12.7317 2.67535 11.953L2.66602 11.757V9.33301C2.66596 8.31273 3.05578 7.33099 3.75573 6.58866C4.45567 5.84633 5.41283 5.39953 6.43135 5.33967L6.66602 5.33301H25.3327ZM25.3327 7.99967H6.66602C6.33944 7.99972 6.02423 8.11962 5.78019 8.33663C5.53614 8.55364 5.38023 8.85267 5.34202 9.17701L5.33268 9.33301V11.3797C6.12262 11.8354 6.7825 12.4861 7.24929 13.2695C7.71608 14.053 7.97417 14.943 7.99892 15.8547C8.02366 16.7663 7.81423 17.669 7.39062 18.4767C6.96702 19.2843 6.3434 19.9698 5.57935 20.4677L5.33268 20.6197V22.6663C5.33273 22.9929 5.45262 23.3081 5.66964 23.5522C5.88665 23.7962 6.18568 23.9521 6.51002 23.9903L6.66602 23.9997H25.3327C25.6593 23.9996 25.9745 23.8797 26.2185 23.6627C26.4626 23.4457 26.6185 23.1467 26.6567 22.8223L26.666 22.6663V20.6197C25.8761 20.164 25.2162 19.5133 24.7494 18.7298C24.2826 17.9464 24.0245 17.0563 23.9998 16.1447C23.975 15.2331 24.1845 14.3303 24.6081 13.5227C25.0317 12.7151 25.6553 12.0296 26.4194 11.5317L26.666 11.3797V9.33301C26.666 9.00643 26.5461 8.69123 26.3291 8.44718C26.1121 8.20313 25.813 8.04722 25.4887 8.00901L25.3327 7.99967Z" fill="url(#paint0_linear_534_2383)"/>
<path fill-rule="evenodd" clip-rule="evenodd" d="M9.33398 16.0003L11.0007 14.2225L14.334 17.7781L21.0007 10.667L22.6673 12.4448L14.334 21.3337L9.33398 16.0003Z" fill="url(#paint1_linear_534_2383)"/>
<defs>
<linearGradient id="paint0_linear_534_2383" x1="15.9993" y1="5.33301" x2="15.9993" y2="26.6663" gradientUnits="userSpaceOnUse">
<stop stop-color="#ADB815"/>
<stop offset="1" stop-color="#18392A"/>
</linearGradient>
<linearGradient id="paint1_linear_534_2383" x1="16.0007" y1="10.667" x2="16.0007" y2="21.3337" gradientUnits="userSpaceOnUse">
<stop stop-color="#ADB815"/>
<stop offset="1" stop-color="#18392A"/>
</linearGradient>
</defs>
</svg>
