<svg width="40" height="40" viewBox="0 0 40 40" fill="none" xmlns="http://www.w3.org/2000/svg">
<circle cx="20" cy="20" r="20" fill="#EAF6E4" fill-opacity="0.59"/>
<path d="M27.2313 17.9317C26.9458 14.725 24.2474 12.2012 20.967 12.2012H19.1549C15.8759 12.2012 13.1772 14.725 12.8917 17.9317C11.7177 18.2098 10.8398 19.2602 10.8398 20.5173V22.208C10.8398 23.676 12.0352 24.8713 13.5032 24.8713C14.9712 24.8713 16.1665 23.676 16.1665 22.208V20.5173C16.1665 19.2815 15.3164 18.2492 14.1733 17.9498C14.4439 15.441 16.5746 13.4796 19.1549 13.4796H20.9671C23.5484 13.4796 25.6779 15.4408 25.9506 17.9498C24.8075 18.2492 23.9573 19.2815 23.9573 20.5173V22.208C23.9573 23.4544 24.8224 24.4974 25.9815 24.7851V25.7076C25.9815 26.8529 25.0504 27.7851 23.9041 27.7851H22.3039C21.9865 27.2417 21.4048 26.872 20.7315 26.872H19.2709C18.2631 26.872 17.4449 27.6913 17.4449 28.698C17.4449 29.7058 18.2642 30.524 19.2709 30.524H20.7315C21.6136 30.524 22.3508 29.8955 22.5213 29.0634H23.9041C25.7546 29.0634 27.26 27.5581 27.26 25.7075V24.7849C28.4191 24.4973 29.2841 23.4554 29.2841 22.2079V20.5172C29.2841 19.2601 28.4053 18.2087 27.2313 17.9317ZM14.8871 20.5173V22.208C14.8871 22.9719 14.266 23.5929 13.5022 23.5929C12.7383 23.594 12.1172 22.9719 12.1172 22.2091V20.5184C12.1172 19.7545 12.7383 19.1334 13.5022 19.1334C14.266 19.1324 14.8871 19.7545 14.8871 20.5173ZM20.7316 29.2468H19.271C18.9695 29.2468 18.7235 29.0007 18.7235 28.6992C18.7235 28.3977 18.9696 28.1516 19.271 28.1516H20.7316C21.0331 28.1516 21.2792 28.3966 21.2792 28.6992C21.2792 29.0017 21.0331 29.2468 20.7316 29.2468ZM28.0058 22.209C28.0058 22.9729 27.3847 23.594 26.6209 23.594C25.857 23.594 25.2359 22.9729 25.2359 22.209V20.5183C25.2359 19.7545 25.857 19.1334 26.6209 19.1334C27.3847 19.1334 28.0058 19.7545 28.0058 20.5183V22.209Z" fill="url(#paint0_linear_534_3295)"/>
<path d="M18.2154 20.5646H20.2023C20.5549 20.5646 20.8415 20.278 20.8415 19.9254C20.8415 19.5727 20.5549 19.2861 20.2023 19.2861H18.2154C17.8628 19.2861 17.5762 19.5727 17.5762 19.9254C17.5762 20.278 17.8628 20.5646 18.2154 20.5646Z" fill="url(#paint1_linear_534_3295)"/>
<path d="M18.2154 23.4405H21.9068C22.2594 23.4405 22.546 23.154 22.546 22.8013C22.546 22.4487 22.2594 22.1621 21.9068 22.1621H18.2154C17.8628 22.1621 17.5762 22.4487 17.5762 22.8013C17.5762 23.155 17.8628 23.4405 18.2154 23.4405Z" fill="url(#paint2_linear_534_3295)"/>
<defs>
<linearGradient id="paint0_linear_534_3295" x1="20.062" y1="12.2012" x2="20.062" y2="30.524" gradientUnits="userSpaceOnUse">
<stop stop-color="#ADB815"/>
<stop offset="1" stop-color="#18392A"/>
</linearGradient>
<linearGradient id="paint1_linear_534_3295" x1="19.2088" y1="19.2861" x2="19.2088" y2="20.5646" gradientUnits="userSpaceOnUse">
<stop stop-color="#ADB815"/>
<stop offset="1" stop-color="#18392A"/>
</linearGradient>
<linearGradient id="paint2_linear_534_3295" x1="20.0611" y1="22.1621" x2="20.0611" y2="23.4405" gradientUnits="userSpaceOnUse">
<stop stop-color="#ADB815"/>
<stop offset="1" stop-color="#18392A"/>
</linearGradient>
</defs>
</svg>
