<svg width="55" height="55" viewBox="0 0 55 55" fill="none" xmlns="http://www.w3.org/2000/svg">
<circle cx="27.5" cy="27.5" r="27.5" fill="#D9D9D9"/>
<circle cx="27.5" cy="27.5" r="27" fill="#EAF7E4" stroke="url(#paint0_linear_534_2567)"/>
<path fill-rule="evenodd" clip-rule="evenodd" d="M32.0409 23.9126H37.3279C37.7573 23.9126 38.1813 24.0192 38.5613 24.2219C38.9413 24.4246 39.2707 24.7206 39.5174 25.082C39.7636 25.4462 39.921 25.863 39.977 26.299C40.0331 26.735 39.9862 27.1781 39.8401 27.5928L36.6932 37.1947C36.3092 38.2801 36.0532 39.0014 34.1811 39.0014C31.4182 39.0014 28.4794 38.0987 25.9712 37.3267C25.3419 37.1333 24.7392 36.948 24.1738 36.788H24.0205V23.6379C26.2311 21.4566 28.1324 18.9828 29.6715 16.2854C29.9302 15.7874 30.3553 15.3958 30.8729 15.1787C31.3857 14.9649 31.9582 14.9422 32.4863 15.1147C33.0143 15.2881 33.4677 15.6441 33.7664 16.1241C34.0664 16.6041 34.1931 17.1748 34.1251 17.7389L32.0409 23.9126ZM17.5694 24.3339H21.3336V35.0012C21.3336 35.7085 21.0527 36.3868 20.5525 36.8869C20.0524 37.387 19.3741 37.668 18.6668 37.668C17.9595 37.668 17.2812 37.387 16.7811 36.8869C16.281 36.3868 16 35.7085 16 35.0012V25.9033C16 25.0366 16.704 24.3339 17.5694 24.3339Z" fill="url(#paint1_linear_534_2567)"/>
<defs>
<linearGradient id="paint0_linear_534_2567" x1="27.5" y1="0" x2="27.5" y2="55" gradientUnits="userSpaceOnUse">
<stop stop-color="#ADB815"/>
<stop offset="1" stop-color="#18392A"/>
</linearGradient>
<linearGradient id="paint1_linear_534_2567" x1="28" y1="15" x2="28" y2="39.0014" gradientUnits="userSpaceOnUse">
<stop stop-color="#ADB815"/>
<stop offset="1" stop-color="#18392A"/>
</linearGradient>
</defs>
</svg>
