<svg width="28" height="28" viewBox="0 0 28 28" fill="none" xmlns="http://www.w3.org/2000/svg">
<g clip-path="url(#clip0_534_4115)">
<path d="M16.7992 6.26246C18.2404 6.26246 19.3933 5.12623 19.3933 3.70594C19.3933 2.28565 18.2404 1.14941 16.7992 1.14941C15.358 1.14941 14.2051 2.28565 14.2051 3.70594C14.2051 5.12623 15.3992 6.26246 16.7992 6.26246ZM16.7992 1.96101C17.7874 1.96101 18.5698 2.73202 18.5698 3.70594C18.5698 4.67985 17.7874 5.45086 16.7992 5.45086C15.811 5.45086 15.0286 4.67985 15.0286 3.70594C15.0286 2.73202 15.8521 1.96101 16.7992 1.96101Z" fill="url(#paint0_linear_534_4115)" stroke="url(#paint1_linear_534_4115)" stroke-width="0.1"/>
<path d="M4.80028 23.0896H4.79985L4.8007 23.0987C4.83523 23.4731 4.48516 23.8011 4.07675 23.8011C3.67765 23.8011 3.35322 23.4793 3.35322 23.0896C3.35322 22.6998 3.67765 22.378 4.07675 22.378C4.47584 22.378 4.80028 22.6998 4.80028 23.0896ZM4.07675 21.3258C3.11702 21.3258 2.32969 22.0996 2.32969 23.049C2.32969 23.9983 3.11702 24.7722 4.07675 24.7722C5.03648 24.7722 5.8238 23.9983 5.8238 23.049C5.8238 22.1013 5.0793 21.3258 4.07675 21.3258Z" fill="url(#paint2_linear_534_4115)" stroke="url(#paint3_linear_534_4115)" stroke-width="0.2"/>
<path d="M26.7647 26.1466H25.0353L26.8059 24.4017C27.3412 23.8742 27.3412 23.022 26.8059 22.4539L23.2647 18.964V16.4481C23.7176 15.7582 23.8412 14.9466 23.5941 14.1351L21.7412 8.49447C21.2882 7.07418 19.7235 6.30317 18.2824 6.74955C16.8412 7.19592 16.0588 8.73795 16.5118 10.1582L16.8824 11.2539L16.3882 12.1061L13.7941 12.2684C13.0941 12.309 12.6 12.8771 12.6412 13.5669C12.6412 13.6887 12.6824 13.7698 12.7235 13.8916L4.73529 19.8568C4.40588 19.7756 4.03529 19.6945 3.70588 19.6945C1.68824 19.6945 0.0411765 21.3177 0.0411765 23.3061C0.0411765 24.4423 0.576471 25.4568 1.4 26.1061H0.411765C0.164706 26.1061 0 26.2684 0 26.5119C0 26.7553 0.164706 26.9177 0.411765 26.9177C9.22353 26.9177 17.9941 26.9177 26.7647 26.9177C27.0118 26.9177 27.1765 26.7553 27.1765 26.5119C27.1765 26.2684 27.0118 26.1466 26.7647 26.1466ZM0.823529 23.3466C0.823529 21.8046 2.1 20.5466 3.66471 20.5466C5.22941 20.5466 6.50588 21.8046 6.50588 23.3466C6.50588 24.8887 5.22941 26.1466 3.66471 26.1466C2.1 26.1466 0.823529 24.8887 0.823529 23.3466ZM7.37059 23.3466C7.37059 22.0481 6.67059 20.8713 5.6 20.2626L13.1765 14.5814C13.3824 14.7032 13.5882 14.7843 13.8353 14.7843C13.9176 14.7843 17.0882 14.5814 17.1706 14.5814C17.4176 14.5814 17.6235 14.4597 17.8294 14.338L18.2824 15.7177L15.9353 18.193C15.6882 18.4365 15.5647 18.7611 15.5647 19.1264V24.1988H14.1647C13.3824 24.1988 12.7647 24.8075 12.7647 25.5785C12.7647 25.7814 12.8059 25.9438 12.8882 26.1466H11.6529C11.4471 25.9032 10.9118 25.0916 11.9412 23.509C12.0235 23.3872 12.0235 23.2249 11.9412 23.1032C11.8588 22.9814 11.7353 22.9003 11.6118 22.9003C11.5706 22.9003 10.5 22.8597 9.84118 23.4684C9.18235 22.8597 8.15294 22.9003 8.07059 22.9003C7.90588 22.9003 7.78235 22.9814 7.74118 23.1032C7.65882 23.2249 7.65882 23.3872 7.74118 23.509C8.77059 25.0916 8.23529 25.9032 8.02941 26.1466H5.97059C6.83529 25.4974 7.37059 24.4829 7.37059 23.3466ZM8.85294 23.793C9.1 23.8742 9.38824 24.0365 9.47059 24.3206C9.51176 24.4829 9.67647 24.6046 9.88235 24.6046C10.0882 24.6046 10.2118 24.4829 10.2941 24.3206C10.3765 24.0365 10.6235 23.8742 10.9118 23.793C10.4176 24.8481 10.5412 25.6191 10.7882 26.1466H9.05882C9.22353 25.6191 9.34706 24.8481 8.85294 23.793ZM14.1647 26.1466C13.8353 26.1466 13.5882 25.9032 13.5882 25.5785C13.5882 25.2539 13.8353 25.0104 14.1647 25.0104H15.9765C16.2235 25.0104 16.3882 24.8481 16.3882 24.6046V19.1264C16.3882 19.0046 16.4294 18.8423 16.5529 18.7611L19.0647 16.0829C19.2294 15.9206 19.1882 15.7988 19.1471 15.5959L18.4471 13.4858L20.3412 10.1988C20.4647 9.99592 20.3824 9.75245 20.1765 9.63071C19.9706 9.50897 19.7235 9.59013 19.6 9.79303L17.4176 13.5264C17.3353 13.6481 17.2118 13.7293 17.0882 13.7293L13.7941 13.9322C13.5882 13.9322 13.3824 13.7698 13.3824 13.5669C13.3824 13.3235 13.5471 13.1611 13.7529 13.1206L16.5529 12.9582C16.6765 12.9582 16.8 12.8771 16.8824 12.7553L18.8176 9.38723C18.9412 9.18433 18.8588 8.94085 18.6529 8.81911C18.4471 8.69737 18.2 8.77853 18.0765 8.98143L17.2941 10.3611V9.99592C16.9647 9.02201 17.5412 7.92636 18.5294 7.60172C19.5588 7.27708 20.6294 7.8452 20.9588 8.81911L22.7706 14.4597C23.2647 15.9611 21.7412 17.3814 20.2588 16.8133C20.0941 16.7322 19.9294 16.7727 19.8059 16.8945L17.5824 19.2075C17.5 19.2887 17.4588 19.3698 17.4588 19.4916V25.5785C17.4588 25.9032 17.2118 26.1466 16.8824 26.1466H14.1647ZM22.3588 26.1466H18.2C18.2824 25.9843 18.3235 25.7814 18.3235 25.5785V19.6539L20.2588 17.6249C20.3412 17.6655 20.4235 17.6655 20.5059 17.6655V19.5322C20.5059 19.8974 20.6706 20.222 20.9176 20.5061L23.8824 23.4278L22.6471 24.6046C22.2353 25.0104 22.1118 25.6191 22.3588 26.1466ZM23.2235 25.9843C23.0176 25.7814 23.0176 25.4162 23.2235 25.2133L24.7059 23.7524C24.8706 23.5901 24.8706 23.3466 24.7059 23.1843L21.4529 19.9785C21.3294 19.8568 21.2882 19.7351 21.2882 19.5727V17.7061C21.7 17.6655 22.0706 17.5032 22.4 17.3003V19.1669C22.4 19.2887 22.4412 19.3698 22.5235 19.451L26.1882 23.0626C26.3941 23.2655 26.3941 23.6307 26.1882 23.8336L24.0059 25.9843C23.8 26.1872 23.4706 26.1872 23.2235 25.9843Z" fill="url(#paint4_linear_534_4115)" stroke="url(#paint5_linear_534_4115)" stroke-width="0.1"/>
</g>
<defs>
<linearGradient id="paint0_linear_534_4115" x1="16.7992" y1="1.14941" x2="16.7992" y2="6.26246" gradientUnits="userSpaceOnUse">
<stop stop-color="#ADB815"/>
<stop offset="1" stop-color="#18392A"/>
</linearGradient>
<linearGradient id="paint1_linear_534_4115" x1="16.7992" y1="1.14941" x2="16.7992" y2="6.26246" gradientUnits="userSpaceOnUse">
<stop stop-color="#ADB815"/>
<stop offset="1" stop-color="#18392A"/>
</linearGradient>
<linearGradient id="paint2_linear_534_4115" x1="4.07675" y1="21.4258" x2="4.07675" y2="24.6722" gradientUnits="userSpaceOnUse">
<stop stop-color="#ADB815"/>
<stop offset="1" stop-color="#18392A"/>
</linearGradient>
<linearGradient id="paint3_linear_534_4115" x1="4.07675" y1="21.4258" x2="4.07675" y2="24.6722" gradientUnits="userSpaceOnUse">
<stop stop-color="#ADB815"/>
<stop offset="1" stop-color="#18392A"/>
</linearGradient>
<linearGradient id="paint4_linear_534_4115" x1="13.6037" y1="6.62305" x2="13.6037" y2="26.9177" gradientUnits="userSpaceOnUse">
<stop stop-color="#ADB815"/>
<stop offset="1" stop-color="#18392A"/>
</linearGradient>
<linearGradient id="paint5_linear_534_4115" x1="13.6037" y1="6.62305" x2="13.6037" y2="26.9177" gradientUnits="userSpaceOnUse">
<stop stop-color="#ADB815"/>
<stop offset="1" stop-color="#18392A"/>
</linearGradient>
<clipPath id="clip0_534_4115">
<rect width="28" height="28" fill="white"/>
</clipPath>
</defs>
</svg>
