<svg width="55" height="55" viewBox="0 0 55 55" fill="none" xmlns="http://www.w3.org/2000/svg">
<circle cx="27.5" cy="27.5" r="27" fill="#EAF7E4" stroke="url(#paint0_linear_45_92)"/>
<path d="M37.18 21L28.93 16.275C28.6454 16.1174 28.3254 16.0347 28 16.0347C27.6747 16.0347 27.3546 16.1174 27.07 16.275L18.82 21C18.5319 21.1646 18.2927 21.4026 18.1266 21.6898C17.9606 21.9771 17.8738 22.3032 17.875 22.635V31.5C17.8966 31.8086 17.9941 32.107 18.159 32.3687C18.3239 32.6305 18.551 32.8473 18.82 33L27.07 37.665C27.3546 37.8226 27.6747 37.9053 28 37.9053C28.3254 37.9053 28.6454 37.8226 28.93 37.665L37.18 33C37.449 32.8473 37.6761 32.6305 37.841 32.3687C38.0059 32.107 38.1035 31.8086 38.125 31.5V22.575C38.1158 22.2535 38.0241 21.9397 37.8586 21.6639C37.6931 21.388 37.4594 21.1594 37.18 21ZM27.07 35.565L23.875 33.765V25.815L27.07 27.555V35.565ZM28 25.935L24.88 24.225L32.095 20.22L35.23 21.99L28 25.935ZM28 17.91L30.19 19.14L22.93 23.175L20.77 21.99L28 17.91ZM19.75 23.565L22 24.795V32.7L19.75 31.5V23.565ZM28.93 35.565V27.555L36.25 23.565V31.5L28.93 35.565Z" fill="url(#paint1_linear_45_92)"/>
<defs>
<linearGradient id="paint0_linear_45_92" x1="27.5" y1="0" x2="27.5" y2="55" gradientUnits="userSpaceOnUse">
<stop stop-color="#ADB815"/>
<stop offset="1" stop-color="#18392A"/>
</linearGradient>
<linearGradient id="paint1_linear_45_92" x1="28" y1="16.0347" x2="28" y2="37.9053" gradientUnits="userSpaceOnUse">
<stop stop-color="#ADB815"/>
<stop offset="1" stop-color="#18392A"/>
</linearGradient>
</defs>
</svg>
