<svg width="18" height="18" viewBox="0 0 18 18" fill="none" xmlns="http://www.w3.org/2000/svg">
<path d="M13.2671 8.43723H2.8125C2.66332 8.43723 2.52024 8.4965 2.41475 8.60199C2.30926 8.70748 2.25 8.85055 2.25 8.99973C2.25 9.14892 2.30926 9.29199 2.41475 9.39748C2.52024 9.50297 2.66332 9.56223 2.8125 9.56223H13.2671L9.16425 13.664C9.05863 13.7696 8.99929 13.9129 8.99929 14.0622C8.99929 14.2116 9.05863 14.3549 9.16425 14.4605C9.26987 14.5661 9.41313 14.6254 9.5625 14.6254C9.71187 14.6254 9.85513 14.5661 9.96075 14.4605L15.0233 9.39798C15.0756 9.34573 15.1172 9.28366 15.1456 9.21532C15.1739 9.14698 15.1885 9.07372 15.1885 8.99973C15.1885 8.92575 15.1739 8.85248 15.1456 8.78415C15.1172 8.71581 15.0756 8.65374 15.0233 8.60148L9.96075 3.53898C9.85513 3.43336 9.71187 3.37402 9.5625 3.37402C9.41313 3.37402 9.26987 3.43336 9.16425 3.53898C9.05863 3.64461 8.99929 3.78786 8.99929 3.93723C8.99929 4.08661 9.05863 4.22986 9.16425 4.33548L13.2671 8.43723Z" fill="white"/>
</svg>
