<svg width="40" height="40" viewBox="0 0 40 40" fill="none" xmlns="http://www.w3.org/2000/svg">
<circle cx="20" cy="20" r="20" fill="#EAF6E4" fill-opacity="0.59"/>
<path d="M23.4918 15.8548H25.2372C25.4776 15.8548 25.6736 15.6588 25.6736 15.4185V11.9276C25.6736 11.6872 25.4776 11.4912 25.2372 11.4912H22.619C19.9727 11.4912 17.819 13.6449 17.819 16.2912V18.5079H14.7645C14.5241 18.5079 14.3281 18.704 14.3281 18.9443V22.4003C14.3281 22.6407 14.5241 22.8367 14.7645 22.8367H17.5155V29.3821C17.5155 29.6225 17.7116 29.8185 17.9519 29.8185H21.5953C21.8357 29.8185 22.0317 29.6225 22.0317 29.3821V22.8367H24.327C24.5255 22.8367 24.7002 22.7037 24.7505 22.5094L25.6608 19.0185C25.6957 18.8872 25.6676 18.7483 25.5841 18.6409C25.5014 18.5344 25.3744 18.4705 25.2398 18.4705H22.1852V17.1614C22.1852 16.4395 22.7724 15.8523 23.4943 15.8523L23.4918 15.8548ZM21.7463 19.3458H24.6721L23.9895 21.9639H21.5938C21.3535 21.9639 21.1575 22.16 21.1575 22.4003V28.9458H18.3868V22.4003C18.3868 22.16 18.1907 21.9639 17.9504 21.9639H15.1993V19.3807H18.2539C18.4942 19.3807 18.6903 19.1846 18.6903 18.9443V16.2912C18.6903 14.1264 20.451 12.3639 22.6175 12.3639H24.7993V14.9821H23.4903C22.2877 14.9821 21.3084 15.9614 21.3084 17.1639V18.9094C21.3084 19.1497 21.5045 19.3458 21.7448 19.3458H21.7463Z" fill="url(#paint0_linear_534_3313)"/>
<defs>
<linearGradient id="paint0_linear_534_3313" x1="20.0018" y1="11.4912" x2="20.0018" y2="29.8185" gradientUnits="userSpaceOnUse">
<stop stop-color="#ADB815"/>
<stop offset="1" stop-color="#18392A"/>
</linearGradient>
</defs>
</svg>
