<svg width="28" height="28" viewBox="0 0 28 28" fill="none" xmlns="http://www.w3.org/2000/svg">
<path d="M10.4993 5.83326C10.1899 5.83326 9.89318 5.95618 9.67439 6.17497C9.4556 6.39376 9.33268 6.69051 9.33268 6.99993C9.33268 7.30935 9.4556 7.60609 9.67439 7.82489C9.89318 8.04368 10.1899 8.1666 10.4993 8.1666C10.8088 8.1666 11.1055 8.04368 11.3243 7.82489C11.5431 7.60609 11.666 7.30935 11.666 6.99993C11.666 6.69051 11.5431 6.39376 11.3243 6.17497C11.1055 5.95618 10.8088 5.83326 10.4993 5.83326ZM7.19768 5.83326C7.43872 5.15014 7.88571 4.5586 8.47705 4.14018C9.06839 3.72177 9.77495 3.49707 10.4993 3.49707C11.2237 3.49707 11.9303 3.72177 12.5216 4.14018C13.113 4.5586 13.56 5.15014 13.801 5.83326H22.166C22.4754 5.83326 22.7722 5.95618 22.991 6.17497C23.2098 6.39376 23.3327 6.69051 23.3327 6.99993C23.3327 7.30935 23.2098 7.60609 22.991 7.82489C22.7722 8.04368 22.4754 8.1666 22.166 8.1666H13.801C13.56 8.84972 13.113 9.44126 12.5216 9.85967C11.9303 10.2781 11.2237 10.5028 10.4993 10.5028C9.77495 10.5028 9.06839 10.2781 8.47705 9.85967C7.88571 9.44126 7.43872 8.84972 7.19768 8.1666H5.83268C5.52326 8.1666 5.22652 8.04368 5.00772 7.82489C4.78893 7.60609 4.66602 7.30935 4.66602 6.99993C4.66602 6.69051 4.78893 6.39376 5.00772 6.17497C5.22652 5.95618 5.52326 5.83326 5.83268 5.83326H7.19768ZM17.4993 12.8333C17.1899 12.8333 16.8932 12.9562 16.6744 13.175C16.4556 13.3938 16.3327 13.6905 16.3327 13.9999C16.3327 14.3093 16.4556 14.6061 16.6744 14.8249C16.8932 15.0437 17.1899 15.1666 17.4993 15.1666C17.8088 15.1666 18.1055 15.0437 18.3243 14.8249C18.5431 14.6061 18.666 14.3093 18.666 13.9999C18.666 13.6905 18.5431 13.3938 18.3243 13.175C18.1055 12.9562 17.8088 12.8333 17.4993 12.8333ZM14.1977 12.8333C14.4387 12.1501 14.8857 11.5586 15.477 11.1402C16.0684 10.7218 16.775 10.4971 17.4993 10.4971C18.2237 10.4971 18.9303 10.7218 19.5216 11.1402C20.113 11.5586 20.56 12.1501 20.801 12.8333H22.166C22.4754 12.8333 22.7722 12.9562 22.991 13.175C23.2098 13.3938 23.3327 13.6905 23.3327 13.9999C23.3327 14.3093 23.2098 14.6061 22.991 14.8249C22.7722 15.0437 22.4754 15.1666 22.166 15.1666H20.801C20.56 15.8497 20.113 16.4413 19.5216 16.8597C18.9303 17.2781 18.2237 17.5028 17.4993 17.5028C16.775 17.5028 16.0684 17.2781 15.477 16.8597C14.8857 16.4413 14.4387 15.8497 14.1977 15.1666H5.83268C5.52326 15.1666 5.22652 15.0437 5.00772 14.8249C4.78893 14.6061 4.66602 14.3093 4.66602 13.9999C4.66602 13.6905 4.78893 13.3938 5.00772 13.175C5.22652 12.9562 5.52326 12.8333 5.83268 12.8333H14.1977ZM10.4993 19.8333C10.1899 19.8333 9.89318 19.9562 9.67439 20.175C9.4556 20.3938 9.33268 20.6905 9.33268 20.9999C9.33268 21.3093 9.4556 21.6061 9.67439 21.8249C9.89318 22.0437 10.1899 22.1666 10.4993 22.1666C10.8088 22.1666 11.1055 22.0437 11.3243 21.8249C11.5431 21.6061 11.666 21.3093 11.666 20.9999C11.666 20.6905 11.5431 20.3938 11.3243 20.175C11.1055 19.9562 10.8088 19.8333 10.4993 19.8333ZM7.19768 19.8333C7.43872 19.1501 7.88571 18.5586 8.47705 18.1402C9.06839 17.7218 9.77495 17.4971 10.4993 17.4971C11.2237 17.4971 11.9303 17.7218 12.5216 18.1402C13.113 18.5586 13.56 19.1501 13.801 19.8333H22.166C22.4754 19.8333 22.7722 19.9562 22.991 20.175C23.2098 20.3938 23.3327 20.6905 23.3327 20.9999C23.3327 21.3093 23.2098 21.6061 22.991 21.8249C22.7722 22.0437 22.4754 22.1666 22.166 22.1666H13.801C13.56 22.8497 13.113 23.4413 12.5216 23.8597C11.9303 24.2781 11.2237 24.5028 10.4993 24.5028C9.77495 24.5028 9.06839 24.2781 8.47705 23.8597C7.88571 23.4413 7.43872 22.8497 7.19768 22.1666H5.83268C5.52326 22.1666 5.22652 22.0437 5.00772 21.8249C4.78893 21.6061 4.66602 21.3093 4.66602 20.9999C4.66602 20.6905 4.78893 20.3938 5.00772 20.175C5.22652 19.9562 5.52326 19.8333 5.83268 19.8333H7.19768Z" fill="#202020"/>
</svg>
