<svg width="40" height="40" viewBox="0 0 40 40" fill="none" xmlns="http://www.w3.org/2000/svg">
<rect width="40" height="40" rx="4" fill="#DCE8D6"/>
<mask id="path-2-outside-1_4_165" maskUnits="userSpaceOnUse" x="7.52344" y="9.03281" width="25" height="23" fill="black">
<rect fill="white" x="7.52344" y="9.03281" width="25" height="23"/>
<path fill-rule="evenodd" clip-rule="evenodd" d="M20.8544 29.7401C19.3078 30.7275 17.8917 31.1144 16.6385 31.0738C15.7521 31.0445 14.9487 30.8014 14.2374 30.4044C13.5339 30.0115 12.9226 29.4697 12.4124 28.8377C11.2283 27.3682 10.5828 25.3994 10.5863 23.686L9.78171 23.7305C9.63399 23.7376 9.50785 23.6384 9.4999 23.5067C9.49649 23.4541 9.5124 23.4055 9.54194 23.3639L11.2079 21.0438C11.2874 20.9334 11.4522 20.901 11.5772 20.9719C11.609 20.9901 11.634 21.0134 11.6544 21.0387L13.534 23.1351C13.626 23.2373 13.6067 23.3862 13.4919 23.4683C13.4499 23.4986 13.3999 23.5148 13.3499 23.5189L12.5249 23.5867C12.5556 24.8344 12.9954 26.3829 13.8272 27.661C14.2726 28.3456 14.8294 28.9502 15.4942 29.3847C16.1476 29.811 16.909 30.0733 17.7715 30.0824C18.6045 30.0915 19.5408 29.8667 20.5783 29.331C20.7056 29.2652 20.8692 29.3037 20.9431 29.4171C21.0135 29.5305 20.9737 29.6722 20.8544 29.7401ZM30.9079 27.9597L30.9386 22.9801L26.1182 25.4603V30.4238L27.7261 29.5964C27.7307 29.5944 27.7364 29.5913 27.7409 29.5893L30.9079 27.9597ZM30.6738 22.5668L25.8511 25.048L24.3909 24.2966L27.9487 22.4656L28.1646 22.3542L29.2135 21.8144L30.6738 22.5668ZM28.6795 21.5409L27.6817 22.0544L23.7396 24.0829C23.651 24.1214 23.5896 24.2034 23.5896 24.2966V25.9149L23.2135 25.5423C23.1407 25.4704 23.0237 25.443 22.9169 25.4805L22.4385 25.6506V23.5664L23.4521 23.0449C23.4578 23.0428 23.4624 23.0398 23.468 23.0378L27.5294 20.9485L28.3828 21.387C28.3874 21.3901 28.3919 21.3921 28.3965 21.3941L28.6795 21.5409ZM26.9954 20.674L23.201 22.6266L23.1885 22.6337L22.1726 23.1562L21.0283 22.5678L23.3067 21.3951L25.851 20.0856L26.9954 20.674ZM20.7623 22.979V27.9425L23.3067 29.252C23.3112 29.254 23.3158 29.2571 23.3203 29.2591L25.5839 30.4237V25.4602L24.1248 24.7098V26.5368L24.1237 26.5357C24.1237 26.6006 24.0942 26.6654 24.0351 26.713C23.9248 26.8011 23.7567 26.793 23.6578 26.6958L22.9396 25.9848L22.2771 26.2208C22.2453 26.2329 22.2101 26.24 22.1726 26.24C22.0248 26.24 21.9066 26.1337 21.9066 26.003V23.5684L20.7623 22.979ZM31.4736 22.582C31.477 22.5365 31.4657 22.4899 31.4384 22.4484C31.4134 22.4109 31.3793 22.3815 31.3395 22.3613L29.3532 21.3394L29.3407 21.3333L28.6623 20.9839C28.6577 20.9809 28.652 20.9789 28.6475 20.9768L27.6759 20.4765C27.6668 20.4715 27.6577 20.4664 27.6475 20.4624L25.9827 19.6056C25.8964 19.562 25.7941 19.5651 25.7145 19.6076L23.0395 20.9839H23.0384L20.36 22.3623C20.2748 22.4058 20.2271 22.4858 20.2271 22.5678V22.5668V28.0792C20.2271 28.1734 20.2884 28.2544 20.3771 28.2929L23.0384 29.6621C23.0429 29.6641 23.0486 29.6671 23.0532 29.6692L25.6952 31.0283C25.7384 31.0556 25.7929 31.0718 25.8498 31.0718C25.9054 31.0718 25.9566 31.0566 25.9986 31.0313L27.9918 30.0054C27.9964 30.0034 28.0009 30.0003 28.0055 29.9983L31.3044 28.301C31.3896 28.2574 31.4373 28.1774 31.4385 28.0964L31.4736 22.582ZM19.2054 18.4248L19.2361 13.4452L14.4157 15.9254V20.8889L16.0237 20.0615C16.0282 20.0595 16.0339 20.0564 16.0384 20.0544L19.2054 18.4248ZM18.9724 13.032L14.1498 15.5131L12.6895 14.7617L16.2474 12.9307L16.4633 12.8193L17.5121 12.2795L18.9724 13.032ZM16.9781 12.0061L15.9804 12.5195L12.0383 14.548C11.9496 14.5865 11.8883 14.6685 11.8883 14.7617V16.3801L11.5121 16.0074H11.511C11.4383 15.9355 11.3212 15.9081 11.2144 15.9456L10.736 16.1157V14.0315L11.7497 13.51C11.7553 13.508 11.7599 13.5049 11.7656 13.5029L15.8269 11.4136L16.6804 11.8521C16.6849 11.8542 16.6894 11.8572 16.694 11.8592L16.9781 12.0061ZM15.2929 11.1392L11.4986 13.0917L11.4861 13.0988L10.4701 13.6213L9.32582 13.033L11.6042 11.8602L14.1485 10.5508L15.2929 11.1392ZM9.05986 13.4441V18.4076L11.6042 19.7171C11.6087 19.7191 11.6133 19.7222 11.6178 19.7242L13.8814 20.8888V15.9253L12.4224 15.1749V17.0019C12.4224 17.0667 12.3928 17.1315 12.3337 17.1791C12.2235 17.2672 12.0553 17.2591 11.9564 17.1619L11.2382 16.4509L10.5758 16.6869C10.5439 16.6991 10.5087 16.7062 10.4712 16.7062C10.3246 16.7062 10.2053 16.5998 10.2053 16.4692V14.0346L9.05986 13.4441ZM19.7711 13.0471C19.7745 13.0016 19.7632 12.955 19.7359 12.9135C19.7109 12.876 19.6768 12.8466 19.637 12.8264L17.6507 11.8045L17.6382 11.7985L16.9598 11.449C16.9552 11.447 16.9496 11.444 16.945 11.442L15.9734 10.9417C15.9643 10.9366 15.9553 10.9315 15.945 10.9275L14.2802 10.0707C14.1939 10.0272 14.0916 10.0302 14.0121 10.0727L11.3371 11.449H11.3359L8.65753 12.8274C8.5723 12.8709 8.52457 12.9509 8.52457 13.033H8.52344V18.5453C8.52344 18.6395 8.5848 18.7205 8.67344 18.759L11.3348 20.1282C11.3393 20.1302 11.345 20.1333 11.3496 20.1353L13.9916 21.4944C14.0348 21.5217 14.0882 21.5379 14.1461 21.5379C14.2018 21.5379 14.253 21.5227 14.295 21.4974L16.2882 20.4715C16.2927 20.4695 16.2973 20.4665 16.3018 20.4645L19.6007 18.7671C19.686 18.7236 19.7337 18.6436 19.7348 18.5625L19.7711 13.0471ZM19.145 11.3711C19.0257 11.4389 18.9871 11.5797 19.0586 11.6901C19.1325 11.8035 19.2961 11.842 19.4234 11.7772C20.4609 11.2415 21.3961 11.0166 22.2302 11.0258C23.0939 11.0349 23.8541 11.2972 24.5075 11.7235C25.1723 12.157 25.7291 12.7626 26.1745 13.4472C27.0064 14.7253 27.4461 16.2736 27.4768 17.5225L26.6518 17.5903C26.6018 17.5944 26.5518 17.6116 26.5098 17.641C26.395 17.723 26.3768 17.8719 26.4677 17.9742L28.3473 20.0705C28.3666 20.0969 28.3927 20.1191 28.4246 20.1374C28.5484 20.2083 28.7132 20.1758 28.7939 20.0655L30.4598 17.7453C30.4893 17.7048 30.5052 17.6552 30.5018 17.6025C30.4939 17.4719 30.3666 17.3716 30.22 17.3787L29.4155 17.4233C29.4189 15.7097 28.7723 13.741 27.5882 12.2715C27.0791 11.6386 26.4677 11.0968 25.7644 10.7048C25.053 10.3078 24.2496 10.0647 23.3632 10.0354C22.1075 9.99692 20.6927 10.3837 19.145 11.3711ZM23.3428 10.5123C24.1315 10.5386 24.8462 10.7553 25.4803 11.1088C26.1212 11.4663 26.6826 11.9656 27.1542 12.5509C28.3303 14.0103 28.9451 15.9941 28.8747 17.6703C28.869 17.8009 28.9849 17.9113 29.1315 17.9164H29.1565L29.7258 17.885L28.5428 19.5317L27.1906 18.0227L27.7667 17.9751C27.9065 17.964 28.011 17.8586 28.0088 17.7351C28.0258 16.379 27.561 14.6331 26.6349 13.2092C26.1542 12.4709 25.5497 11.8157 24.8212 11.3407C24.1428 10.8982 23.3588 10.6116 22.4735 10.5599C22.7735 10.5184 23.0633 10.5032 23.3428 10.5123ZM16.6566 30.5989C16.9361 30.608 17.2259 30.5928 17.5248 30.5523C16.6384 30.5007 15.8554 30.2141 15.177 29.7715C14.4486 29.2966 13.8441 28.6413 13.3634 27.903C12.4373 26.4791 11.9713 24.7331 11.9895 23.3772C11.9872 23.2536 12.0918 23.1483 12.2316 23.1371L12.8088 23.0895L11.4566 21.5806L10.2736 23.2273L10.8429 23.1959C10.8509 23.1959 10.86 23.1949 10.8679 23.1959C11.0145 23.201 11.1304 23.3103 11.1248 23.442C11.0554 25.118 11.6691 27.1019 12.8452 28.5613C13.3168 29.1467 13.8782 29.646 14.5191 30.0034C15.1532 30.3559 15.8691 30.5726 16.6566 30.5989Z"/>
</mask>
<path fill-rule="evenodd" clip-rule="evenodd" d="M20.8544 29.7401C19.3078 30.7275 17.8917 31.1144 16.6385 31.0738C15.7521 31.0445 14.9487 30.8014 14.2374 30.4044C13.5339 30.0115 12.9226 29.4697 12.4124 28.8377C11.2283 27.3682 10.5828 25.3994 10.5863 23.686L9.78171 23.7305C9.63399 23.7376 9.50785 23.6384 9.4999 23.5067C9.49649 23.4541 9.5124 23.4055 9.54194 23.3639L11.2079 21.0438C11.2874 20.9334 11.4522 20.901 11.5772 20.9719C11.609 20.9901 11.634 21.0134 11.6544 21.0387L13.534 23.1351C13.626 23.2373 13.6067 23.3862 13.4919 23.4683C13.4499 23.4986 13.3999 23.5148 13.3499 23.5189L12.5249 23.5867C12.5556 24.8344 12.9954 26.3829 13.8272 27.661C14.2726 28.3456 14.8294 28.9502 15.4942 29.3847C16.1476 29.811 16.909 30.0733 17.7715 30.0824C18.6045 30.0915 19.5408 29.8667 20.5783 29.331C20.7056 29.2652 20.8692 29.3037 20.9431 29.4171C21.0135 29.5305 20.9737 29.6722 20.8544 29.7401ZM30.9079 27.9597L30.9386 22.9801L26.1182 25.4603V30.4238L27.7261 29.5964C27.7307 29.5944 27.7364 29.5913 27.7409 29.5893L30.9079 27.9597ZM30.6738 22.5668L25.8511 25.048L24.3909 24.2966L27.9487 22.4656L28.1646 22.3542L29.2135 21.8144L30.6738 22.5668ZM28.6795 21.5409L27.6817 22.0544L23.7396 24.0829C23.651 24.1214 23.5896 24.2034 23.5896 24.2966V25.9149L23.2135 25.5423C23.1407 25.4704 23.0237 25.443 22.9169 25.4805L22.4385 25.6506V23.5664L23.4521 23.0449C23.4578 23.0428 23.4624 23.0398 23.468 23.0378L27.5294 20.9485L28.3828 21.387C28.3874 21.3901 28.3919 21.3921 28.3965 21.3941L28.6795 21.5409ZM26.9954 20.674L23.201 22.6266L23.1885 22.6337L22.1726 23.1562L21.0283 22.5678L23.3067 21.3951L25.851 20.0856L26.9954 20.674ZM20.7623 22.979V27.9425L23.3067 29.252C23.3112 29.254 23.3158 29.2571 23.3203 29.2591L25.5839 30.4237V25.4602L24.1248 24.7098V26.5368L24.1237 26.5357C24.1237 26.6006 24.0942 26.6654 24.0351 26.713C23.9248 26.8011 23.7567 26.793 23.6578 26.6958L22.9396 25.9848L22.2771 26.2208C22.2453 26.2329 22.2101 26.24 22.1726 26.24C22.0248 26.24 21.9066 26.1337 21.9066 26.003V23.5684L20.7623 22.979ZM31.4736 22.582C31.477 22.5365 31.4657 22.4899 31.4384 22.4484C31.4134 22.4109 31.3793 22.3815 31.3395 22.3613L29.3532 21.3394L29.3407 21.3333L28.6623 20.9839C28.6577 20.9809 28.652 20.9789 28.6475 20.9768L27.6759 20.4765C27.6668 20.4715 27.6577 20.4664 27.6475 20.4624L25.9827 19.6056C25.8964 19.562 25.7941 19.5651 25.7145 19.6076L23.0395 20.9839H23.0384L20.36 22.3623C20.2748 22.4058 20.2271 22.4858 20.2271 22.5678V22.5668V28.0792C20.2271 28.1734 20.2884 28.2544 20.3771 28.2929L23.0384 29.6621C23.0429 29.6641 23.0486 29.6671 23.0532 29.6692L25.6952 31.0283C25.7384 31.0556 25.7929 31.0718 25.8498 31.0718C25.9054 31.0718 25.9566 31.0566 25.9986 31.0313L27.9918 30.0054C27.9964 30.0034 28.0009 30.0003 28.0055 29.9983L31.3044 28.301C31.3896 28.2574 31.4373 28.1774 31.4385 28.0964L31.4736 22.582ZM19.2054 18.4248L19.2361 13.4452L14.4157 15.9254V20.8889L16.0237 20.0615C16.0282 20.0595 16.0339 20.0564 16.0384 20.0544L19.2054 18.4248ZM18.9724 13.032L14.1498 15.5131L12.6895 14.7617L16.2474 12.9307L16.4633 12.8193L17.5121 12.2795L18.9724 13.032ZM16.9781 12.0061L15.9804 12.5195L12.0383 14.548C11.9496 14.5865 11.8883 14.6685 11.8883 14.7617V16.3801L11.5121 16.0074H11.511C11.4383 15.9355 11.3212 15.9081 11.2144 15.9456L10.736 16.1157V14.0315L11.7497 13.51C11.7553 13.508 11.7599 13.5049 11.7656 13.5029L15.8269 11.4136L16.6804 11.8521C16.6849 11.8542 16.6894 11.8572 16.694 11.8592L16.9781 12.0061ZM15.2929 11.1392L11.4986 13.0917L11.4861 13.0988L10.4701 13.6213L9.32582 13.033L11.6042 11.8602L14.1485 10.5508L15.2929 11.1392ZM9.05986 13.4441V18.4076L11.6042 19.7171C11.6087 19.7191 11.6133 19.7222 11.6178 19.7242L13.8814 20.8888V15.9253L12.4224 15.1749V17.0019C12.4224 17.0667 12.3928 17.1315 12.3337 17.1791C12.2235 17.2672 12.0553 17.2591 11.9564 17.1619L11.2382 16.4509L10.5758 16.6869C10.5439 16.6991 10.5087 16.7062 10.4712 16.7062C10.3246 16.7062 10.2053 16.5998 10.2053 16.4692V14.0346L9.05986 13.4441ZM19.7711 13.0471C19.7745 13.0016 19.7632 12.955 19.7359 12.9135C19.7109 12.876 19.6768 12.8466 19.637 12.8264L17.6507 11.8045L17.6382 11.7985L16.9598 11.449C16.9552 11.447 16.9496 11.444 16.945 11.442L15.9734 10.9417C15.9643 10.9366 15.9553 10.9315 15.945 10.9275L14.2802 10.0707C14.1939 10.0272 14.0916 10.0302 14.0121 10.0727L11.3371 11.449H11.3359L8.65753 12.8274C8.5723 12.8709 8.52457 12.9509 8.52457 13.033H8.52344V18.5453C8.52344 18.6395 8.5848 18.7205 8.67344 18.759L11.3348 20.1282C11.3393 20.1302 11.345 20.1333 11.3496 20.1353L13.9916 21.4944C14.0348 21.5217 14.0882 21.5379 14.1461 21.5379C14.2018 21.5379 14.253 21.5227 14.295 21.4974L16.2882 20.4715C16.2927 20.4695 16.2973 20.4665 16.3018 20.4645L19.6007 18.7671C19.686 18.7236 19.7337 18.6436 19.7348 18.5625L19.7711 13.0471ZM19.145 11.3711C19.0257 11.4389 18.9871 11.5797 19.0586 11.6901C19.1325 11.8035 19.2961 11.842 19.4234 11.7772C20.4609 11.2415 21.3961 11.0166 22.2302 11.0258C23.0939 11.0349 23.8541 11.2972 24.5075 11.7235C25.1723 12.157 25.7291 12.7626 26.1745 13.4472C27.0064 14.7253 27.4461 16.2736 27.4768 17.5225L26.6518 17.5903C26.6018 17.5944 26.5518 17.6116 26.5098 17.641C26.395 17.723 26.3768 17.8719 26.4677 17.9742L28.3473 20.0705C28.3666 20.0969 28.3927 20.1191 28.4246 20.1374C28.5484 20.2083 28.7132 20.1758 28.7939 20.0655L30.4598 17.7453C30.4893 17.7048 30.5052 17.6552 30.5018 17.6025C30.4939 17.4719 30.3666 17.3716 30.22 17.3787L29.4155 17.4233C29.4189 15.7097 28.7723 13.741 27.5882 12.2715C27.0791 11.6386 26.4677 11.0968 25.7644 10.7048C25.053 10.3078 24.2496 10.0647 23.3632 10.0354C22.1075 9.99692 20.6927 10.3837 19.145 11.3711ZM23.3428 10.5123C24.1315 10.5386 24.8462 10.7553 25.4803 11.1088C26.1212 11.4663 26.6826 11.9656 27.1542 12.5509C28.3303 14.0103 28.9451 15.9941 28.8747 17.6703C28.869 17.8009 28.9849 17.9113 29.1315 17.9164H29.1565L29.7258 17.885L28.5428 19.5317L27.1906 18.0227L27.7667 17.9751C27.9065 17.964 28.011 17.8586 28.0088 17.7351C28.0258 16.379 27.561 14.6331 26.6349 13.2092C26.1542 12.4709 25.5497 11.8157 24.8212 11.3407C24.1428 10.8982 23.3588 10.6116 22.4735 10.5599C22.7735 10.5184 23.0633 10.5032 23.3428 10.5123ZM16.6566 30.5989C16.9361 30.608 17.2259 30.5928 17.5248 30.5523C16.6384 30.5007 15.8554 30.2141 15.177 29.7715C14.4486 29.2966 13.8441 28.6413 13.3634 27.903C12.4373 26.4791 11.9713 24.7331 11.9895 23.3772C11.9872 23.2536 12.0918 23.1483 12.2316 23.1371L12.8088 23.0895L11.4566 21.5806L10.2736 23.2273L10.8429 23.1959C10.8509 23.1959 10.86 23.1949 10.8679 23.1959C11.0145 23.201 11.1304 23.3103 11.1248 23.442C11.0554 25.118 11.6691 27.1019 12.8452 28.5613C13.3168 29.1467 13.8782 29.646 14.5191 30.0034C15.1532 30.3559 15.8691 30.5726 16.6566 30.5989Z" fill="url(#paint0_linear_4_165)"/>
<path fill-rule="evenodd" clip-rule="evenodd" d="M20.8544 29.7401C19.3078 30.7275 17.8917 31.1144 16.6385 31.0738C15.7521 31.0445 14.9487 30.8014 14.2374 30.4044C13.5339 30.0115 12.9226 29.4697 12.4124 28.8377C11.2283 27.3682 10.5828 25.3994 10.5863 23.686L9.78171 23.7305C9.63399 23.7376 9.50785 23.6384 9.4999 23.5067C9.49649 23.4541 9.5124 23.4055 9.54194 23.3639L11.2079 21.0438C11.2874 20.9334 11.4522 20.901 11.5772 20.9719C11.609 20.9901 11.634 21.0134 11.6544 21.0387L13.534 23.1351C13.626 23.2373 13.6067 23.3862 13.4919 23.4683C13.4499 23.4986 13.3999 23.5148 13.3499 23.5189L12.5249 23.5867C12.5556 24.8344 12.9954 26.3829 13.8272 27.661C14.2726 28.3456 14.8294 28.9502 15.4942 29.3847C16.1476 29.811 16.909 30.0733 17.7715 30.0824C18.6045 30.0915 19.5408 29.8667 20.5783 29.331C20.7056 29.2652 20.8692 29.3037 20.9431 29.4171C21.0135 29.5305 20.9737 29.6722 20.8544 29.7401ZM30.9079 27.9597L30.9386 22.9801L26.1182 25.4603V30.4238L27.7261 29.5964C27.7307 29.5944 27.7364 29.5913 27.7409 29.5893L30.9079 27.9597ZM30.6738 22.5668L25.8511 25.048L24.3909 24.2966L27.9487 22.4656L28.1646 22.3542L29.2135 21.8144L30.6738 22.5668ZM28.6795 21.5409L27.6817 22.0544L23.7396 24.0829C23.651 24.1214 23.5896 24.2034 23.5896 24.2966V25.9149L23.2135 25.5423C23.1407 25.4704 23.0237 25.443 22.9169 25.4805L22.4385 25.6506V23.5664L23.4521 23.0449C23.4578 23.0428 23.4624 23.0398 23.468 23.0378L27.5294 20.9485L28.3828 21.387C28.3874 21.3901 28.3919 21.3921 28.3965 21.3941L28.6795 21.5409ZM26.9954 20.674L23.201 22.6266L23.1885 22.6337L22.1726 23.1562L21.0283 22.5678L23.3067 21.3951L25.851 20.0856L26.9954 20.674ZM20.7623 22.979V27.9425L23.3067 29.252C23.3112 29.254 23.3158 29.2571 23.3203 29.2591L25.5839 30.4237V25.4602L24.1248 24.7098V26.5368L24.1237 26.5357C24.1237 26.6006 24.0942 26.6654 24.0351 26.713C23.9248 26.8011 23.7567 26.793 23.6578 26.6958L22.9396 25.9848L22.2771 26.2208C22.2453 26.2329 22.2101 26.24 22.1726 26.24C22.0248 26.24 21.9066 26.1337 21.9066 26.003V23.5684L20.7623 22.979ZM31.4736 22.582C31.477 22.5365 31.4657 22.4899 31.4384 22.4484C31.4134 22.4109 31.3793 22.3815 31.3395 22.3613L29.3532 21.3394L29.3407 21.3333L28.6623 20.9839C28.6577 20.9809 28.652 20.9789 28.6475 20.9768L27.6759 20.4765C27.6668 20.4715 27.6577 20.4664 27.6475 20.4624L25.9827 19.6056C25.8964 19.562 25.7941 19.5651 25.7145 19.6076L23.0395 20.9839H23.0384L20.36 22.3623C20.2748 22.4058 20.2271 22.4858 20.2271 22.5678V22.5668V28.0792C20.2271 28.1734 20.2884 28.2544 20.3771 28.2929L23.0384 29.6621C23.0429 29.6641 23.0486 29.6671 23.0532 29.6692L25.6952 31.0283C25.7384 31.0556 25.7929 31.0718 25.8498 31.0718C25.9054 31.0718 25.9566 31.0566 25.9986 31.0313L27.9918 30.0054C27.9964 30.0034 28.0009 30.0003 28.0055 29.9983L31.3044 28.301C31.3896 28.2574 31.4373 28.1774 31.4385 28.0964L31.4736 22.582ZM19.2054 18.4248L19.2361 13.4452L14.4157 15.9254V20.8889L16.0237 20.0615C16.0282 20.0595 16.0339 20.0564 16.0384 20.0544L19.2054 18.4248ZM18.9724 13.032L14.1498 15.5131L12.6895 14.7617L16.2474 12.9307L16.4633 12.8193L17.5121 12.2795L18.9724 13.032ZM16.9781 12.0061L15.9804 12.5195L12.0383 14.548C11.9496 14.5865 11.8883 14.6685 11.8883 14.7617V16.3801L11.5121 16.0074H11.511C11.4383 15.9355 11.3212 15.9081 11.2144 15.9456L10.736 16.1157V14.0315L11.7497 13.51C11.7553 13.508 11.7599 13.5049 11.7656 13.5029L15.8269 11.4136L16.6804 11.8521C16.6849 11.8542 16.6894 11.8572 16.694 11.8592L16.9781 12.0061ZM15.2929 11.1392L11.4986 13.0917L11.4861 13.0988L10.4701 13.6213L9.32582 13.033L11.6042 11.8602L14.1485 10.5508L15.2929 11.1392ZM9.05986 13.4441V18.4076L11.6042 19.7171C11.6087 19.7191 11.6133 19.7222 11.6178 19.7242L13.8814 20.8888V15.9253L12.4224 15.1749V17.0019C12.4224 17.0667 12.3928 17.1315 12.3337 17.1791C12.2235 17.2672 12.0553 17.2591 11.9564 17.1619L11.2382 16.4509L10.5758 16.6869C10.5439 16.6991 10.5087 16.7062 10.4712 16.7062C10.3246 16.7062 10.2053 16.5998 10.2053 16.4692V14.0346L9.05986 13.4441ZM19.7711 13.0471C19.7745 13.0016 19.7632 12.955 19.7359 12.9135C19.7109 12.876 19.6768 12.8466 19.637 12.8264L17.6507 11.8045L17.6382 11.7985L16.9598 11.449C16.9552 11.447 16.9496 11.444 16.945 11.442L15.9734 10.9417C15.9643 10.9366 15.9553 10.9315 15.945 10.9275L14.2802 10.0707C14.1939 10.0272 14.0916 10.0302 14.0121 10.0727L11.3371 11.449H11.3359L8.65753 12.8274C8.5723 12.8709 8.52457 12.9509 8.52457 13.033H8.52344V18.5453C8.52344 18.6395 8.5848 18.7205 8.67344 18.759L11.3348 20.1282C11.3393 20.1302 11.345 20.1333 11.3496 20.1353L13.9916 21.4944C14.0348 21.5217 14.0882 21.5379 14.1461 21.5379C14.2018 21.5379 14.253 21.5227 14.295 21.4974L16.2882 20.4715C16.2927 20.4695 16.2973 20.4665 16.3018 20.4645L19.6007 18.7671C19.686 18.7236 19.7337 18.6436 19.7348 18.5625L19.7711 13.0471ZM19.145 11.3711C19.0257 11.4389 18.9871 11.5797 19.0586 11.6901C19.1325 11.8035 19.2961 11.842 19.4234 11.7772C20.4609 11.2415 21.3961 11.0166 22.2302 11.0258C23.0939 11.0349 23.8541 11.2972 24.5075 11.7235C25.1723 12.157 25.7291 12.7626 26.1745 13.4472C27.0064 14.7253 27.4461 16.2736 27.4768 17.5225L26.6518 17.5903C26.6018 17.5944 26.5518 17.6116 26.5098 17.641C26.395 17.723 26.3768 17.8719 26.4677 17.9742L28.3473 20.0705C28.3666 20.0969 28.3927 20.1191 28.4246 20.1374C28.5484 20.2083 28.7132 20.1758 28.7939 20.0655L30.4598 17.7453C30.4893 17.7048 30.5052 17.6552 30.5018 17.6025C30.4939 17.4719 30.3666 17.3716 30.22 17.3787L29.4155 17.4233C29.4189 15.7097 28.7723 13.741 27.5882 12.2715C27.0791 11.6386 26.4677 11.0968 25.7644 10.7048C25.053 10.3078 24.2496 10.0647 23.3632 10.0354C22.1075 9.99692 20.6927 10.3837 19.145 11.3711ZM23.3428 10.5123C24.1315 10.5386 24.8462 10.7553 25.4803 11.1088C26.1212 11.4663 26.6826 11.9656 27.1542 12.5509C28.3303 14.0103 28.9451 15.9941 28.8747 17.6703C28.869 17.8009 28.9849 17.9113 29.1315 17.9164H29.1565L29.7258 17.885L28.5428 19.5317L27.1906 18.0227L27.7667 17.9751C27.9065 17.964 28.011 17.8586 28.0088 17.7351C28.0258 16.379 27.561 14.6331 26.6349 13.2092C26.1542 12.4709 25.5497 11.8157 24.8212 11.3407C24.1428 10.8982 23.3588 10.6116 22.4735 10.5599C22.7735 10.5184 23.0633 10.5032 23.3428 10.5123ZM16.6566 30.5989C16.9361 30.608 17.2259 30.5928 17.5248 30.5523C16.6384 30.5007 15.8554 30.2141 15.177 29.7715C14.4486 29.2966 13.8441 28.6413 13.3634 27.903C12.4373 26.4791 11.9713 24.7331 11.9895 23.3772C11.9872 23.2536 12.0918 23.1483 12.2316 23.1371L12.8088 23.0895L11.4566 21.5806L10.2736 23.2273L10.8429 23.1959C10.8509 23.1959 10.86 23.1949 10.8679 23.1959C11.0145 23.201 11.1304 23.3103 11.1248 23.442C11.0554 25.118 11.6691 27.1019 12.8452 28.5613C13.3168 29.1467 13.8782 29.646 14.5191 30.0034C15.1532 30.3559 15.8691 30.5726 16.6566 30.5989Z" stroke="url(#paint1_linear_4_165)" stroke-width="0.2" mask="url(#path-2-outside-1_4_165)"/>
<defs>
<linearGradient id="paint0_linear_4_165" x1="19.9988" y1="10.0328" x2="19.9988" y2="31.0767" gradientUnits="userSpaceOnUse">
<stop stop-color="#ADB815"/>
<stop offset="1" stop-color="#18392A"/>
</linearGradient>
<linearGradient id="paint1_linear_4_165" x1="19.9988" y1="10.0328" x2="19.9988" y2="31.0767" gradientUnits="userSpaceOnUse">
<stop stop-color="#ADB815"/>
<stop offset="1" stop-color="#18392A"/>
</linearGradient>
</defs>
</svg>
