<svg width="75" height="81" viewBox="0 0 75 81" fill="none" xmlns="http://www.w3.org/2000/svg">
<path d="M58.3496 18.2473C58.3496 21.0933 56.2496 23.4371 53.6996 23.4371C51.1496 23.4371 49.0496 21.0933 49.0496 18.2473C49.0496 15.4014 51.1496 13.0576 53.6996 13.0576C56.2496 13.0576 58.3496 15.4014 58.3496 18.2473Z" fill="#125938"/>
<path d="M21.3008 64.9551C22.5758 64.9551 23.5508 66.0432 23.5508 67.4662C23.5508 68.8892 22.5758 69.9774 21.3008 69.9774C20.0258 69.9774 19.0508 68.8892 19.0508 67.4662C19.0508 66.0432 20.1008 64.9551 21.3008 64.9551ZM21.3008 68.5544C21.8258 68.5544 22.2758 68.0522 22.2758 67.4662C22.2758 66.8803 21.8258 66.3781 21.3008 66.3781C20.7758 66.3781 20.3258 66.8803 20.3258 67.4662C20.4008 68.0522 20.7758 68.5544 21.3008 68.5544Z" fill="#125938"/>
<path d="M34.2742 58.9287C36.8992 58.9287 39.0742 61.3562 39.0742 64.2859C39.0742 67.2155 36.8992 69.643 34.2742 69.643C31.6492 69.643 29.4742 67.2155 29.4742 64.2859C29.4742 61.2725 31.5742 58.9287 34.2742 58.9287ZM34.2742 66.5459C35.3992 66.5459 36.2992 65.5414 36.2992 64.2021C36.2992 62.9466 35.3992 61.9421 34.1992 61.9421C33.0742 61.9421 32.1742 62.9466 32.1742 64.2021C32.1742 65.5414 33.1492 66.5459 34.2742 66.5459Z" fill="#125938"/>
<path d="M8.40025 47.8795L34.5002 51.5625C34.6502 51.5625 39.5252 41.6016 39.5252 41.6016C39.6003 41.5179 39.6752 41.5179 39.7502 41.5179L41.3252 41.2668C41.2502 40.5971 41.4753 39.9275 41.9253 39.509L51.9752 29.6317C51.6752 27.0369 53.4002 24.6931 55.7252 24.3583C57.8252 24.1072 59.8502 25.6139 60.3752 27.9576L64.2002 45.1172C64.2752 45.4521 64.3502 45.8706 64.3502 46.2891C64.3502 46.2891 64.3502 46.3728 64.3502 46.4565L67.6502 67.8851C67.8752 69.1407 67.2002 70.3963 66.0752 70.6474C64.9502 70.8985 63.8252 70.1451 63.6002 68.8896C63.6002 68.8059 63.6002 68.7221 63.5252 68.6384L60.8252 50.8092L60.6752 49.9721L60.4502 50.8092L56.1002 68.6384C55.8002 69.894 54.6752 70.5637 53.5502 70.2288L52.9502 70.0614C51.8252 69.7266 51.1502 68.471 51.4502 67.2992L56.2502 48.298C56.1002 48.0469 56.0252 47.7121 55.9502 47.3773L54.2252 39.6764L47.1753 47.5447C46.3503 48.4654 45.0752 48.4654 44.2502 47.5447C44.0252 47.2936 43.8752 47.0425 43.8003 46.7913L42.2252 47.2099L34.4253 57.8405L34.3503 57.9242L18.5252 65.4576C17.9253 65.7088 17.3253 65.7088 17.1753 65.4576L6.75025 48.884C6.22525 48.1306 7.05025 47.7121 8.40025 47.8795ZM41.5503 45.8706C41.6252 45.7869 41.7002 45.7869 41.7752 45.7869L43.6502 45.4521C43.7253 45.0335 43.9502 44.615 44.2502 44.2802L53.0252 34.4867L52.9502 34.0681L44.4002 42.5224C43.7253 43.192 42.6003 43.192 41.9253 42.5224L40.1252 43.0246L34.6502 54.3248L34.5002 55.2456L41.5503 45.8706Z" fill="#125938"/>
<path d="M14.5516 44.6154L15.0016 48.0473L21.9016 49.0518L22.5016 44.6154H18.7516V42.8576L20.3266 41.5183C20.5516 41.602 20.8516 41.602 21.0016 41.4346L22.4266 40.2627C22.5766 40.0953 22.7266 39.8442 22.7266 39.5931C22.7266 39.4256 22.6516 39.2582 22.5766 39.1745C22.3516 38.8397 21.9016 38.756 21.6016 39.0071L20.1766 40.179C19.8766 40.4301 19.8016 40.8486 19.9516 41.1835L18.6766 42.2716V39.3419C19.0516 39.2582 19.2766 38.9234 19.2766 38.5049V37.6678C19.2766 37.1656 18.9016 36.7471 18.4516 36.7471C18.0016 36.7471 17.6266 37.1656 17.6266 37.6678V38.5049C17.6266 38.9234 17.9266 39.2582 18.2266 39.3419V41.4346L17.4016 40.8486C17.4766 40.5138 17.3266 40.179 17.1016 40.0116L15.5266 39.0071C15.2266 38.8397 14.7766 38.9234 14.6266 39.3419C14.4766 39.6768 14.5516 40.179 14.9266 40.3464L16.5016 41.2672C16.5766 41.3509 16.7266 41.3509 16.8016 41.3509C16.9516 41.3509 17.1016 41.2672 17.1766 41.1835L18.3016 42.0205V44.6154H14.5516Z" fill="#125938"/>
<path d="M24.5258 46.3732L24.9008 49.4703L29.9258 50.1399L30.4508 46.2895H27.6758V44.9502L28.8758 43.9457C29.0258 44.0294 29.2508 44.0294 29.4008 43.862L30.4508 43.025C30.6008 42.9413 30.6758 42.7739 30.6758 42.5227C30.6758 42.439 30.6758 42.2716 30.6008 42.1879C30.4508 41.9368 30.0758 41.8531 29.8508 42.0205L28.8008 42.8576C28.5758 43.025 28.5008 43.3598 28.6508 43.6109L27.6758 44.3643V42.2716C27.9758 42.1879 28.1258 41.9368 28.1258 41.602V41.016C28.0508 40.5975 27.7508 40.3464 27.4508 40.4301C27.1508 40.4301 26.9258 40.6812 26.9258 41.016V41.602C26.9258 41.9368 27.1508 42.1879 27.3758 42.2716V43.7783L26.7758 43.3598C26.8508 43.1087 26.7758 42.8576 26.5508 42.6901L25.3508 41.9368C25.1258 41.7694 24.8258 41.9368 24.6758 42.1879C24.5258 42.439 24.6758 42.7739 24.9008 42.9413L26.1008 43.6946C26.1758 43.7783 26.2508 43.7783 26.3258 43.7783C26.4008 43.7783 26.5508 43.6946 26.6258 43.6946L27.2258 44.3643V46.2895L24.5258 46.3732Z" fill="#125938"/>
</svg>
