<svg width="20" height="20" viewBox="0 0 20 20" fill="none" xmlns="http://www.w3.org/2000/svg">
<g clip-path="url(#clip0_534_2070)">
<path d="M14.1391 4.12565L17.0807 7.08398C19.8557 9.84232 19.8557 14.3257 17.0807 17.084C14.3057 19.8423 9.83906 19.859 7.08073 17.084L2.08073 12.084C1.24739 11.2757 1.24739 9.95065 2.08073 9.13398C2.16406 9.03399 2.2724 8.94232 2.38906 8.86732L2.08073 8.54232C1.24739 7.73398 1.24739 6.40898 2.08073 5.59232C2.1974 5.45898 2.35573 5.34232 2.49739 5.25065C2.18073 4.48398 2.3224 3.56732 2.9474 2.94232C3.6724 2.21732 4.79739 2.14232 5.61406 2.70898C5.78363 2.4478 6.00923 2.22765 6.27448 2.06451C6.53974 1.90138 6.83798 1.79935 7.14758 1.76584C7.45717 1.73233 7.77035 1.76817 8.06436 1.87076C8.35838 1.97336 8.62586 2.14014 8.84739 2.35898L10.9391 4.45065C11.0141 4.33398 11.1057 4.22565 11.2057 4.12565C11.599 3.74483 12.125 3.5319 12.6724 3.5319C13.2198 3.5319 13.7458 3.74483 14.1391 4.12565ZM12.9641 5.30898C12.7974 5.14232 12.5391 5.14232 12.3724 5.30898C12.2057 5.47565 12.2057 5.73398 12.3724 5.90065L15.0224 8.55065C14.5542 9.0194 14.2913 9.65482 14.2913 10.3173C14.2913 10.9798 14.5542 11.6152 15.0224 12.084L13.8474 13.259C13.2743 12.6859 12.8807 11.9581 12.7149 11.1648C12.5491 10.3714 12.6184 9.54694 12.9141 8.79232L7.66406 3.54232C7.4974 3.37565 7.23906 3.37565 7.08073 3.54232C6.9224 3.70898 6.90573 3.96732 7.08073 4.13398L10.9057 7.96732L9.73073 9.14232L4.72239 4.13398C4.55573 3.96732 4.29739 3.96732 4.13073 4.13398C3.96406 4.30065 3.96406 4.55898 4.13073 4.72565L9.13906 9.73398L7.96406 10.909L3.83906 6.78399C3.6724 6.61732 3.41406 6.61732 3.24739 6.78399C3.08073 6.95065 3.08073 7.20898 3.24739 7.37565L7.96406 12.084L6.78906 13.2673L3.83906 10.3173C3.6724 10.1507 3.41406 10.1507 3.24739 10.3173C3.08073 10.484 3.08073 10.7423 3.24739 10.909L8.24739 15.9173C10.3641 18.034 13.7891 18.034 15.9057 15.9173C18.0224 13.8007 18.0224 10.3757 15.9057 8.25898L12.9641 5.30898ZM0.830729 14.1673C0.830729 16.9257 3.0724 19.1673 5.83073 19.1673V17.9173C3.7474 17.9173 2.08073 16.2507 2.08073 14.1673H0.830729ZM19.1641 5.83398C19.1641 3.07565 16.9224 0.833984 14.1641 0.833984V2.08398C16.2474 2.08398 17.9141 3.75065 17.9141 5.83398H19.1641Z" fill="url(#paint0_linear_534_2070)"/>
</g>
<defs>
<linearGradient id="paint0_linear_534_2070" x1="9.9974" y1="0.833984" x2="9.9974" y2="19.1673" gradientUnits="userSpaceOnUse">
<stop stop-color="#ADB815"/>
<stop offset="1" stop-color="#18392A"/>
</linearGradient>
<clipPath id="clip0_534_2070">
<rect width="20" height="20" fill="white" transform="matrix(-1 0 0 1 20 0)"/>
</clipPath>
</defs>
</svg>
