<svg width="26" height="27" viewBox="0 0 26 27" fill="none" xmlns="http://www.w3.org/2000/svg">
<path fill-rule="evenodd" clip-rule="evenodd" d="M21.4304 14.3048C21.4304 12.6678 23.43 12.6678 23.43 14.3048V22.7668C23.43 24.7394 22.1301 26.3564 20.5443 26.3564H5.45628C3.86597 26.3564 2.57062 24.7451 2.57062 22.7668V14.3048C2.57062 12.6678 4.57022 12.6678 4.57022 14.3048V22.7668C4.57022 23.3712 4.97037 23.869 5.45625 23.869H11.0011L11 16.7508C11 16.3682 11.2515 16.0539 11.5602 16.0539H14.439C14.7465 16.0539 14.9992 16.3668 14.9992 16.7508V23.869H20.544C21.0357 23.869 21.4301 23.3769 21.4301 22.7668L21.4304 14.3048ZM1.56227 12.1601L11.8415 3.54446C12.4829 3.00686 13.5165 3.00686 14.1578 3.54446L24.4371 12.1601C25.5278 13.0746 26.6437 11.0153 25.5541 10.1008L15.2748 1.48514C13.9543 0.378653 12.0451 0.378653 10.7245 1.48514L0.446425 10.1008C-0.644282 11.0138 0.47272 13.0746 1.56227 12.1601Z" fill="#002140"/>
</svg>
