<svg width="40" height="40" viewBox="0 0 40 40" fill="none" xmlns="http://www.w3.org/2000/svg">
<circle cx="20" cy="20" r="20" fill="#EAF6E4" fill-opacity="0.59"/>
<path d="M15.7513 27.7693H24.0993C26.0894 27.7693 27.7061 26.15 27.7061 24.1625L27.7053 15.7523C27.7053 13.7622 26.0859 12.1455 24.0985 12.1455H15.7513C13.7612 12.1455 12.1445 13.7648 12.1445 15.7523V24.1634C12.1445 26.1509 13.7638 27.7693 15.7513 27.7693ZM13.4536 15.7523C13.4536 14.4849 14.4832 13.4546 15.7513 13.4546H24.0993C25.3667 13.4546 26.397 14.4842 26.397 15.7523V24.1634C26.397 25.4307 25.3675 26.4611 24.0993 26.4611L15.7513 26.4602C14.4839 26.4602 13.4536 25.4307 13.4536 24.1625V15.7523Z" fill="url(#paint0_linear_534_3286)"/>
<path d="M19.9263 23.7833C22.0365 23.7833 23.753 22.0659 23.753 19.9566C23.753 17.8463 22.0365 16.1299 19.9263 16.1299C17.8161 16.1299 16.0996 17.8464 16.0996 19.9566C16.0996 22.0668 17.8161 23.7833 19.9263 23.7833ZM19.9263 17.439C21.3138 17.439 22.4439 18.5691 22.4439 19.9566C22.4439 21.3441 21.3138 22.4742 19.9263 22.4742C18.5388 22.4742 17.4087 21.3441 17.4087 19.9566C17.4087 18.5691 18.5388 17.439 19.9263 17.439Z" fill="url(#paint1_linear_534_3286)"/>
<path d="M24.4341 14.7729C25.7218 15.3065 24.9216 17.2369 23.6338 16.7042C22.3468 16.1707 23.1463 14.2394 24.4341 14.7729Z" fill="url(#paint2_linear_534_3286)"/>
<defs>
<linearGradient id="paint0_linear_534_3286" x1="19.9253" y1="12.1455" x2="19.9253" y2="27.7693" gradientUnits="userSpaceOnUse">
<stop stop-color="#ADB815"/>
<stop offset="1" stop-color="#18392A"/>
</linearGradient>
<linearGradient id="paint1_linear_534_3286" x1="19.9263" y1="16.1299" x2="19.9263" y2="23.7833" gradientUnits="userSpaceOnUse">
<stop stop-color="#ADB815"/>
<stop offset="1" stop-color="#18392A"/>
</linearGradient>
<linearGradient id="paint2_linear_534_3286" x1="24.0341" y1="14.6807" x2="24.0341" y2="16.7962" gradientUnits="userSpaceOnUse">
<stop stop-color="#ADB815"/>
<stop offset="1" stop-color="#18392A"/>
</linearGradient>
</defs>
</svg>
