<svg width="25" height="24" viewBox="0 0 25 24" fill="none" xmlns="http://www.w3.org/2000/svg">
<path d="M0 15.0033C0 5.00109 3.80195 0 11.4058 0V4.51629C9.46065 4.51629 8.09019 5.07763 7.29443 6.20033C6.54288 7.32302 6.16711 9.00706 6.16711 11.2524C7.53758 11.4566 8.62069 12.12 9.41644 13.2427C10.2564 14.3654 10.6764 15.7177 10.6764 17.2997C10.6764 19.1878 10.2122 20.6933 9.28382 21.816C8.35544 22.9387 7.09549 23.5 5.50398 23.5C3.77984 23.5 2.43148 22.7856 1.45889 21.3567C0.486295 19.8768 0 17.759 0 15.0033ZM25 4.51629C23.0548 4.51629 21.6844 5.07763 20.8886 6.20033C20.137 7.32302 19.7613 9.00706 19.7613 11.2524C21.1317 11.4566 22.2149 12.12 23.0106 13.2427C23.8506 14.3654 24.2706 15.7177 24.2706 17.2997C24.2706 19.1878 23.8064 20.6933 22.878 21.816C21.9938 22.9387 20.756 23.5 19.1645 23.5C17.4403 23.5 16.092 22.7856 15.1194 21.3567C14.1468 19.8768 13.6605 17.759 13.6605 15.0033C13.6605 5.00109 17.4403 0 25 0V4.51629Z" fill="#DCE8D6"/>
</svg>
