<svg width="46" height="47" viewBox="0 0 46 47" fill="none" xmlns="http://www.w3.org/2000/svg">
<circle cx="22.6756" cy="23.4881" r="22.6756" fill="#EAF6E4"/>
<path d="M20.3815 24.0385C19.9134 24.0385 19.5339 23.659 19.5339 23.1909C19.5339 22.7228 19.9134 22.3433 20.3815 22.3433V24.0385ZM31.1445 23.1909L31.675 22.5299C31.8755 22.6908 31.9921 22.9339 31.9921 23.1909C31.9921 23.4479 31.8755 23.6911 31.675 23.8519L31.1445 23.1909ZM27.3793 21.2557C27.0142 20.9627 26.9558 20.4292 27.2488 20.0642C27.5418 19.6991 28.0753 19.6407 28.4403 19.9337L27.3793 21.2557ZM28.4403 26.4481C28.0753 26.7411 27.5418 26.6827 27.2488 26.3177C26.9558 25.9526 27.0142 25.4191 27.3793 25.1261L28.4403 26.4481ZM25.5127 29.4742L26.3603 29.4742V29.4742H25.5127ZM24.6651 26.3871C24.6651 25.919 25.0446 25.5395 25.5127 25.5395C25.9808 25.5395 26.3603 25.919 26.3603 26.3871L24.6651 26.3871ZM26.3603 20.2675C26.3603 20.7356 25.9808 21.115 25.5127 21.115C25.0446 21.115 24.6651 20.7356 24.6651 20.2675H26.3603ZM20.3815 22.3433H31.1445V24.0385H20.3815V22.3433ZM30.6139 23.8519L27.3793 21.2557L28.4403 19.9337L31.675 22.5299L30.6139 23.8519ZM31.675 23.8519L28.4403 26.4481L27.3793 25.1261L30.6139 22.5299L31.675 23.8519ZM24.7769 29.3585C24.7194 29.3585 24.6651 29.406 24.6651 29.4742H26.3603C26.3603 30.3508 25.6471 31.0536 24.7769 31.0536V29.3585ZM15.7358 29.3585H24.7769V31.0536H15.7358V29.3585ZM15.8476 29.4742C15.8476 29.406 15.7933 29.3585 15.7358 29.3585V31.0536C14.8656 31.0536 14.1524 30.3508 14.1524 29.4742H15.8476ZM15.7358 17.4062C15.7933 17.4062 15.8476 17.3586 15.8476 17.2905H14.1524C14.1524 16.4139 14.8656 15.711 15.7358 15.711V17.4062ZM24.7769 17.4062H15.7358V15.711H24.7769V17.4062ZM24.6651 17.2905C24.6651 17.3586 24.7194 17.4062 24.7769 17.4062V15.711C25.6471 15.711 26.3603 16.4139 26.3603 17.2905H24.6651ZM15.8476 17.2905V29.4742H14.1524V17.2905H15.8476ZM24.6651 29.4742L24.6651 26.3871L26.3603 26.3871L26.3603 29.4742L24.6651 29.4742ZM24.6651 20.2675V17.2905H26.3603V20.2675H24.6651Z" fill="url(#paint0_linear_47_115)"/>
<defs>
<linearGradient id="paint0_linear_47_115" x1="23.0722" y1="30.2061" x2="23.0722" y2="16.5586" gradientUnits="userSpaceOnUse">
<stop stop-color="#ADB815"/>
<stop offset="1" stop-color="#18392A"/>
</linearGradient>
</defs>
</svg>
