<svg width="46" height="46" viewBox="0 0 46 46" fill="none" xmlns="http://www.w3.org/2000/svg">
<circle cx="22.6756" cy="22.6756" r="22.6756" fill="#EAF6E4"/>
<path d="M26.6616 17.9653C26.9168 20.597 25.1864 22.8974 22.7966 23.1035C20.4068 23.3096 18.2627 21.3432 18.0075 18.7116C17.7523 16.0799 19.4827 13.7795 21.8724 13.5734C24.2622 13.3673 26.4064 15.3337 26.6616 17.9653Z" fill="#EAF6E4"/>
<path d="M30 30.6483C30 27.9175 29.5714 25.1866 24.8571 25.1866H19.9286C16.7143 25.1866 15 26.3245 15 30.6483C15 31.151 15.3837 31.5586 15.8571 31.5586L29.1429 31.5586C29.6162 31.5586 30 31.151 30 30.6483Z" fill="#EAF6E4"/>
<path d="M26.6616 17.9653C26.9168 20.597 25.1864 22.8974 22.7966 23.1035C20.4068 23.3096 18.2627 21.3432 18.0075 18.7116C17.7523 16.0799 19.4827 13.7795 21.8724 13.5734C24.2622 13.3673 26.4064 15.3337 26.6616 17.9653Z" stroke="url(#paint0_linear_47_95)" stroke-width="2.26756" stroke-linecap="round"/>
<path d="M30 30.6483C30 27.9175 29.5714 25.1866 24.8571 25.1866H19.9286C16.7143 25.1866 15 26.3245 15 30.6483C15 31.151 15.3837 31.5586 15.8571 31.5586L29.1429 31.5586C29.6162 31.5586 30 31.151 30 30.6483Z" stroke="url(#paint1_linear_47_95)" stroke-width="2.26756" stroke-linecap="round"/>
<defs>
<linearGradient id="paint0_linear_47_95" x1="22.5" y1="13.5586" x2="22.5" y2="31.5586" gradientUnits="userSpaceOnUse">
<stop stop-color="#ADB815"/>
<stop offset="1" stop-color="#18392A"/>
</linearGradient>
<linearGradient id="paint1_linear_47_95" x1="22.5" y1="13.5586" x2="22.5" y2="31.5586" gradientUnits="userSpaceOnUse">
<stop stop-color="#ADB815"/>
<stop offset="1" stop-color="#18392A"/>
</linearGradient>
</defs>
</svg>
