<svg width="20" height="20" viewBox="0 0 20 20" fill="none" xmlns="http://www.w3.org/2000/svg">
<path d="M10.25 12.5263C9.50595 12.5263 8.87351 12.2705 8.35268 11.7588C7.83185 11.2471 7.57143 10.6257 7.57143 9.89474V4.63158C7.57143 3.90058 7.83185 3.27924 8.35268 2.76754C8.87351 2.25585 9.50595 2 10.25 2C10.994 2 11.6265 2.25585 12.1473 2.76754C12.6682 3.27924 12.9286 3.90058 12.9286 4.63158V9.89474C12.9286 10.6257 12.6682 11.2471 12.1473 11.7588C11.6265 12.2705 10.994 12.5263 10.25 12.5263ZM9.35714 18.6667V15.9693C7.80952 15.7646 6.52976 15.0848 5.51786 13.9298C4.50595 12.7749 4 11.4298 4 9.89474H5.78571C5.78571 11.1082 6.22113 12.1427 7.09196 12.9982C7.9628 13.8538 9.01548 14.2813 10.25 14.2807C11.4845 14.2801 12.5375 13.8523 13.4089 12.9974C14.2804 12.1424 14.7155 11.1082 14.7143 9.89474H16.5C16.5 11.4298 15.994 12.7749 14.9821 13.9298C13.9702 15.0848 12.6905 15.7646 11.1429 15.9693V18.6667H9.35714Z" fill="#18392A"/>
</svg>
