<svg width="24" height="24" viewBox="0 0 24 24" fill="none" xmlns="http://www.w3.org/2000/svg">
<g clip-path="url(#clip0_534_853)">
<path fill-rule="evenodd" clip-rule="evenodd" d="M23.932 22.6049H0.0683594V23.9312H23.932V22.6049ZM4.708 20.3954H1.61527V21.7217H4.708V20.3954ZM13.5471 20.3954H10.4533V21.7217H13.5471V20.3954ZM22.3851 20.3954H19.2924V21.7217H22.3851V20.3954ZM21.7224 11.5574V19.5112H19.955V11.5574H21.7224ZM12.8844 11.5574V19.5112H11.117V11.5574H12.8844ZM4.04644 11.5574V19.5112H2.27903V11.5574H4.04644ZM22.3852 9.34783H19.2924V10.6742H22.3852V9.34783ZM13.5472 9.34783H10.4534V10.6742H13.5472V9.34783ZM4.70808 9.34783H1.61535V10.6742H4.70808V9.34783ZM23.9321 7.1383H0.0684412V8.46359H23.9321V7.1383ZM1.29026 6.25406H22.71L12 0.133789L1.29026 6.25406Z" fill="#202020"/>
</g>
<defs>
<clipPath id="clip0_534_853">
<rect width="24" height="24" fill="white"/>
</clipPath>
</defs>
</svg>
