<svg width="55" height="55" viewBox="0 0 55 55" fill="none" xmlns="http://www.w3.org/2000/svg">
<circle cx="27.5" cy="27.5" r="27" fill="#EAF6E4" stroke="url(#paint0_linear_45_91)"/>
<path d="M21.4375 29.8125V15.75C21.4375 15.5014 21.5363 15.2629 21.7121 15.0871C21.8879 14.9113 22.1264 14.8125 22.375 14.8125H33.625C33.8736 14.8125 34.1121 14.9113 34.2879 15.0871C34.4637 15.2629 34.5625 15.5014 34.5625 15.75V34.5C34.5625 34.7486 34.4637 34.9871 34.2879 35.1629C34.1121 35.3387 33.8736 35.4375 33.625 35.4375H23.3125M28 17.625V18.5625M21.4375 17.625H19.4388C19.2129 17.625 18.9946 17.7066 18.8241 17.8547C18.6536 18.0029 18.5422 18.2076 18.5106 18.4313L16.7594 30.6844L16.75 30.8156V37.7475C16.7501 37.9019 16.7883 38.0539 16.8612 38.1899C16.9342 38.326 17.0396 38.442 17.1681 38.5275L19.3263 39.9675C19.4801 40.0701 19.6608 40.1249 19.8456 40.125H25.5456C25.7196 40.125 25.8901 40.0766 26.0381 39.9852C26.1861 39.8938 26.3058 39.763 26.3838 39.6075L27.9325 36.5119C27.9772 36.4218 28.0361 36.3395 28.1069 36.2681L28.9375 35.4375M34.5625 20.4375H35.7062C35.9154 20.4376 36.1185 20.5075 36.2832 20.6363C36.448 20.7651 36.565 20.9452 36.6156 21.1481L37.0844 23.0231C37.1188 23.1613 37.1214 23.3055 37.0918 23.4448C37.0622 23.5841 37.0013 23.7148 36.9136 23.8271C36.826 23.9393 36.7139 24.0301 36.5859 24.0925C36.4579 24.155 36.3174 24.1875 36.175 24.1875H35.5C35.2514 24.1875 35.0129 24.2863 34.8371 24.4621C34.6613 24.6379 34.5625 24.8764 34.5625 25.125V26.0625C34.5625 26.3111 34.6613 26.5496 34.8371 26.7254C35.0129 26.9012 35.2514 27 35.5 27H36.4375C36.6861 27 36.9246 27.0988 37.1004 27.2746C37.2762 27.4504 37.375 27.6889 37.375 27.9375V28.875C37.375 29.1236 37.2762 29.3621 37.1004 29.5379C36.9246 29.7137 36.6861 29.8125 36.4375 29.8125H34.5625M20.5 30.75L24.5237 26.7263C24.6108 26.6389 24.7143 26.5697 24.8282 26.5224C24.9421 26.4752 25.0642 26.4508 25.1875 26.4508C25.3108 26.4508 25.4329 26.4752 25.5468 26.5224C25.6607 26.5697 25.7642 26.6389 25.8513 26.7263L27.4262 28.3013C27.5854 28.4609 27.6818 28.6725 27.6976 28.8974C27.7134 29.1222 27.6477 29.3453 27.5125 29.5256L22.5625 36.1256C22.4408 36.2879 22.375 36.4853 22.375 36.6881V39.1875M24.25 28.875L25.1875 29.8125M29.875 21.375C29.875 20.8777 29.6775 20.4008 29.3258 20.0492C28.9742 19.6975 28.4973 19.5 28 19.5C27.5027 19.5 27.0258 19.6975 26.6742 20.0492C26.3225 20.4008 26.125 20.8777 26.125 21.375M24.25 22.3125H31.75" stroke="url(#paint1_linear_45_91)" stroke-width="1.5"/>
<defs>
<linearGradient id="paint0_linear_45_91" x1="27.5" y1="0" x2="27.5" y2="55" gradientUnits="userSpaceOnUse">
<stop stop-color="#ADB815"/>
<stop offset="1" stop-color="#18392A"/>
</linearGradient>
<linearGradient id="paint1_linear_45_91" x1="27.0625" y1="14.8125" x2="27.0625" y2="40.125" gradientUnits="userSpaceOnUse">
<stop stop-color="#ADB815"/>
<stop offset="1" stop-color="#18392A"/>
</linearGradient>
</defs>
</svg>
