<svg width="55" height="55" viewBox="0 0 55 55" fill="none" xmlns="http://www.w3.org/2000/svg">
<circle cx="27.5" cy="27.5" r="27.5" fill="#D9D9D9"/>
<circle cx="27.5" cy="27.5" r="27" fill="#EAF7E4" stroke="url(#paint0_linear_45_93)"/>
<path fill-rule="evenodd" clip-rule="evenodd" d="M18 17C17.7348 17 17.4804 17.1054 17.2929 17.2929C17.1054 17.4804 17 17.7348 17 18V32C17 33.354 17.897 34.498 19.129 34.872C19.3124 35.477 19.6822 36.0086 20.1857 36.3909C20.6892 36.7732 21.3006 36.9867 21.9326 37.0009C22.5647 37.0151 23.185 36.8293 23.7052 36.4699C24.2253 36.1106 24.6186 35.5962 24.829 35H31.171C31.3814 35.5962 31.7747 36.1106 32.2948 36.4699C32.815 36.8293 33.4353 37.0151 34.0674 37.0009C34.6994 36.9867 35.3108 36.7732 35.8143 36.3909C36.3178 36.0086 36.6876 35.477 36.871 34.872C37.4871 34.6851 38.0266 34.305 38.41 33.7878C38.7934 33.2706 39.0003 32.6438 39 32V28C39 27.3434 38.8707 26.6932 38.6194 26.0866C38.3681 25.48 37.9998 24.9288 37.5355 24.4645C37.0712 24.0002 36.52 23.6319 35.9134 23.3806C35.3068 23.1293 34.6566 23 34 23H30V18C30 17.7348 29.8946 17.4804 29.7071 17.2929C29.5196 17.1054 29.2652 17 29 17H18ZM31.171 33H30V25H34C34.7956 25 35.5587 25.3161 36.1213 25.8787C36.6839 26.4413 37 27.2044 37 28V32C36.9999 32.2652 36.8946 32.5195 36.707 32.707C36.4513 32.1714 36.0426 31.7237 35.5325 31.4205C35.0223 31.1173 34.4337 30.9722 33.8411 31.0036C33.2485 31.0349 32.6785 31.2414 32.2032 31.5967C31.7279 31.9521 31.3687 32.4404 31.171 33ZM21.293 33.293C21.3852 33.1975 21.4956 33.1213 21.6176 33.0689C21.7396 33.0165 21.8708 32.9889 22.0036 32.9877C22.1364 32.9866 22.2681 33.0119 22.391 33.0622C22.5139 33.1125 22.6255 33.1867 22.7194 33.2806C22.8133 33.3745 22.8875 33.4862 22.9378 33.609C22.9881 33.7319 23.0134 33.8636 23.0123 33.9964C23.0111 34.1292 22.9835 34.2604 22.9311 34.3824C22.8787 34.5044 22.8025 34.6148 22.707 34.707C22.5184 34.8892 22.2658 34.99 22.0036 34.9877C21.7414 34.9854 21.4906 34.8802 21.3052 34.6948C21.1198 34.5094 21.0146 34.2586 21.0123 33.9964C21.01 33.7342 21.1108 33.4816 21.293 33.293ZM33 34C33 33.7348 33.1054 33.4804 33.2929 33.2929C33.4804 33.1054 33.7348 33 34 33C34.2652 33 34.5196 33.1054 34.7071 33.2929C34.8946 33.4804 35 33.7348 35 34C35 34.2652 34.8946 34.5196 34.7071 34.7071C34.5196 34.8946 34.2652 35 34 35C33.7348 35 33.4804 34.8946 33.2929 34.7071C33.1054 34.5196 33 34.2652 33 34Z" fill="url(#paint1_linear_45_93)"/>
<defs>
<linearGradient id="paint0_linear_45_93" x1="27.5" y1="0" x2="27.5" y2="55" gradientUnits="userSpaceOnUse">
<stop stop-color="#ADB815"/>
<stop offset="1" stop-color="#18392A"/>
</linearGradient>
<linearGradient id="paint1_linear_45_93" x1="28" y1="17" x2="28" y2="37.0017" gradientUnits="userSpaceOnUse">
<stop stop-color="#ADB815"/>
<stop offset="1" stop-color="#18392A"/>
</linearGradient>
</defs>
</svg>
