<svg width="25" height="25" viewBox="0 0 25 25" fill="none" xmlns="http://www.w3.org/2000/svg">
<path d="M12.5308 6.38511L7.73503 9.22035L12.5308 12.0556L17.3266 9.22035L12.5308 6.38511ZM5.24609 16.2981V9.71703C5.24609 9.4135 5.31705 9.13757 5.45897 8.88922C5.60089 8.64088 5.79973 8.44083 6.05551 8.28906L11.7214 4.95714C11.8563 4.88816 11.988 4.83297 12.1164 4.79158C12.2448 4.75019 12.3829 4.72949 12.5308 4.72949C12.6786 4.72949 12.8203 4.75019 12.9557 4.79158C13.0912 4.83297 13.2193 4.88816 13.3402 4.95714L19.0061 8.28906C19.2624 8.44083 19.4615 8.64088 19.6034 8.88922C19.7454 9.13757 19.816 9.4135 19.8155 9.71703V12.1798C19.8155 12.4143 19.7378 12.611 19.5824 12.77C19.427 12.9289 19.2349 13.0081 19.0061 13.0076C18.7773 13.007 18.5852 12.9275 18.4298 12.7692C18.2744 12.6108 18.1967 12.4143 18.1967 12.1798V10.6069L13.32 13.4836C13.0637 13.6353 12.7939 13.7112 12.5106 13.7112C12.2273 13.7112 11.9575 13.6353 11.7012 13.4836L6.86492 10.6069V16.2774L11.3167 18.9264C11.4381 18.9954 11.536 19.092 11.6105 19.2161C11.685 19.3403 11.7219 19.4783 11.7214 19.63C11.7214 19.9474 11.5865 20.1855 11.3167 20.3444C11.0469 20.5034 10.7771 20.5067 10.5073 20.3544L6.05551 17.7261C5.79919 17.5743 5.60035 17.3743 5.45897 17.1259C5.31759 16.8776 5.24663 16.6016 5.24609 16.2981ZM17.3873 22.9413C16.2676 22.9413 15.3133 22.5376 14.5244 21.7302C13.7355 20.9228 13.3407 19.9468 13.3402 18.8022C13.3397 17.6576 13.7344 16.6817 14.5244 15.8743C15.3144 15.0669 16.2687 14.6632 17.3873 14.6632C18.5059 14.6632 19.4604 15.0669 20.251 15.8743C21.0415 16.6817 21.4359 17.6576 21.4343 18.8022C21.4327 19.9468 21.038 20.9231 20.2502 21.731C19.4623 22.5389 18.508 22.9424 17.3873 22.9413ZM17.792 18.6367V16.7327C17.792 16.6223 17.7515 16.5257 17.6706 16.443C17.5896 16.3602 17.4952 16.3188 17.3873 16.3188C17.2793 16.3188 17.1849 16.3602 17.104 16.443C17.023 16.5257 16.9826 16.6223 16.9826 16.7327V18.616C16.9826 18.7263 17.0028 18.8334 17.0433 18.9372C17.0837 19.0409 17.1444 19.1339 17.2254 19.2161L18.4395 20.4578C18.5204 20.5406 18.6149 20.582 18.7228 20.582C18.8307 20.582 18.9251 20.5406 19.0061 20.4578C19.087 20.3751 19.1275 20.2785 19.1275 20.1681C19.1275 20.0577 19.087 19.9611 19.0061 19.8784L17.792 18.6367Z" fill="url(#paint0_linear_534_806)"/>
<defs>
<linearGradient id="paint0_linear_534_806" x1="13.3402" y1="4.72949" x2="13.3402" y2="22.9413" gradientUnits="userSpaceOnUse">
<stop stop-color="#ADB815"/>
<stop offset="1" stop-color="#18392A"/>
</linearGradient>
</defs>
</svg>
