<svg width="200" height="200" viewBox="0 0 200 200" fill="none" xmlns="http://www.w3.org/2000/svg">
<path d="M100.179 191.595C150.863 191.595 191.951 150.507 191.951 99.8222C191.951 49.1377 150.863 8.0498 100.179 8.0498C49.4942 8.0498 8.40625 49.1377 8.40625 99.8222C8.40625 150.507 49.4942 191.595 100.179 191.595Z" fill="#68AD33" fill-opacity="0.15"/>
<path d="M100.177 169.054C138.413 169.054 169.409 138.058 169.409 99.8226C169.409 61.587 138.413 30.5908 100.177 30.5908C61.9415 30.5908 30.9453 61.587 30.9453 99.8226C30.9453 138.058 61.9415 169.054 100.177 169.054Z" fill="#68AD33"/>
<path fill-rule="evenodd" clip-rule="evenodd" d="M138.81 77.4597C141.043 79.7673 140.957 83.4235 138.618 85.6261L92.7556 128.815C90.4932 130.946 86.9329 130.946 84.6705 128.815L61.7399 107.221C59.401 105.018 59.3148 101.362 61.5474 99.0543C63.7801 96.7468 67.4861 96.6618 69.825 98.8645L88.7131 116.652L130.533 77.2698C132.872 75.0672 136.578 75.1522 138.81 77.4597Z" fill="white"/>
</svg>
