<svg width="21" height="26" viewBox="0 0 21 26" fill="none" xmlns="http://www.w3.org/2000/svg">
<path d="M16.9937 19.4665C16.516 19.7437 16.3535 20.3557 16.6307 20.8333C16.9079 21.311 17.5198 21.4736 17.9975 21.1964L16.9937 19.4665ZM20.5019 19.7431C20.9796 19.4659 21.1421 18.854 20.8649 18.3763C20.5877 17.8986 19.9758 17.7361 19.4981 18.0132L20.5019 19.7431ZM14.7353 15.535C14.2576 15.8122 14.0951 16.4242 14.3723 16.9019C14.6495 17.3795 15.2615 17.5421 15.7391 17.2649L14.7353 15.535ZM18.2435 15.8116C18.7212 15.5344 18.8838 14.9225 18.6066 14.4448C18.3294 13.9671 17.7174 13.8046 17.2397 14.0818L18.2435 15.8116ZM18.0876 22.1537L17.2205 22.6518L18.0876 22.1537ZM14.818 24.051L15.6851 23.5529L14.818 24.051ZM17.3967 24.7455L17.8986 25.6104L17.3967 24.7455ZM11.9594 4.68388C13.4363 7.25498 12.5578 10.5403 10.005 12.0217L11.0088 13.7515C14.5181 11.7151 15.7166 7.20948 13.6936 3.68768L11.9594 4.68388ZM10.005 12.0217C7.45519 13.5013 4.19243 12.6253 2.7172 10.0571L0.982966 11.0533C3.00769 14.5781 7.4965 15.7896 11.0088 13.7515L10.005 12.0217ZM2.7172 10.0571C1.24028 7.48601 2.11878 4.20068 4.67157 2.71933L3.66777 0.989481C0.158466 3.02587 -1.04007 7.53151 0.982966 11.0533L2.7172 10.0571ZM4.67157 2.71933C7.22137 1.23972 10.4841 2.11572 11.9594 4.68388L13.6936 3.68768C11.6689 0.16293 7.18006 -1.04865 3.66777 0.989481L4.67157 2.71933ZM17.9975 21.1964L20.5019 19.7431L19.4981 18.0132L16.9937 19.4665L17.9975 21.1964ZM15.7391 17.2649L18.2435 15.8116L17.2397 14.0818L14.7353 15.535L15.7391 17.2649ZM11.2735 12.2989L17.2205 22.6518L18.9548 21.6556L13.0078 11.3027L11.2735 12.2989ZM15.6851 23.5529L9.73808 13.2001L8.00385 14.1963L13.9508 24.5491L15.6851 23.5529ZM16.8948 23.8806C16.4731 24.1252 15.9316 23.9821 15.6851 23.5529L13.9508 24.5491C14.7469 25.9349 16.5144 26.4136 17.8986 25.6104L16.8948 23.8806ZM17.2205 22.6518C17.4687 23.0839 17.3194 23.6341 16.8948 23.8806L17.8986 25.6104C19.2797 24.809 19.7491 23.0384 18.9548 21.6556L17.2205 22.6518ZM6.86607 5.92985C6.97678 6.12259 6.90905 6.36673 6.7226 6.47493L7.7264 8.20478C8.86937 7.54153 9.25713 6.07709 8.60031 4.93365L6.86607 5.92985ZM6.7226 6.47493C6.53913 6.58139 6.30219 6.52027 6.19317 6.33048L4.45893 7.32668C5.11745 8.47307 6.58044 8.86976 7.7264 8.20478L6.7226 6.47493ZM6.19317 6.33048C6.08245 6.13774 6.15018 5.8936 6.33664 5.7854L5.33283 4.05555C4.18987 4.7188 3.8021 6.18324 4.45893 7.32668L6.19317 6.33048ZM6.33664 5.7854C6.5201 5.67894 6.75704 5.74006 6.86607 5.92985L8.60031 4.93365C7.94179 3.78726 6.47879 3.39057 5.33283 4.05555L6.33664 5.7854Z" fill="url(#paint0_linear_534_3267)"/>
<defs>
<linearGradient id="paint0_linear_534_3267" x1="10.5" y1="1" x2="10.5" y2="25" gradientUnits="userSpaceOnUse">
<stop stop-color="#ADB815"/>
<stop offset="1" stop-color="#18392A"/>
</linearGradient>
</defs>
</svg>
