<svg width="28" height="28" viewBox="0 0 28 28" fill="none" xmlns="http://www.w3.org/2000/svg">
<circle cx="14" cy="14" r="14" fill="#EAF6E4"/>
<path d="M14.11 9.52581C14.2389 9.45404 14.2854 9.29898 14.2139 9.17946C12.5979 6.48034 11.1497 6.84587 10.212 7.36795C9.27426 7.89003 8.22457 8.92121 9.83786 11.6158C9.90942 11.7354 10.0719 11.7741 10.2008 11.7023L14.11 9.52581Z" fill="#EAF6E4"/>
<path d="M18.9223 17.0439L14.3434 9.39587L9.96742 11.8322L14.5462 19.4801C14.602 19.5734 14.6844 19.6494 14.784 19.698C16.0459 20.3148 17.2158 20.743 17.8888 20.9697C18.2076 21.077 18.5421 20.8891 18.6028 20.5688C18.7308 19.8942 18.9237 18.7065 18.9992 17.3511C19.0052 17.2437 18.9781 17.137 18.9223 17.0439Z" fill="#EAF6E4"/>
<path d="M14.636 19.5938L18.9889 17.2141M12.251 10.5609L16.9682 18.3188M14.2139 9.17946C14.2854 9.29898 14.2389 9.45404 14.11 9.52581L10.2008 11.7023C10.0719 11.7741 9.90942 11.7354 9.83786 11.6158C8.22457 8.92121 9.27426 7.89003 10.212 7.36795C11.1497 6.84587 12.5979 6.48034 14.2139 9.17946ZM14.3434 9.39587L18.9223 17.0439C18.9781 17.137 19.0052 17.2437 18.9992 17.3511C18.9237 18.7065 18.7308 19.8942 18.6028 20.5688C18.5421 20.8891 18.2076 21.077 17.8888 20.9697C17.2158 20.743 16.0459 20.3148 14.784 19.698C14.6844 19.6494 14.602 19.5734 14.5462 19.4801L9.96742 11.8322L14.3434 9.39587Z" stroke="#18392A" stroke-linecap="round"/>
</svg>
