<svg width="16" height="15" viewBox="0 0 16 15" fill="none" xmlns="http://www.w3.org/2000/svg">
<path d="M8 0.0234375C8.24864 0.0234375 8.4871 0.121978 8.66291 0.297381C8.83873 0.472783 8.9375 0.71068 8.9375 0.958737V6.57053H14.5625C14.8111 6.57053 15.0496 6.66907 15.2254 6.84448C15.4012 7.01988 15.5 7.25777 15.5 7.50583C15.5 7.75389 15.4012 7.99179 15.2254 8.16719C15.0496 8.34259 14.8111 8.44113 14.5625 8.44113H8.9375V14.0529C8.9375 14.301 8.83873 14.5389 8.66291 14.7143C8.4871 14.8897 8.24864 14.9882 8 14.9882C7.75136 14.9882 7.5129 14.8897 7.33709 14.7143C7.16127 14.5389 7.0625 14.301 7.0625 14.0529V8.44113H1.4375C1.18886 8.44113 0.950403 8.34259 0.774588 8.16719C0.598772 7.99179 0.5 7.75389 0.5 7.50583C0.5 7.25777 0.598772 7.01988 0.774588 6.84448C0.950403 6.66907 1.18886 6.57053 1.4375 6.57053H7.0625V0.958737C7.0625 0.71068 7.16127 0.472783 7.33709 0.297381C7.5129 0.121978 7.75136 0.0234375 8 0.0234375Z" fill="#18392A"/>
</svg>
