<svg width="46" height="47" viewBox="0 0 46 47" fill="none" xmlns="http://www.w3.org/2000/svg">
<circle cx="22.6756" cy="23.3777" r="22.6756" fill="#EAF6E4"/>
<path d="M15 22.3086C15 21.6182 15.5713 21.0586 16.276 21.0586H28.724C29.4287 21.0586 30 21.6182 30 22.3086V31.3086C30 31.9989 29.4287 32.5586 28.724 32.5586H16.276C15.5713 32.5586 15 31.9989 15 31.3086V22.3086Z" fill="#EAF6E4"/>
<path d="M23.4216 25.3086C23.4216 25.8609 22.9645 26.3086 22.4008 26.3086C21.837 26.3086 21.38 25.8609 21.38 25.3086C21.38 24.7563 21.837 24.3086 22.4008 24.3086C22.9645 24.3086 23.4216 24.7563 23.4216 25.3086Z" fill="#EAF6E4"/>
<path d="M26.9943 21.0586L26.9943 18.9894C26.9943 16.5423 24.9948 14.5586 22.5284 14.5586C20.0619 14.5586 18.0624 16.5423 18.0624 18.9894V21.0586M22.4008 26.3086C22.9645 26.3086 23.4216 25.8609 23.4216 25.3086C23.4216 24.7563 22.9645 24.3086 22.4008 24.3086C21.837 24.3086 21.38 24.7563 21.38 25.3086C21.38 25.8609 21.837 26.3086 22.4008 26.3086ZM22.4008 26.3086V29.6836M16.276 32.5586H28.724C29.4287 32.5586 30 31.9989 30 31.3086V22.3086C30 21.6182 29.4287 21.0586 28.724 21.0586H16.276C15.5713 21.0586 15 21.6182 15 22.3086V31.3086C15 31.9989 15.5713 32.5586 16.276 32.5586Z" stroke="url(#paint0_linear_47_102)" stroke-width="1.8" stroke-linecap="round"/>
<defs>
<linearGradient id="paint0_linear_47_102" x1="22.5" y1="14.5586" x2="22.5" y2="32.5586" gradientUnits="userSpaceOnUse">
<stop stop-color="#ADB815"/>
<stop offset="1" stop-color="#18392A"/>
</linearGradient>
</defs>
</svg>
