<svg width="25" height="25" viewBox="0 0 25 25" fill="none" xmlns="http://www.w3.org/2000/svg">
<path d="M5.75202 18.7285V11.7907C5.33467 11.7907 4.97752 11.6399 4.68056 11.3382C4.38361 11.0365 4.23488 10.6735 4.23438 10.249V8.70724C4.23438 8.28326 4.3831 7.92044 4.68056 7.61877C4.97802 7.31711 5.33517 7.16602 5.75202 7.1655H8.18026C8.11702 7.04987 8.07605 6.92782 8.05733 6.79934C8.03861 6.67086 8.029 6.53596 8.02849 6.39464C8.02849 5.75225 8.24982 5.20621 8.69246 4.75654C9.13511 4.30687 9.67261 4.08203 10.305 4.08203C10.5958 4.08203 10.8678 4.13676 11.1207 4.24623C11.3736 4.35569 11.6076 4.50652 11.8226 4.69873C12.0376 4.49316 12.2716 4.33899 12.5245 4.2362C12.7775 4.13342 13.0494 4.08203 13.3403 4.08203C13.9726 4.08203 14.5101 4.30687 14.9528 4.75654C15.3954 5.20621 15.6167 5.75225 15.6167 6.39464C15.6167 6.53596 15.6041 6.66778 15.5788 6.79009C15.5535 6.9124 15.5155 7.03754 15.465 7.1655H17.8932C18.3105 7.1655 18.668 7.31659 18.9654 7.61877C19.2629 7.92096 19.4113 8.28378 19.4108 8.70724V10.249C19.4108 10.673 19.2624 11.036 18.9654 11.3382C18.6685 11.6404 18.3111 11.7912 17.8932 11.7907V18.7285C17.8932 19.1525 17.7447 19.5156 17.4478 19.8178C17.1508 20.1199 16.7934 20.2708 16.3755 20.2703H7.26967C6.85232 20.2703 6.49516 20.1194 6.19821 19.8178C5.90126 19.5161 5.75253 19.153 5.75202 18.7285ZM13.3403 5.62377C13.1253 5.62377 12.9452 5.69777 12.8 5.84578C12.6548 5.99378 12.5819 6.17674 12.5814 6.39464C12.5809 6.61253 12.6538 6.79574 12.8 6.94427C12.9462 7.09279 13.1263 7.16653 13.3403 7.1655C13.5542 7.16448 13.7346 7.09047 13.8813 6.94349C14.028 6.79652 14.1006 6.61356 14.0991 6.39464C14.0976 6.17571 14.0247 5.99276 13.8805 5.84578C13.7364 5.6988 13.5563 5.6248 13.3403 5.62377ZM9.54614 6.39464C9.54614 6.61305 9.61899 6.79626 9.76468 6.94427C9.91037 7.09227 10.0905 7.16602 10.305 7.1655C10.5195 7.16499 10.6998 7.09099 10.846 6.94349C10.9922 6.796 11.0648 6.61305 11.0638 6.39464C11.0628 6.17622 10.9899 5.99327 10.8452 5.84578C10.7006 5.69829 10.5205 5.62428 10.305 5.62377C10.0895 5.62325 9.90936 5.69726 9.76468 5.84578C9.62 5.9943 9.54715 6.17725 9.54614 6.39464ZM5.75202 8.70724V10.249H11.0638V8.70724H5.75202ZM11.0638 18.7285V11.7907H7.26967V18.7285H11.0638ZM12.5814 18.7285H16.3755V11.7907H12.5814V18.7285ZM17.8932 10.249V8.70724H12.5814V10.249H17.8932Z" fill="url(#paint0_linear_534_803)"/>
<defs>
<linearGradient id="paint0_linear_534_803" x1="11.8226" y1="4.08203" x2="11.8226" y2="20.2703" gradientUnits="userSpaceOnUse">
<stop stop-color="#ADB815"/>
<stop offset="1" stop-color="#18392A"/>
</linearGradient>
</defs>
</svg>
