<svg width="26" height="24" viewBox="0 0 26 24" fill="none" xmlns="http://www.w3.org/2000/svg">
<path d="M25.1016 8.5252C25.1016 18.3252 21.2996 23.2252 13.6957 23.2252V18.8002C15.6409 18.8002 17.0114 18.2502 17.8071 17.1502C18.5587 16.0502 18.9345 14.4002 18.9345 12.2002C17.564 12.0002 16.4809 11.3502 15.6851 10.2502C14.8452 9.1502 14.4252 7.82519 14.4252 6.2752C14.4252 4.4252 14.8894 2.9502 15.8177 1.8502C16.7461 0.750196 18.0061 0.200195 19.5976 0.200195C21.3217 0.200195 22.6701 0.900196 23.6427 2.3002C24.6153 3.7502 25.1016 5.8252 25.1016 8.5252ZM0.101562 18.8002C2.04674 18.8002 3.41721 18.2502 4.21297 17.1502C4.96452 16.0502 5.34029 14.4002 5.34029 12.2002C3.96982 12.0002 2.88671 11.3502 2.09095 10.2502C1.25099 9.1502 0.831006 7.82519 0.831006 6.2752C0.831006 4.4252 1.2952 2.9502 2.22358 1.8502C3.10775 0.750196 4.3456 0.200195 5.93711 0.200195C7.66124 0.200195 9.00961 0.900196 9.9822 2.3002C10.9548 3.7502 11.4411 5.8252 11.4411 8.5252C11.4411 18.3252 7.66124 23.2252 0.101562 23.2252V18.8002Z" fill="#DCE8D6"/>
</svg>
