<svg width="40" height="40" viewBox="0 0 40 40" fill="none" xmlns="http://www.w3.org/2000/svg">
<rect width="40" height="40" rx="4" fill="#DCE8D6"/>
<path d="M12.446 20.7121L12.446 20.7121C12.4193 20.6153 12.4427 20.5138 12.5066 20.4371L12.5066 20.437C12.5708 20.3601 12.6671 20.3181 12.7667 20.3181H27.1374C27.2325 20.3181 27.3231 20.3567 27.387 20.425L27.3872 20.4252L27.3872 20.4252C27.4523 20.4952 27.4807 20.5891 27.4652 20.682L27.4651 20.6827L26.9255 23.7735C26.9255 23.7735 26.9255 23.7735 26.9255 23.7735L26.9255 23.7738L26.827 23.7566L12.446 20.7121ZM12.446 20.7121L12.4462 20.7126L13.3195 23.8033C13.3195 23.8034 13.3195 23.8034 13.3195 23.8035L12.446 20.7121ZM26.747 20.9451L26.3172 23.4089H13.8949L13.1991 20.9451H26.747Z" fill="url(#paint0_linear_4_167)" stroke="url(#paint1_linear_4_167)" stroke-width="0.2"/>
<path d="M25.627 24.1586L25.6271 24.1582C25.6701 23.9873 25.8495 23.886 26.0229 23.9244L26.0013 24.022M25.627 24.1586L18.9426 31.7912C19.2669 31.7912 19.6274 31.79 20.0287 31.7862C20.5063 31.7817 21.4406 31.7684 22.2869 31.7451C22.71 31.7334 23.1118 31.7192 23.4237 31.7023C23.5795 31.6939 23.7138 31.6848 23.8176 31.6748C23.8694 31.6699 23.9145 31.6646 23.9513 31.659C23.9862 31.6537 24.0198 31.6472 24.0451 31.6382L24.0115 31.544L24.0447 31.6383L24.0448 31.6383C24.0659 31.6309 24.1 31.6189 24.1386 31.5847C24.1742 31.5533 24.2092 31.5072 24.2478 31.4387C24.3246 31.3026 24.4279 31.0557 24.5796 30.595C24.8839 29.6711 25.3907 27.8637 26.2726 24.302C26.3168 24.1247 26.1951 23.9608 26.022 23.9242L26.0013 24.022M25.627 24.1586C25.3237 25.3837 24.9133 26.9846 24.5426 28.3493C24.3573 29.0318 24.1821 29.6545 24.0352 30.1415C23.9025 30.5818 23.7954 30.9027 23.7262 31.0588M25.627 24.1586L26.1756 24.2777C26.2043 24.1627 26.1265 24.0485 26.0013 24.022M26.0013 24.022C25.8764 23.9944 25.7528 24.0684 25.724 24.1826C25.1173 26.634 24.0815 30.5892 23.7927 31.1521M23.7927 31.1521L23.7803 31.0529C23.7642 31.0549 23.7462 31.0569 23.7262 31.0588M23.7927 31.1521L23.7037 31.1065C23.7107 31.0928 23.7182 31.077 23.7262 31.0588M23.7927 31.1521L23.7262 31.0588M23.7262 31.0588C23.2344 31.1077 21.6031 31.1487 19.9796 31.1598C19.1368 31.1656 18.2991 31.1633 17.629 31.1499C17.2939 31.1432 17.0014 31.1338 16.7715 31.1213C16.5773 31.1107 16.433 31.0982 16.3454 31.0843C16.3071 31.0025 16.2535 30.8637 16.1874 30.6756C16.1093 30.4534 16.016 30.1691 15.9132 29.8436C15.7078 29.1927 15.465 28.3792 15.2303 27.5721C14.7622 25.9622 14.3296 24.3883 14.2876 24.1749C14.2665 24.0137 14.1215 23.9 13.9583 23.9C13.7827 23.9 13.6266 24.0331 13.6266 24.2135C13.6266 24.2205 13.6273 24.2262 13.6275 24.2277L13.6275 24.2278L13.6285 24.2337L13.6302 24.2422L13.6347 24.2617C13.6384 24.2771 13.6438 24.2986 13.6507 24.3257C13.6646 24.3798 13.6848 24.4575 13.7107 24.5551C13.7625 24.7505 13.8369 25.0269 13.9272 25.3578C14.108 26.0197 14.3529 26.9003 14.6097 27.7892C14.8663 28.6779 15.1351 29.5756 15.3635 30.2713C15.4777 30.6189 15.5822 30.9175 15.6704 31.1397C15.7145 31.2506 15.7551 31.3443 15.7915 31.4161C15.8096 31.452 15.8274 31.4838 15.8448 31.5103C15.8612 31.5353 15.8808 31.5613 15.9039 31.5806C15.9319 31.604 15.9676 31.6319 16.0511 31.6574C16.1284 31.6811 16.2477 31.7032 16.4447 31.7226C16.8398 31.7615 17.5673 31.7914 18.9426 31.7912L23.7262 31.0588Z" fill="url(#paint2_linear_4_167)" stroke="url(#paint3_linear_4_167)" stroke-width="0.2"/>
<path d="M20.0002 20.9234L20.0002 20.9234C19.8253 20.9189 19.6716 20.782 19.6775 20.6011L19.6775 20.6012L19.7775 20.6042L19.6775 20.601L20.0002 20.9234ZM20.0002 20.9234H20.0027M20.0002 20.9234H20.0027M20.0027 20.9234H20.0027H20.0028H20.0028H20.0028H20.0028H20.0028H20.0028H20.0028H20.0029H20.0029H20.0029H20.0029H20.0029H20.0029H20.0029H20.0029H20.003H20.003H20.003H20.003H20.003H20.003H20.003H20.003H20.0031H20.0031H20.0031H20.0031H20.0031H20.0031H20.0031H20.0032H20.0032H20.0032H20.0032H20.0032H20.0032H20.0032H20.0032H20.0033H20.0033H20.0033H20.0033H20.0033H20.0033H20.0033H20.0033H20.0034H20.0034H20.0034H20.0034H20.0034H20.0034H20.0034H20.0035H20.0035H20.0035H20.0035H20.0035H20.0035H20.0035H20.0035H20.0036H20.0036H20.0036H20.0036H20.0036H20.0036H20.0036H20.0036H20.0037H20.0037H20.0037H20.0037H20.0037H20.0037H20.0037H20.0037H20.0038H20.0038H20.0038H20.0038H20.0038H20.0038H20.0038H20.0038H20.0039H20.0039H20.0039H20.0039H20.0039H20.0039H20.0039H20.0039H20.004H20.004H20.004H20.004H20.004H20.004H20.004H20.0041H20.0041H20.0041H20.0041H20.0041H20.0041H20.0041H20.0041H20.0042H20.0042H20.0042H20.0042H20.0042H20.0042H20.0042H20.0042H20.0043H20.0043H20.0043H20.0043H20.0043H20.0043H20.0043H20.0043H20.0044H20.0044H20.0044H20.0044H20.0044H20.0044H20.0044H20.0044H20.0045H20.0045H20.0045H20.0045H20.0045H20.0045H20.0045H20.0045H20.0046H20.0046H20.0046H20.0046H20.0046H20.0046H20.0046H20.0046H20.0047H20.0047H20.0047H20.0047H20.0047H20.0047H20.0047H20.0047H20.0048H20.0048H20.0048H20.0048H20.0048H20.0048H20.0048H20.0048H20.0049H20.0049H20.0049H20.0049H20.0049H20.0049H20.0049H20.0049H20.005H20.005H20.005H20.005H20.005H20.005H20.005H20.005H20.0051H20.0051H20.0051H20.0051H20.0051H20.0051H20.0051H20.0051H20.0051H20.0052H20.0052H20.0052H20.0052H20.0052H20.0052H20.0052H20.0052H20.0053H20.0053H20.0053H20.0053H20.0053H20.0053H20.0053H20.0053H20.0054H20.0054H20.0054H20.0054H20.0054H20.0054H20.0054H20.0054H20.0055H20.0055H20.0055H20.0055H20.0055H20.0055H20.0055H20.0055H20.0056H20.0056H20.0056H20.0056H20.0056H20.0056H20.0056H20.0056H20.0057H20.0057H20.0057H20.0057H20.0057H20.0057H20.0057H20.0057H20.0058H20.0058H20.0058H20.0058H20.0058H20.0058H20.0058H20.0058H20.0059H20.0059H20.0059H20.0059H20.0059H20.0059H20.0059H20.0059H20.0059H20.006H20.006H20.006H20.006H20.006H20.006H20.006H20.006H20.0061H20.0061H20.0061H20.0061H20.0061H20.0061H20.0061H20.0061H20.0062H20.0062H20.0062H20.0062H20.0062H20.0062H20.0062H20.0062H20.0063H20.0063H20.0063H20.0063H20.0063H20.0063H20.0063H20.0063H20.0064H20.0064H20.0064H20.0064H20.0064H20.0064H20.0064H20.0064H20.0065H20.0065H20.0065H20.0065H20.0065H20.0065H20.0065H20.0065H20.0066H20.0066H20.0066H20.0066H20.0066H20.0066H20.0066H20.0066H20.0067H20.0067H20.0067H20.0067H20.0067H20.0067H20.0067H20.0067H20.0067H20.0068H20.0068H20.0068H20.0068H20.0068H20.0068H20.0068H20.0068H20.0069H20.0069H20.0069H20.0069H20.0069H20.0069H20.0069H20.0069H20.007H20.007H20.007H20.007H20.007H20.007H20.007H20.007H20.0071H20.0071H20.0071H20.0071H20.0071H20.0071H20.0071H20.0071H20.0072H20.0072H20.0072H20.0072H20.0072H20.0072H20.0072H20.0072H20.0073H20.0073H20.0073H20.0073H20.0073H20.0073H20.0073H20.0073H20.0074H20.0074H20.0074H20.0074H20.0074H20.0074H20.0074H20.0074H20.0075H20.0075H20.0075H20.0075H20.0075H20.0075H20.0075H20.0075H20.0076H20.0076H20.0076H20.0076H20.0076H20.0076H20.0076H20.0076H20.0077H20.0077H20.0077H20.0077H20.0077H20.0077H20.0077H20.0077H20.0078H20.0078H20.0078H20.0078H20.0078H20.0078H20.0078H20.0078H20.0079H20.0079H20.0079H20.0079H20.0079H20.0079H20.0079H20.0079H20.008H20.008H20.008H20.008H20.008H20.008H20.008H20.008H20.0081H20.0081H20.0081H20.0081H20.0081H20.0081H20.0081H20.0082H20.0082H20.0082H20.0082H20.0082H20.0082H20.0082H20.0082H20.0083H20.0083H20.0083H20.0083H20.0083H20.0083H20.0083H20.0083H20.0084H20.0084H20.0084H20.0084H20.0084H20.0084H20.0084H20.0084H20.0085H20.0085H20.0085H20.0085H20.0085H20.0085H20.0085H20.0085H20.0086H20.0086H20.0086H20.0086H20.0086H20.0086H20.0086H20.0087H20.0087H20.0087H20.0087H20.0087H20.0087H20.0087H20.0087H20.0088H20.0088H20.0088H20.0088H20.0088H20.0088H20.0088H20.0088H20.0089H20.0089H20.0089H20.0089H20.0089H20.0089H20.0089H20.009H20.009H20.009H20.009H20.009H20.009H20.009H20.009H20.0091H20.0091H20.0091H20.0091H20.0091H20.0091H20.0091H20.0091H20.0092H20.0092H20.0092C20.1807 20.9234 20.3358 20.796 20.3412 20.6186L20.3412 20.6185L20.4415 17.2673M20.0027 20.9234L24.1961 13.2323M24.1961 13.2323L24.1963 13.233C24.2105 13.2852 24.4761 14.3084 23.7602 15.3698L23.7602 15.3698C23.1451 16.2814 22.0212 16.9142 20.4415 17.2673M24.1961 13.2323C24.1505 13.0685 23.9814 12.9708 23.8104 13.0037M24.1961 13.2323L23.8104 13.0037M20.4415 17.2673L20.4438 17.1894L20.3439 17.1864L20.365 17.2841C20.3906 17.2786 20.4161 17.273 20.4415 17.2673ZM23.8104 13.0037L23.8293 13.1019L23.8104 13.0037ZM19.7869 17.011C19.7869 17.0116 19.7869 17.0122 19.7869 17.0127H19.8869L19.7869 17.0097L19.7869 17.011ZM19.8988 16.9464L19.8048 16.9124C19.8039 16.9148 19.8031 16.9171 19.8023 16.9195C19.8018 16.9216 19.8014 16.9237 19.801 16.9257L19.8988 16.9464ZM23.196 15.0403C22.7209 15.7387 21.8466 16.263 20.5719 16.5895C20.8379 15.7831 21.5999 14.2099 23.5896 13.6961C23.6006 14.0111 23.5478 14.5228 23.196 15.0403Z" fill="url(#paint4_linear_4_167)" stroke="url(#paint5_linear_4_167)" stroke-width="0.2"/>
<path d="M15.5914 13.3109H15.5914C15.5919 13.1332 15.7435 13.0018 15.9164 12.9986L15.9174 12.9985L15.9174 12.9986C15.9276 12.9985 15.9381 12.9983 15.9488 12.9982C15.9704 12.9979 15.9926 12.9977 16.0142 12.9977C17.7873 12.9977 18.9016 13.9658 19.5692 14.9302C20.2352 15.8924 20.4629 16.8584 20.4686 16.8832M15.5914 13.3109L20.1041 17.2357C15.7272 16.5342 15.6914 13.3433 15.6914 13.3112C15.6917 13.1952 15.7921 13.1009 15.9183 13.0985C15.9292 13.0984 15.9401 13.0983 15.9509 13.0982C15.9721 13.0979 15.9932 13.0977 16.0142 13.0977C19.4744 13.0977 20.3623 16.867 20.371 16.9054C20.3775 16.9333 20.3775 16.961 20.3723 16.9871M15.5914 13.3109V13.3112C15.5914 13.3376 15.602 14.1642 16.1716 15.0754C16.744 15.9909 17.8731 16.9793 20.0876 17.3343M15.5914 13.3109L20.0876 17.3343M20.4686 16.8832L20.3711 16.9053L20.4685 16.8829C20.4685 16.883 20.4685 16.8831 20.4686 16.8832ZM20.4686 16.8832C20.4767 16.9185 20.478 16.9535 20.4736 16.987M20.4736 16.987C20.4728 16.9805 20.4717 16.9741 20.4704 16.9677L20.3723 16.9871M20.4736 16.987C20.4728 16.9936 20.4717 17.0001 20.4704 17.0065L20.3723 16.9871M20.4736 16.987L20.0876 17.3343M20.3723 16.9871C20.3772 17.0115 20.3775 17.0365 20.3723 17.0621L20.4705 17.0809C20.4705 17.0812 20.4704 17.0816 20.4704 17.0819C20.4398 17.2384 20.2962 17.339 20.1445 17.339C20.1266 17.339 20.1077 17.3378 20.0876 17.3343M18.7923 14.9511C19.2844 15.5484 19.5641 16.2104 19.7041 16.6215C18.284 16.3042 17.4523 15.6964 16.9636 15.0927C16.5122 14.5351 16.348 13.9744 16.2883 13.6339C17.4488 13.7131 18.2489 14.2916 18.7923 14.9511Z" fill="url(#paint6_linear_4_167)" stroke="url(#paint7_linear_4_167)" stroke-width="0.2"/>
<path d="M19.623 13.1048C19.6411 13.2357 19.7709 13.3297 19.9138 13.3133C20.0575 13.2969 20.1588 13.1774 20.142 13.0457C20.1236 12.9142 19.9939 12.8206 19.8496 12.8366C19.7073 12.853 19.6056 12.9731 19.623 13.1048Z" fill="url(#paint8_linear_4_167)"/>
<path d="M19.6191 11.5572C19.6372 11.688 19.7666 11.782 19.9096 11.7656C20.0536 11.7493 20.1549 11.6294 20.1381 11.498C20.1197 11.3666 19.9897 11.2726 19.8454 11.289C19.7034 11.3053 19.6017 11.4254 19.6191 11.5572Z" fill="url(#paint9_linear_4_167)"/>
<path d="M21.6364 11.7683C21.7808 11.7683 21.8979 11.6605 21.8979 11.5275C21.8979 11.3945 21.7808 11.2866 21.6364 11.2866C21.492 11.2866 21.375 11.3945 21.375 11.5275C21.375 11.6605 21.492 11.7683 21.6364 11.7683Z" fill="url(#paint10_linear_4_167)"/>
<path d="M18.1208 11.7683C18.2652 11.7683 18.3822 11.6605 18.3822 11.5275C18.3822 11.3945 18.2652 11.2866 18.1208 11.2866C17.9764 11.2866 17.8594 11.3945 17.8594 11.5275C17.8594 11.6605 17.9764 11.7683 18.1208 11.7683Z" fill="url(#paint11_linear_4_167)"/>
<path d="M19.6191 10.0102C19.6372 10.1411 19.7666 10.235 19.9096 10.2187C20.0536 10.2023 20.1549 10.0828 20.1381 9.95107C20.1197 9.81964 19.9897 9.72597 19.8454 9.74203C19.7034 9.75838 19.6017 9.87851 19.6191 10.0102Z" fill="url(#paint12_linear_4_167)"/>
<path d="M21.6364 10.2215C21.7808 10.2215 21.8979 10.1136 21.8979 9.98061C21.8979 9.84758 21.7808 9.73975 21.6364 9.73975C21.492 9.73975 21.375 9.84758 21.375 9.98061C21.375 10.1136 21.492 10.2215 21.6364 10.2215Z" fill="url(#paint13_linear_4_167)"/>
<path d="M18.1208 10.2215C18.2652 10.2215 18.3822 10.1136 18.3822 9.98061C18.3822 9.84758 18.2652 9.73975 18.1208 9.73975C17.9764 9.73975 17.8594 9.84758 17.8594 9.98061C17.8594 10.1136 17.9764 10.2215 18.1208 10.2215Z" fill="url(#paint14_linear_4_167)"/>
<path d="M19.623 8.46215C19.6411 8.59299 19.7705 8.68696 19.9135 8.6709C20.0575 8.65455 20.1588 8.53471 20.142 8.40328C20.1236 8.27184 19.9936 8.17788 19.8493 8.19423C19.7073 8.21029 19.6056 8.33042 19.623 8.46215Z" fill="url(#paint15_linear_4_167)"/>
<defs>
<linearGradient id="paint0_linear_4_167" x1="19.9523" y1="20.4181" x2="19.9523" y2="23.9362" gradientUnits="userSpaceOnUse">
<stop stop-color="#ADB815"/>
<stop offset="1" stop-color="#18392A"/>
</linearGradient>
<linearGradient id="paint1_linear_4_167" x1="19.9523" y1="20.4181" x2="19.9523" y2="23.9362" gradientUnits="userSpaceOnUse">
<stop stop-color="#ADB815"/>
<stop offset="1" stop-color="#18392A"/>
</linearGradient>
<linearGradient id="paint2_linear_4_167" x1="19.9541" y1="24" x2="19.9541" y2="31.6912" gradientUnits="userSpaceOnUse">
<stop stop-color="#ADB815"/>
<stop offset="1" stop-color="#18392A"/>
</linearGradient>
<linearGradient id="paint3_linear_4_167" x1="19.9541" y1="24" x2="19.9541" y2="31.6912" gradientUnits="userSpaceOnUse">
<stop stop-color="#ADB815"/>
<stop offset="1" stop-color="#18392A"/>
</linearGradient>
<linearGradient id="paint4_linear_4_167" x1="21.9667" y1="13.0973" x2="21.9667" y2="20.8234" gradientUnits="userSpaceOnUse">
<stop stop-color="#ADB815"/>
<stop offset="1" stop-color="#18392A"/>
</linearGradient>
<linearGradient id="paint5_linear_4_167" x1="21.9667" y1="13.0973" x2="21.9667" y2="20.8234" gradientUnits="userSpaceOnUse">
<stop stop-color="#ADB815"/>
<stop offset="1" stop-color="#18392A"/>
</linearGradient>
<linearGradient id="paint6_linear_4_167" x1="18.0337" y1="13.0977" x2="18.0337" y2="17.239" gradientUnits="userSpaceOnUse">
<stop stop-color="#ADB815"/>
<stop offset="1" stop-color="#18392A"/>
</linearGradient>
<linearGradient id="paint7_linear_4_167" x1="18.0337" y1="13.0977" x2="18.0337" y2="17.239" gradientUnits="userSpaceOnUse">
<stop stop-color="#ADB815"/>
<stop offset="1" stop-color="#18392A"/>
</linearGradient>
<linearGradient id="paint8_linear_4_167" x1="19.8825" y1="12.8348" x2="19.8825" y2="13.3151" gradientUnits="userSpaceOnUse">
<stop stop-color="#ADB815"/>
<stop offset="1" stop-color="#18392A"/>
</linearGradient>
<linearGradient id="paint9_linear_4_167" x1="19.8786" y1="11.2871" x2="19.8786" y2="11.7675" gradientUnits="userSpaceOnUse">
<stop stop-color="#ADB815"/>
<stop offset="1" stop-color="#18392A"/>
</linearGradient>
<linearGradient id="paint10_linear_4_167" x1="21.6364" y1="11.2866" x2="21.6364" y2="11.7683" gradientUnits="userSpaceOnUse">
<stop stop-color="#ADB815"/>
<stop offset="1" stop-color="#18392A"/>
</linearGradient>
<linearGradient id="paint11_linear_4_167" x1="18.1208" y1="11.2866" x2="18.1208" y2="11.7683" gradientUnits="userSpaceOnUse">
<stop stop-color="#ADB815"/>
<stop offset="1" stop-color="#18392A"/>
</linearGradient>
<linearGradient id="paint12_linear_4_167" x1="19.8786" y1="9.74023" x2="19.8786" y2="10.2205" gradientUnits="userSpaceOnUse">
<stop stop-color="#ADB815"/>
<stop offset="1" stop-color="#18392A"/>
</linearGradient>
<linearGradient id="paint13_linear_4_167" x1="21.6364" y1="9.73975" x2="21.6364" y2="10.2215" gradientUnits="userSpaceOnUse">
<stop stop-color="#ADB815"/>
<stop offset="1" stop-color="#18392A"/>
</linearGradient>
<linearGradient id="paint14_linear_4_167" x1="18.1208" y1="9.73975" x2="18.1208" y2="10.2215" gradientUnits="userSpaceOnUse">
<stop stop-color="#ADB815"/>
<stop offset="1" stop-color="#18392A"/>
</linearGradient>
<linearGradient id="paint15_linear_4_167" x1="19.8825" y1="8.19238" x2="19.8825" y2="8.67269" gradientUnits="userSpaceOnUse">
<stop stop-color="#ADB815"/>
<stop offset="1" stop-color="#18392A"/>
</linearGradient>
</defs>
</svg>
