<svg width="32" height="27" viewBox="0 0 32 27" fill="none" xmlns="http://www.w3.org/2000/svg">
<path d="M2.37395 12.8408C1.52053 12.8408 0.820313 13.5458 0.820313 14.3995V14.9764C0.820401 15.1072 0.872447 15.2327 0.965008 15.3251C1.05757 15.4176 1.18307 15.4695 1.31391 15.4695C1.44475 15.4695 1.57024 15.4176 1.6628 15.3251C1.75536 15.2327 1.80741 15.1072 1.8075 14.9764V14.3995C1.8075 14.0731 2.05264 13.828 2.37395 13.828H3.88886C4.21021 13.828 4.45531 14.0731 4.45531 14.3995V24.4416C4.45531 24.768 4.21021 25.013 3.88886 25.013H2.37395C2.05264 25.013 1.8075 24.768 1.8075 24.4416V20.6736C1.80752 20.6088 1.79476 20.5446 1.76996 20.4847C1.74516 20.4248 1.7088 20.3704 1.66296 20.3246C1.61713 20.2787 1.56271 20.2424 1.50281 20.2176C1.44292 20.1928 1.37873 20.18 1.31391 20.18C1.24908 20.18 1.18489 20.1928 1.125 20.2176C1.0651 20.2424 1.01068 20.2787 0.964847 20.3246C0.919009 20.3704 0.882652 20.4248 0.857853 20.4847C0.833053 20.5446 0.820296 20.6088 0.820313 20.6736V24.4416C0.820313 25.2953 1.52053 26.0002 2.37395 26.0002H3.88886C4.7423 26.0002 5.44249 25.2953 5.44249 24.4416V14.3995C5.44249 13.5458 4.7423 12.8408 3.88886 12.8408H2.37395Z" fill="#002140" stroke="#002140" stroke-width="0.3"/>
<path d="M30.0535 12.8531C29.4301 12.8151 28.7038 13.0245 28.2216 13.266C28.2181 13.2677 17.5484 18.9269 17.5484 18.9269H10.4419C10.1693 18.9268 9.94825 19.1479 9.94832 19.4205C9.94825 19.6931 10.1693 19.9142 10.4419 19.9141H17.6714C17.7522 19.9141 17.8318 19.8942 17.9031 19.8563L28.6278 14.1664C29.0636 13.9483 29.6562 13.8179 29.9934 13.8385C30.153 13.8482 30.256 13.8787 30.3399 13.9291C28.703 15.721 26.527 18.1049 24.257 20.1049C21.8655 22.2119 19.3789 23.7959 17.6714 23.7959H4.94867C4.67604 23.7958 4.45501 24.0168 4.45508 24.2895C4.45526 24.5619 4.67621 24.7827 4.94867 24.7826H17.6714C19.9357 24.7826 22.4577 23.0054 24.9095 20.8453C27.3613 18.6851 29.7099 16.0861 31.3644 14.276C31.5093 14.1176 31.5351 13.8835 31.4282 13.6973C31.1713 13.2504 30.6769 12.8911 30.0535 12.8531Z" fill="#002140" stroke="#002140" stroke-width="0.3"/>
<path d="M0.771484 16.8399C0.771484 16.6954 0.828901 16.5568 0.931104 16.4545C1.03331 16.3523 1.17192 16.2949 1.31646 16.2949C1.38803 16.2949 1.4589 16.309 1.52502 16.3364C1.59114 16.3638 1.65122 16.4039 1.70183 16.4545C1.75244 16.5051 1.79259 16.5652 1.81997 16.6313C1.84736 16.6975 1.86146 16.7683 1.86146 16.8399C1.86146 16.9115 1.84736 16.9823 1.81997 17.0485C1.79259 17.1146 1.75244 17.1747 1.70183 17.2253C1.65122 17.2759 1.59114 17.316 1.52502 17.3434C1.4589 17.3708 1.38803 17.3849 1.31646 17.3849C1.17192 17.3849 1.03331 17.3275 0.931104 17.2253C0.828901 17.1231 0.771484 16.9844 0.771484 16.8399Z" fill="#002140" stroke="#002140" stroke-width="0.3"/>
<path d="M0.771484 18.7969C0.771484 18.6524 0.828901 18.5138 0.931104 18.4116C1.03331 18.3094 1.17192 18.252 1.31646 18.252C1.38803 18.252 1.4589 18.266 1.52502 18.2934C1.59114 18.3208 1.65122 18.361 1.70183 18.4116C1.75244 18.4622 1.79259 18.5223 1.81997 18.5884C1.84736 18.6545 1.86146 18.7254 1.86146 18.7969C1.86146 18.8685 1.84736 18.9394 1.81997 19.0055C1.79259 19.0716 1.75244 19.1317 1.70183 19.1823C1.65122 19.2329 1.59114 19.2731 1.52502 19.3004C1.4589 19.3278 1.38803 19.3419 1.31646 19.3419C1.17192 19.3419 1.03331 19.2845 0.931104 19.1823C0.828901 19.0801 0.771484 18.9415 0.771484 18.7969Z" fill="#002140" stroke="#002140" stroke-width="0.3"/>
<path d="M5.04633 14.873C4.7737 14.873 4.55266 15.094 4.55273 15.3666C4.55266 15.6393 4.7737 15.8603 5.04633 15.8602C7.84089 15.8602 14.7319 16.0454 15.4298 16.0855C16.1277 16.1256 17.1579 16.289 17.9339 16.6197C18.7102 16.9506 19.2537 17.4298 19.7325 18.259C19.8687 18.4952 20.1707 18.5762 20.4068 18.4397C20.6429 18.3034 20.7236 18.0014 20.5871 17.7654C20.0225 16.7874 19.2743 16.1181 18.3209 15.7118C17.3675 15.3055 16.2308 15.143 15.513 15.1016C15.5079 15.1013 7.88878 14.873 5.04633 14.873Z" fill="#002140" stroke="#002140" stroke-width="0.3"/>
<path d="M17.1152 9.58496C14.6653 9.58496 12.4415 10.5799 10.8347 12.1868C10.5243 12.4972 10.1554 12.9201 9.89076 13.2755C9.85202 13.3275 9.8239 13.3866 9.80801 13.4495C9.79213 13.5123 9.78878 13.5777 9.79817 13.6418C9.80756 13.706 9.82949 13.7676 9.86272 13.8233C9.89596 13.879 9.93983 13.9276 9.99184 13.9663C10.0968 14.0444 10.2285 14.0776 10.3579 14.0586C10.4874 14.0397 10.604 13.9701 10.6822 13.8652C10.9061 13.5644 11.2654 13.1513 11.5323 12.8844C12.9616 11.455 14.932 10.5721 17.1152 10.5721C19.2984 10.5721 21.2688 11.455 22.6982 12.8844C23.0666 13.2528 23.386 13.6046 23.7363 14.1698C23.7705 14.2249 23.8152 14.2728 23.8678 14.3106C23.9205 14.3485 23.9801 14.3756 24.0432 14.3904C24.1064 14.4052 24.1718 14.4074 24.2358 14.3969C24.2998 14.3864 24.3611 14.3634 24.4162 14.3292C24.5274 14.2602 24.6066 14.1499 24.6365 14.0225C24.6664 13.8951 24.6445 13.761 24.5755 13.6498C24.1784 13.0092 23.7868 12.5774 23.3962 12.1868C21.7893 10.5799 19.5651 9.58496 17.1152 9.58496Z" fill="#002140" stroke="#002140" stroke-width="0.3"/>
<path d="M12.0604 1.02087C10.4537 1.15152 8.83693 1.84064 7.81708 2.95607C7.57786 3.21759 7.6841 3.63854 8.01879 3.7552C9.17157 4.15683 9.73539 4.89004 10.1024 5.6435C10.286 6.02023 10.4121 6.39915 10.5195 6.73495C10.6259 7.06745 10.6896 7.34209 10.8679 7.61467C11.5239 8.71144 12.6394 9.12567 13.6464 9.11366C14.6579 9.10158 15.5894 8.73792 16.1671 8.20525C16.8223 7.60125 17.107 6.64439 17.1188 5.63894C17.1305 4.64018 16.8572 3.5704 16.0267 2.45298C15.1962 1.33556 13.6101 0.894846 12.0604 1.02087ZM12.1405 2.00486C13.5117 1.89336 14.7608 2.27596 15.3329 3.10239C15.905 3.92882 16.1411 4.81497 16.1316 5.62711C16.1221 6.43924 15.8531 7.15271 15.4983 7.47989C15.1748 7.77812 14.392 8.11789 13.6345 8.12693C12.877 8.13597 12.175 7.89065 11.9246 7.46931C11.6742 7.04796 11.569 6.77727 11.4593 6.43443C11.3497 6.09158 11.2087 5.66151 10.9894 5.21138C10.6347 4.48312 10.0334 3.70852 9.07109 3.17145C9.89112 2.54238 11.0249 2.09559 12.1405 2.00486Z" fill="#002140" stroke="#002140" stroke-width="0.3"/>
<path d="M13.2427 4.5166C13.0138 4.51791 12.8159 4.67646 12.7646 4.89954C12.7035 5.1651 12.8693 5.4299 13.1348 5.49103C15.258 5.97883 16.6578 8.22134 16.6578 9.96886C16.6577 10.2415 16.8788 10.4625 17.1514 10.4625C17.424 10.4625 17.645 10.2415 17.645 9.96886C17.645 7.16595 15.3824 4.64881 13.2427 4.5166Z" fill="#002140" stroke="#002140" stroke-width="0.3"/>
<path d="M22.904 2.61375C21.9827 2.57869 20.8553 2.7459 19.9019 3.42426C18.9765 4.0827 18.3767 4.98714 18.0673 5.8403C17.7579 6.69347 17.6596 7.50294 18.0919 8.11064C18.5243 8.71833 19.3214 8.89053 20.2288 8.87789C21.1363 8.86525 22.1871 8.59513 23.1125 7.9367C24.0659 7.25834 24.5935 6.24769 24.8624 5.36584C25.0317 4.75987 25.2717 3.78808 24.9225 3.25032C24.4414 2.7133 23.5122 2.63954 22.904 2.61375ZM23.8383 3.74345C23.9531 3.77602 24.0403 3.81021 24.0974 3.83725C24.1042 3.90011 24.1084 3.99401 24.1016 4.11319C24.0869 4.36611 24.03 4.71091 23.9181 5.07806C23.6942 5.81236 23.2514 6.62687 22.5407 7.13256C21.802 7.65818 20.9339 7.88069 20.2148 7.89071C19.4957 7.90072 18.9585 7.62593 18.8961 7.53827C18.8338 7.45062 18.7502 6.85287 18.9954 6.1768C19.2406 5.50073 19.7352 4.75401 20.4739 4.22839C21.1846 3.7227 22.0996 3.57082 22.6749 3.59272C23.2502 3.61462 23.5946 3.6743 23.8383 3.74345Z" fill="#002140" stroke="#002140" stroke-width="0.3"/>
<path d="M21.064 5.39651C20.0986 5.59718 18.9582 6.34518 18.3848 6.81263C17.5513 7.50597 16.8376 8.50752 16.6773 9.87025C16.6454 10.1408 16.8388 10.386 17.1094 10.418C17.3801 10.4499 17.6254 10.2562 17.6572 9.98545C17.7852 8.89712 18.3213 8.14954 19.0159 7.57168C19.7105 6.99382 20.5636 6.61326 21.2466 6.35045C21.501 6.25253 21.6278 5.96689 21.5298 5.71252C21.4558 5.52028 21.27 5.39428 21.064 5.39651Z" fill="#002140" stroke="#002140" stroke-width="0.3"/>
</svg>
