<svg width="67" height="85" viewBox="0 0 67 85" fill="none" xmlns="http://www.w3.org/2000/svg">
<line x1="1.31134e-07" y1="1.5" x2="67" y2="1.50001" stroke="url(#paint0_linear_2_91)" stroke-width="3"/>
<rect y="3" width="67" height="82" fill="url(#paint1_linear_2_91)"/>
<path d="M22.3739 42.8406C21.5205 42.8406 20.8203 43.5456 20.8203 44.3993V44.9762C20.8203 45.107 20.8724 45.2325 20.9649 45.325C21.0575 45.4174 21.183 45.4694 21.3138 45.4693C21.4447 45.4694 21.5702 45.4174 21.6627 45.325C21.7553 45.2325 21.8073 45.107 21.8074 44.9762V44.3993C21.8074 44.0729 22.0526 43.8278 22.3739 43.8278H23.8888C24.2102 43.8278 24.4552 44.0729 24.4552 44.3993V54.4414C24.4552 54.7678 24.2102 55.0128 23.8888 55.0128H22.3739C22.0526 55.0128 21.8074 54.7678 21.8074 54.4414V50.6734C21.8075 50.6086 21.7947 50.5444 21.7699 50.4845C21.7451 50.4246 21.7087 50.3702 21.6629 50.3244C21.6171 50.2785 21.5626 50.2422 21.5028 50.2174C21.4429 50.1926 21.3787 50.1798 21.3138 50.1798C21.249 50.1798 21.1848 50.1926 21.1249 50.2174C21.065 50.2422 21.0106 50.2785 20.9648 50.3244C20.9189 50.3702 20.8826 50.4246 20.8578 50.4845C20.833 50.5444 20.8202 50.6086 20.8203 50.6734V54.4414C20.8203 55.2951 21.5205 56 22.3739 56H23.8888C24.7422 56 25.4424 55.2951 25.4424 54.4414V44.3993C25.4424 43.5456 24.7422 42.8406 23.8888 42.8406H22.3739Z" fill="url(#paint2_linear_2_91)"/>
<path d="M50.0537 42.8529C49.4303 42.815 48.704 43.0243 48.2218 43.2658C48.2183 43.2676 37.5486 48.9267 37.5486 48.9267H30.4421C30.1695 48.9267 29.9484 49.1477 29.9485 49.4203C29.9484 49.6929 30.1695 49.914 30.4421 49.9139H37.6716C37.7524 49.9139 37.832 49.894 37.9033 49.8561L48.628 44.1662C49.0638 43.9481 49.6564 43.8178 49.9936 43.8383C50.1532 43.848 50.2562 43.8785 50.3401 43.9289C48.7032 45.7208 46.5272 48.1047 44.2572 50.1047C41.8657 52.2117 39.3791 53.7957 37.6716 53.7957H24.9489C24.6762 53.7956 24.4552 54.0167 24.4553 54.2893C24.4554 54.5617 24.6764 54.7825 24.9489 54.7824H37.6716C39.9359 54.7824 42.4579 53.0053 44.9097 50.8451C47.3615 48.6849 49.7101 46.0859 51.3646 44.2759C51.5095 44.1174 51.5353 43.8834 51.4283 43.6971C51.1715 43.2502 50.6771 42.8909 50.0537 42.8529Z" fill="url(#paint3_linear_2_91)"/>
<path d="M20.7715 46.8399C20.7715 46.6954 20.8289 46.5568 20.9311 46.4545C21.0333 46.3523 21.1719 46.2949 21.3165 46.2949C21.388 46.2949 21.4589 46.309 21.525 46.3364C21.5911 46.3638 21.6512 46.4039 21.7018 46.4545C21.7524 46.5051 21.7926 46.5652 21.82 46.6313C21.8474 46.6975 21.8615 46.7683 21.8615 46.8399C21.8615 46.9115 21.8474 46.9823 21.82 47.0485C21.7926 47.1146 21.7524 47.1747 21.7018 47.2253C21.6512 47.2759 21.5911 47.316 21.525 47.3434C21.4589 47.3708 21.388 47.3849 21.3165 47.3849C21.1719 47.3849 21.0333 47.3275 20.9311 47.2253C20.8289 47.1231 20.7715 46.9844 20.7715 46.8399Z" fill="url(#paint4_linear_2_91)"/>
<path d="M20.7715 48.7967C20.7715 48.6522 20.8289 48.5135 20.9311 48.4113C21.0333 48.3091 21.1719 48.2517 21.3165 48.2517C21.388 48.2517 21.4589 48.2658 21.525 48.2932C21.5911 48.3206 21.6512 48.3607 21.7018 48.4113C21.7524 48.4619 21.7926 48.522 21.82 48.5881C21.8474 48.6543 21.8615 48.7251 21.8615 48.7967C21.8615 48.8683 21.8474 48.9391 21.82 49.0053C21.7926 49.0714 21.7524 49.1315 21.7018 49.1821C21.6512 49.2327 21.5911 49.2728 21.525 49.3002C21.4589 49.3276 21.388 49.3417 21.3165 49.3417C21.1719 49.3417 21.0333 49.2843 20.9311 49.1821C20.8289 49.0798 20.7715 48.9412 20.7715 48.7967Z" fill="url(#paint5_linear_2_91)"/>
<path d="M25.0463 44.8729C24.7737 44.8728 24.5527 45.0938 24.5527 45.3665C24.5527 45.6391 24.7737 45.8601 25.0463 45.86C27.8409 45.86 34.7319 46.0453 35.4298 46.0854C36.1277 46.1255 37.1579 46.2889 37.9339 46.6196C38.7102 46.9504 39.2537 47.4296 39.7325 48.2588C39.8687 48.495 40.1707 48.576 40.4068 48.4396C40.6429 48.3032 40.7236 48.0012 40.5871 47.7652C40.0225 46.7873 39.2743 46.1179 38.3209 45.7116C37.3675 45.3053 36.2308 45.1428 35.513 45.1014C35.5079 45.1012 27.8888 44.8729 25.0463 44.8729Z" fill="url(#paint6_linear_2_91)"/>
<path d="M37.1152 39.585C34.6653 39.585 32.4415 40.58 30.8347 42.1868C30.5243 42.4972 30.1554 42.9201 29.8908 43.2755C29.852 43.3275 29.8239 43.3866 29.808 43.4495C29.7921 43.5123 29.7888 43.5777 29.7982 43.6419C29.8076 43.706 29.8295 43.7677 29.8627 43.8233C29.896 43.879 29.9398 43.9276 29.9918 43.9663C30.0968 44.0444 30.2285 44.0776 30.3579 44.0587C30.4874 44.0397 30.604 43.9701 30.6822 43.8652C30.9061 43.5644 31.2654 43.1513 31.5323 42.8844C32.9616 41.455 34.932 40.5722 37.1152 40.5722C39.2984 40.5722 41.2688 41.455 42.6982 42.8844C43.0666 43.2528 43.386 43.6046 43.7363 44.1698C43.7705 44.225 43.8152 44.2728 43.8678 44.3107C43.9205 44.3485 43.9801 44.3756 44.0432 44.3904C44.1064 44.4052 44.1718 44.4074 44.2358 44.3969C44.2998 44.3864 44.3611 44.3634 44.4162 44.3292C44.5274 44.2602 44.6066 44.1499 44.6365 44.0225C44.6664 43.8951 44.6445 43.7611 44.5755 43.6498C44.1784 43.0092 43.7868 42.5774 43.3962 42.1868C41.7893 40.58 39.5651 39.585 37.1152 39.585Z" fill="url(#paint7_linear_2_91)"/>
<path d="M32.0604 31.0209C30.4537 31.1515 28.8369 31.8406 27.8171 32.9561C27.5779 33.2176 27.6841 33.6385 28.0188 33.7552C29.1716 34.1568 29.7354 34.89 30.1024 35.6435C30.286 36.0202 30.4121 36.3992 30.5195 36.735C30.6259 37.0675 30.6896 37.3421 30.8679 37.6147C31.5239 38.7114 32.6394 39.1257 33.6464 39.1137C34.6579 39.1016 35.5894 38.7379 36.1671 38.2052C36.8223 37.6012 37.107 36.6444 37.1188 35.6389C37.1305 34.6402 36.8572 33.5704 36.0267 32.453C35.1962 31.3356 33.6101 30.8948 32.0604 31.0209ZM32.1405 32.0049C33.5117 31.8934 34.7608 32.276 35.3329 33.1024C35.905 33.9288 36.1411 34.815 36.1316 35.6271C36.1221 36.4392 35.8531 37.1527 35.4982 37.4799C35.1748 37.7781 34.392 38.1179 33.6345 38.1269C32.877 38.136 32.175 37.8907 31.9246 37.4693C31.6742 37.048 31.569 36.7773 31.4593 36.4344C31.3497 36.0916 31.2087 35.6615 30.9894 35.2114C30.6347 34.4831 30.0334 33.7085 29.0711 33.1714C29.8911 32.5424 31.0249 32.0956 32.1405 32.0049Z" fill="url(#paint8_linear_2_91)"/>
<path d="M33.2427 34.5166C33.0138 34.5179 32.8159 34.6765 32.7646 34.8995C32.7035 35.1651 32.8693 35.4299 33.1348 35.491C35.258 35.9788 36.6578 38.2213 36.6578 39.9689C36.6577 40.2415 36.8788 40.4625 37.1514 40.4625C37.424 40.4625 37.645 40.2415 37.645 39.9689C37.645 37.166 35.3824 34.6488 33.2427 34.5166Z" fill="url(#paint9_linear_2_91)"/>
<path d="M42.904 32.6137C41.9827 32.5786 40.8553 32.7458 39.9019 33.4242C38.9765 34.0826 38.3767 34.987 38.0673 35.8402C37.7579 36.6934 37.6596 37.5028 38.0919 38.1105C38.5243 38.7182 39.3214 38.8904 40.2288 38.8778C41.1363 38.8652 42.1871 38.595 43.1125 37.9366C44.0659 37.2582 44.5935 36.2476 44.8624 35.3657C45.0317 34.7598 45.2717 33.788 44.9225 33.2502C44.4414 32.7132 43.5122 32.6395 42.904 32.6137ZM43.8383 33.7434C43.9531 33.7759 44.0403 33.8101 44.0974 33.8372C44.1042 33.9 44.1084 33.9939 44.1016 34.1131C44.0869 34.366 44.03 34.7108 43.9181 35.078C43.6942 35.8123 43.2514 36.6268 42.5407 37.1325C41.802 37.6581 40.9339 37.8806 40.2148 37.8906C39.4957 37.9006 38.9585 37.6258 38.8961 37.5382C38.8338 37.4505 38.7502 36.8528 38.9954 36.1767C39.2406 35.5006 39.7352 34.7539 40.4739 34.2283C41.1846 33.7226 42.0996 33.5707 42.6749 33.5926C43.2502 33.6145 43.5946 33.6742 43.8383 33.7434Z" fill="url(#paint10_linear_2_91)"/>
<path d="M41.0639 35.3967C40.0985 35.5973 38.958 36.3453 38.3847 36.8128C37.5512 37.5061 36.8375 38.5077 36.6771 39.8704C36.6453 40.141 36.8387 40.3862 37.1093 40.4182C37.38 40.45 37.6253 40.2563 37.657 39.9856C37.7851 38.8973 38.3211 38.1497 39.0158 37.5718C39.7104 36.994 40.5635 36.6134 41.2465 36.3506C41.5009 36.2527 41.6277 35.967 41.5297 35.7127C41.4556 35.5204 41.2699 35.3944 41.0639 35.3967Z" fill="url(#paint11_linear_2_91)"/>
<defs>
<linearGradient id="paint0_linear_2_91" x1="33.5" y1="3" x2="33.5" y2="4" gradientUnits="userSpaceOnUse">
<stop stop-color="#ADB815"/>
<stop offset="1" stop-color="#18392A"/>
</linearGradient>
<linearGradient id="paint1_linear_2_91" x1="33.5" y1="3" x2="33.5" y2="85" gradientUnits="userSpaceOnUse">
<stop stop-color="#DCE8D6"/>
<stop offset="1" stop-color="#DCE8D6" stop-opacity="0"/>
</linearGradient>
<linearGradient id="paint2_linear_2_91" x1="23.1313" y1="42.8406" x2="23.1313" y2="56" gradientUnits="userSpaceOnUse">
<stop stop-color="#ADB815"/>
<stop offset="1" stop-color="#18392A"/>
</linearGradient>
<linearGradient id="paint3_linear_2_91" x1="37.9746" y1="42.8484" x2="37.9746" y2="54.7824" gradientUnits="userSpaceOnUse">
<stop stop-color="#ADB815"/>
<stop offset="1" stop-color="#18392A"/>
</linearGradient>
<linearGradient id="paint4_linear_2_91" x1="21.3165" y1="46.2949" x2="21.3165" y2="47.3849" gradientUnits="userSpaceOnUse">
<stop stop-color="#ADB815"/>
<stop offset="1" stop-color="#18392A"/>
</linearGradient>
<linearGradient id="paint5_linear_2_91" x1="21.3165" y1="48.2517" x2="21.3165" y2="49.3417" gradientUnits="userSpaceOnUse">
<stop stop-color="#ADB815"/>
<stop offset="1" stop-color="#18392A"/>
</linearGradient>
<linearGradient id="paint6_linear_2_91" x1="32.6031" y1="44.8729" x2="32.6031" y2="48.5058" gradientUnits="userSpaceOnUse">
<stop stop-color="#ADB815"/>
<stop offset="1" stop-color="#18392A"/>
</linearGradient>
<linearGradient id="paint7_linear_2_91" x1="37.2213" y1="39.585" x2="37.2213" y2="44.4034" gradientUnits="userSpaceOnUse">
<stop stop-color="#ADB815"/>
<stop offset="1" stop-color="#18392A"/>
</linearGradient>
<linearGradient id="paint8_linear_2_91" x1="32.4033" y1="31" x2="32.4033" y2="39.1139" gradientUnits="userSpaceOnUse">
<stop stop-color="#ADB815"/>
<stop offset="1" stop-color="#18392A"/>
</linearGradient>
<linearGradient id="paint9_linear_2_91" x1="35.1985" y1="34.5166" x2="35.1985" y2="40.4625" gradientUnits="userSpaceOnUse">
<stop stop-color="#ADB815"/>
<stop offset="1" stop-color="#18392A"/>
</linearGradient>
<linearGradient id="paint10_linear_2_91" x1="41.4512" y1="32.6093" x2="41.4512" y2="38.8784" gradientUnits="userSpaceOnUse">
<stop stop-color="#ADB815"/>
<stop offset="1" stop-color="#18392A"/>
</linearGradient>
<linearGradient id="paint11_linear_2_91" x1="39.1183" y1="35.3966" x2="39.1183" y2="40.4216" gradientUnits="userSpaceOnUse">
<stop stop-color="#ADB815"/>
<stop offset="1" stop-color="#18392A"/>
</linearGradient>
</defs>
</svg>
