<svg width="46" height="46" viewBox="0 0 46 46" fill="none" xmlns="http://www.w3.org/2000/svg">
<circle cx="22.6756" cy="23.1541" r="22.6756" fill="#EAF6E4"/>
<path d="M20.5479 13.5591H24.4521V16.6806C24.8605 16.7995 25.2523 16.9574 25.6233 17.1499L27.8372 14.9613L30.5978 17.7219L28.4092 19.9358C28.6017 20.3068 28.7596 20.6986 28.8785 21.107L32 21.107V25.0111L28.7967 25.0111C28.6744 25.3735 28.521 25.7216 28.3398 26.0522L30.5978 28.3963L27.8372 31.1569L25.4932 28.7737C25.1611 28.9367 24.813 29.0722 24.4521 29.1773V32.5591H20.5479V29.0955C20.2328 28.9891 19.9284 28.8593 19.637 28.708L17.1628 31.1569L14.4022 28.3963L16.8511 25.9221C16.6998 25.6306 16.5699 25.3263 16.4636 25.0111L13 25.0111V21.107L16.3818 21.107C16.4841 20.7556 16.6153 20.4164 16.7725 20.0922L14.4022 17.7219L17.1628 14.9613L19.4515 17.25C19.7986 17.0553 20.1653 16.8915 20.5479 16.7624V13.5591Z" fill="#EAF6E4"/>
<path d="M25.1964 22.4851C25.4977 23.9907 24.5241 25.4214 23.0217 25.6807C21.5193 25.9399 20.0571 24.9296 19.7558 23.424C19.4545 21.9184 20.4282 20.4877 21.9306 20.2284C23.433 19.9691 24.8951 20.9795 25.1964 22.4851Z" fill="#EAF6E4"/>
<path d="M20.5479 13.5591V12.7611C20.1072 12.7611 19.7499 13.1184 19.7499 13.5591H20.5479ZM24.4521 13.5591H25.2501C25.2501 13.1184 24.8928 12.7611 24.4521 12.7611V13.5591ZM24.4521 32.5591V33.3571C24.8928 33.3571 25.2501 32.9998 25.2501 32.5591H24.4521ZM20.5479 32.5591H19.7499C19.7499 32.9998 20.1072 33.3571 20.5479 33.3571V32.5591ZM32 21.107H32.798C32.798 20.6663 32.4407 20.309 32 20.309L32 21.107ZM32 25.0111L32 25.8091C32.2116 25.8091 32.4146 25.7251 32.5643 25.5754C32.7139 25.4258 32.798 25.2228 32.798 25.0111H32ZM13 25.0111H12.202C12.202 25.4519 12.5593 25.8091 13 25.8091L13 25.0111ZM13 21.107L13 20.309C12.7884 20.309 12.5854 20.3931 12.4357 20.5428C12.2861 20.6924 12.202 20.8954 12.202 21.107H13ZM27.8372 14.9613L28.4015 14.397C28.0911 14.0866 27.5883 14.0852 27.2762 14.3938L27.8372 14.9613ZM30.5978 17.7219L31.1653 18.2829C31.4739 17.9707 31.4725 17.468 31.1621 17.1576L30.5978 17.7219ZM17.1628 31.1569L16.5985 31.7212C16.909 32.0317 17.4121 32.033 17.7242 31.7241L17.1628 31.1569ZM14.4022 28.3963L13.835 27.8349C13.5261 28.147 13.5274 28.65 13.8379 28.9606L14.4022 28.3963ZM30.5978 28.3963L31.1621 28.9606C31.4696 28.653 31.4743 28.1559 31.1725 27.8427L30.5978 28.3963ZM27.8372 31.1569L27.2683 31.7165C27.4175 31.8682 27.6211 31.954 27.8339 31.9549C28.0467 31.9558 28.251 31.8716 28.4015 31.7212L27.8372 31.1569ZM14.4022 17.7219L13.8379 17.1576C13.6883 17.3073 13.6042 17.5102 13.6042 17.7219C13.6042 17.9335 13.6883 18.1365 13.8379 18.2861L14.4022 17.7219ZM17.1628 14.9613L17.7271 14.397C17.4154 14.0853 16.9102 14.0853 16.5985 14.397L17.1628 14.9613ZM28.7967 25.0111L28.7967 24.2131L28.2238 24.2131L28.0406 24.7559L28.7967 25.0111ZM28.3398 26.0522L27.64 25.6686L27.3579 26.1832L27.7651 26.6059L28.3398 26.0522ZM25.4932 28.7737L26.0621 28.2141L25.6584 27.8037L25.1416 28.0573L25.4932 28.7737ZM24.4521 29.1773L24.229 28.4111L23.6541 28.5785V29.1773H24.4521ZM20.5479 29.0955H21.3459V28.5226L20.8032 28.3394L20.5479 29.0955ZM19.637 28.708L20.0046 27.9997L19.4887 27.732L19.0756 28.1409L19.637 28.708ZM16.8511 25.9221L17.4182 26.4835L17.8271 26.0704L17.5594 25.5545L16.8511 25.9221ZM16.4636 25.0111L17.2197 24.7559L17.0364 24.2131L16.4636 24.2131L16.4636 25.0111ZM16.3818 21.107L16.3818 21.905L16.9806 21.905L17.148 21.3301L16.3818 21.107ZM16.7725 20.0922L17.4905 20.4406L17.7384 19.9296L17.3368 19.528L16.7725 20.0922ZM19.4515 17.25L18.8873 17.8143L19.3147 18.2417L19.8419 17.946L19.4515 17.25ZM20.5479 16.7624L20.8032 17.5185L21.3459 17.3353V16.7624H20.5479ZM24.4521 16.6806H23.6541V17.2794L24.229 17.4468L24.4521 16.6806ZM25.6233 17.1499L25.2557 17.8582L25.7712 18.1257L26.1843 17.7174L25.6233 17.1499ZM28.4092 19.9358L27.8417 19.3748L27.4334 19.7878L27.7009 20.3034L28.4092 19.9358ZM28.8785 21.107L28.1123 21.3301L28.2796 21.905L28.8785 21.905L28.8785 21.107ZM20.5479 14.3571H24.4521V12.7611H20.5479V14.3571ZM24.4521 31.7611H20.5479V33.3571H24.4521V31.7611ZM31.202 21.107V25.0111H32.798V21.107H31.202ZM13.798 25.0111V21.107H12.202V25.0111H13.798ZM27.2729 15.5255L30.0336 18.2862L31.1621 17.1576L28.4015 14.397L27.2729 15.5255ZM17.7271 30.5926L14.9664 27.832L13.8379 28.9606L16.5985 31.7212L17.7271 30.5926ZM30.0336 27.832L27.2729 30.5926L28.4015 31.7212L31.1621 28.9606L30.0336 27.832ZM14.9664 18.2861L17.7271 15.5255L16.5985 14.397L13.8379 17.1576L14.9664 18.2861ZM28.0406 24.7559C27.9334 25.0735 27.799 25.3787 27.64 25.6686L29.0395 26.4358C29.2431 26.0646 29.4154 25.6735 29.5528 25.2663L28.0406 24.7559ZM25.1416 28.0573C24.8504 28.2002 24.5454 28.319 24.229 28.4111L24.6751 29.9435C25.0807 29.8254 25.4717 29.6732 25.8447 29.4901L25.1416 28.0573ZM20.8032 28.3394C20.527 28.2462 20.2602 28.1324 20.0046 27.9997L19.2694 29.4163C19.5967 29.5862 19.9386 29.7321 20.2927 29.8516L20.8032 28.3394ZM17.5594 25.5545C17.4267 25.2989 17.3129 25.0321 17.2197 24.7559L15.7075 25.2663C15.827 25.6205 15.9729 25.9624 16.1428 26.2897L17.5594 25.5545ZM17.148 21.3301C17.2377 21.0221 17.3526 20.7248 17.4905 20.4406L16.0546 19.7439C15.8779 20.108 15.7306 20.4891 15.6156 20.884L17.148 21.3301ZM19.8419 17.946C20.1463 17.7752 20.4678 17.6317 20.8032 17.5185L20.2927 16.0063C19.8628 16.1514 19.4508 16.3354 19.0611 16.554L19.8419 17.946ZM24.229 17.4468C24.5869 17.551 24.9304 17.6893 25.2557 17.8582L25.9909 16.4416C25.5743 16.2254 25.1341 16.048 24.6751 15.9144L24.229 17.4468ZM27.7009 20.3034C27.8697 20.6287 28.0081 20.9722 28.1123 21.3301L29.6447 20.884C29.5111 20.425 29.3337 19.9848 29.1175 19.5682L27.7009 20.3034ZM21.3459 16.7624V13.5591H19.7499V16.7624H21.3459ZM23.6541 13.5591V16.6806H25.2501V13.5591H23.6541ZM16.5985 15.5255L18.8873 17.8143L20.0158 16.6857L17.7271 14.397L16.5985 15.5255ZM17.3368 19.528L14.9664 17.1576L13.8379 18.2861L16.2083 20.6565L17.3368 19.528ZM26.1843 17.7174L28.3982 15.5288L27.2762 14.3938L25.0623 16.5824L26.1843 17.7174ZM30.0303 17.1609L27.8417 19.3748L28.9767 20.4968L31.1653 18.2829L30.0303 17.1609ZM28.8785 21.905L32 21.905L32 20.309L28.8785 20.309L28.8785 21.905ZM32 24.2131L28.7967 24.2131L28.7967 25.8091L32 25.8091L32 24.2131ZM27.7651 26.6059L30.0231 28.9499L31.1725 27.8427L28.9145 25.4986L27.7651 26.6059ZM28.4061 30.5973L26.0621 28.2141L24.9242 29.3333L27.2683 31.7165L28.4061 30.5973ZM23.6541 29.1773V32.5591H25.2501V29.1773H23.6541ZM21.3459 32.5591V29.0955H19.7499V32.5591H21.3459ZM19.0756 28.1409L16.6014 30.5897L17.7242 31.7241L20.1984 29.2752L19.0756 28.1409ZM14.9693 28.9576L17.4182 26.4835L16.2839 25.3607L13.835 27.8349L14.9693 28.9576ZM16.4636 24.2131L13 24.2131L13 25.8091L16.4636 25.8091L16.4636 24.2131ZM13 21.905L16.3818 21.905L16.3818 20.309L13 20.309L13 21.905ZM24.414 22.6417C24.6282 23.7124 23.9404 24.7123 22.886 24.8943L23.1574 26.467C25.1077 26.1305 26.3672 24.2689 25.9789 22.3285L24.414 22.6417ZM22.886 24.8943C21.8148 25.0792 20.7558 24.354 20.5383 23.2674L18.9734 23.5806C19.3585 25.5052 21.2238 26.8007 23.1574 26.467L22.886 24.8943ZM20.5383 23.2674C20.3241 22.1967 21.0119 21.1968 22.0663 21.0148L21.7949 19.4421C19.8445 19.7786 18.585 21.6402 18.9734 23.5806L20.5383 23.2674ZM22.0663 21.0148C23.1375 20.8299 24.1965 21.5551 24.414 22.6417L25.9789 22.3285C25.5938 20.4039 23.7285 19.1084 21.7949 19.4421L22.0663 21.0148Z" fill="url(#paint0_linear_47_106)"/>
<defs>
<linearGradient id="paint0_linear_47_106" x1="22.5" y1="13.5591" x2="22.5" y2="32.5591" gradientUnits="userSpaceOnUse">
<stop stop-color="#ADB815"/>
<stop offset="1" stop-color="#18392A"/>
</linearGradient>
</defs>
</svg>
