<svg width="24" height="24" viewBox="0 0 24 24" fill="none" xmlns="http://www.w3.org/2000/svg">
<path d="M10.2 4C6.95554 4.00622 5.25777 4.08533 4.17155 5.17156C3 6.34311 3 8.22844 3 12C3 15.7716 3 17.6569 4.17155 18.8284C5.3431 20 7.22932 20 11 20C14.7706 20 16.6568 20 17.8293 18.8284C18.9137 17.7431 18.9937 16.0436 18.9999 12.8" stroke="#002140" stroke-width="1.5" stroke-linecap="round" stroke-linejoin="round"/>
<path d="M18.9982 6.68889L18.1093 6.68711C14.7876 6.67822 13.1271 6.67378 11.96 7.51378C11.5716 7.792 11.2311 8.13156 10.9511 8.51822C10.1094 9.68533 10.1094 11.3458 10.1094 14.6667M18.9982 6.68889C19.0002 6.53459 18.9448 6.38506 18.8427 6.26933C18.1627 5.464 16.3947 4 16.3947 4M18.9982 6.68889C18.99 6.8277 18.9356 6.95976 18.8436 7.064C18.1627 7.86933 16.3938 9.33333 16.3938 9.33333" stroke="#002140" stroke-width="1.5" stroke-linecap="round" stroke-linejoin="round"/>
</svg>
