<svg width="82" height="24" viewBox="0 0 82 24" fill="none" xmlns="http://www.w3.org/2000/svg">
<path d="M7.44755 15.5269L10.2825 17.3269C10.6482 17.5575 11.0982 17.2144 10.9913 16.7925L10.17 13.5638C10.1478 13.4743 10.1514 13.3803 10.1802 13.2927C10.2091 13.2052 10.2621 13.1275 10.3332 13.0688L12.8757 10.9481C13.2075 10.6725 13.0388 10.1156 12.6057 10.0875L9.28692 9.87376C9.19637 9.8685 9.10931 9.83696 9.03639 9.78302C8.96347 9.72908 8.90784 9.65506 8.8763 9.57001L7.6388 6.45376C7.60604 6.36371 7.54636 6.28592 7.46787 6.23094C7.38938 6.17597 7.29587 6.14648 7.20005 6.14648C7.10422 6.14648 7.01071 6.17597 6.93222 6.23094C6.85373 6.28592 6.79405 6.36371 6.7613 6.45376L5.5238 9.57001C5.49226 9.65506 5.43663 9.72908 5.3637 9.78302C5.29078 9.83696 5.20372 9.8685 5.11317 9.87376L1.79442 10.0875C1.3613 10.1156 1.19255 10.6725 1.52442 10.9481L4.06692 13.0688C4.13799 13.1275 4.191 13.2052 4.21986 13.2927C4.24872 13.3803 4.25225 13.4743 4.23005 13.5638L3.47067 16.5563C3.3413 17.0625 3.8813 17.4731 4.31442 17.1975L6.95255 15.5269C7.02653 15.4798 7.11238 15.4549 7.20005 15.4549C7.28771 15.4549 7.37357 15.4798 7.44755 15.5269Z" fill="#EDD523"/>
<path d="M24.2474 15.5269L27.0824 17.3269C27.448 17.5575 27.898 17.2144 27.7911 16.7925L26.9699 13.5638C26.9476 13.4743 26.9512 13.3803 26.98 13.2927C27.0089 13.2052 27.0619 13.1275 27.133 13.0688L29.6755 10.9481C30.0074 10.6725 29.8386 10.1156 29.4055 10.0875L26.0867 9.87376C25.9962 9.8685 25.9091 9.83696 25.8362 9.78302C25.7633 9.72908 25.7076 9.65506 25.6761 9.57001L24.4386 6.45376C24.4058 6.36371 24.3462 6.28592 24.2677 6.23094C24.1892 6.17597 24.0957 6.14648 23.9999 6.14648C23.904 6.14648 23.8105 6.17597 23.732 6.23094C23.6535 6.28592 23.5939 6.36371 23.5611 6.45376L22.3236 9.57001C22.2921 9.65506 22.2364 9.72908 22.1635 9.78302C22.0906 9.83696 22.0035 9.8685 21.913 9.87376L18.5942 10.0875C18.1611 10.1156 17.9924 10.6725 18.3242 10.9481L20.8667 13.0688C20.9378 13.1275 20.9908 13.2052 21.0197 13.2927C21.0485 13.3803 21.0521 13.4743 21.0299 13.5638L20.2705 16.5563C20.1411 17.0625 20.6811 17.4731 21.1142 17.1975L23.7524 15.5269C23.8263 15.4798 23.9122 15.4549 23.9999 15.4549C24.0875 15.4549 24.1734 15.4798 24.2474 15.5269Z" fill="#EDD523"/>
<path d="M41.0472 15.5269L43.8822 17.3269C44.2478 17.5575 44.6978 17.2144 44.5909 16.7925L43.7697 13.5638C43.7474 13.4743 43.751 13.3803 43.7798 13.2927C43.8087 13.2052 43.8617 13.1275 43.9328 13.0688L46.4753 10.9481C46.8072 10.6725 46.6384 10.1156 46.2053 10.0875L42.8865 9.87376C42.796 9.8685 42.7089 9.83696 42.636 9.78302C42.5631 9.72908 42.5074 9.65506 42.4759 9.57001L41.2384 6.45376C41.2056 6.36371 41.146 6.28592 41.0675 6.23094C40.989 6.17597 40.8955 6.14648 40.7997 6.14648C40.7038 6.14648 40.6103 6.17597 40.5318 6.23094C40.4533 6.28592 40.3937 6.36371 40.3609 6.45376L39.1234 9.57001C39.0919 9.65506 39.0362 9.72908 38.9633 9.78302C38.8904 9.83696 38.8033 9.8685 38.7128 9.87376L35.394 10.0875C34.9609 10.1156 34.7922 10.6725 35.124 10.9481L37.6665 13.0688C37.7376 13.1275 37.7906 13.2052 37.8195 13.2927C37.8483 13.3803 37.8519 13.4743 37.8297 13.5638L37.0703 16.5563C36.9409 17.0625 37.4809 17.4731 37.914 17.1975L40.5522 15.5269C40.6261 15.4798 40.712 15.4549 40.7997 15.4549C40.8873 15.4549 40.9732 15.4798 41.0472 15.5269Z" fill="#EDD523"/>
<path d="M57.8479 15.5269L60.6829 17.3269C61.0486 17.5575 61.4986 17.2144 61.3917 16.7925L60.5704 13.5638C60.5482 13.4743 60.5518 13.3803 60.5806 13.2927C60.6095 13.2052 60.6625 13.1275 60.7336 13.0688L63.2761 10.9481C63.6079 10.6725 63.4392 10.1156 63.0061 10.0875L59.6873 9.87376C59.5968 9.8685 59.5097 9.83696 59.4368 9.78302C59.3639 9.72908 59.3082 9.65506 59.2767 9.57001L58.0392 6.45376C58.0064 6.36371 57.9468 6.28592 57.8683 6.23094C57.7898 6.17597 57.6963 6.14648 57.6004 6.14648C57.5046 6.14648 57.4111 6.17597 57.3326 6.23094C57.2541 6.28592 57.1944 6.36371 57.1617 6.45376L55.9242 9.57001C55.8926 9.65506 55.837 9.72908 55.7641 9.78302C55.6912 9.83696 55.6041 9.8685 55.5136 9.87376L52.1948 10.0875C51.7617 10.1156 51.5929 10.6725 51.9248 10.9481L54.4673 13.0688C54.5384 13.1275 54.5914 13.2052 54.6203 13.2927C54.6491 13.3803 54.6526 13.4743 54.6304 13.5638L53.8711 16.5563C53.7417 17.0625 54.2817 17.4731 54.7148 17.1975L57.3529 15.5269C57.4269 15.4798 57.5128 15.4549 57.6004 15.4549C57.6881 15.4549 57.774 15.4798 57.8479 15.5269Z" fill="#EDD523"/>
<path d="M74.6477 15.5269L77.4827 17.3269C77.8484 17.5575 78.2984 17.2144 78.1915 16.7925L77.3702 13.5638C77.348 13.4743 77.3516 13.3803 77.3804 13.2927C77.4093 13.2052 77.4623 13.1275 77.5334 13.0688L80.0759 10.9481C80.4077 10.6725 80.239 10.1156 79.8059 10.0875L76.4871 9.87376C76.3966 9.8685 76.3095 9.83696 76.2366 9.78302C76.1637 9.72908 76.108 9.65506 76.0765 9.57001L74.839 6.45376C74.8062 6.36371 74.7466 6.28592 74.6681 6.23094C74.5896 6.17597 74.4961 6.14648 74.4002 6.14648C74.3044 6.14648 74.2109 6.17597 74.1324 6.23094C74.0539 6.28592 73.9942 6.36371 73.9615 6.45376L72.724 9.57001C72.6925 9.65506 72.6368 9.72908 72.5639 9.78302C72.491 9.83696 72.4039 9.8685 72.3134 9.87376L68.9946 10.0875C68.5615 10.1156 68.3927 10.6725 68.7246 10.9481L71.2671 13.0688C71.3382 13.1275 71.3912 13.2052 71.4201 13.2927C71.4489 13.3803 71.4524 13.4743 71.4302 13.5638L70.6709 16.5563C70.5415 17.0625 71.0815 17.4731 71.5146 17.1975L74.1527 15.5269C74.2267 15.4798 74.3126 15.4549 74.4002 15.4549C74.4879 15.4549 74.5738 15.4798 74.6477 15.5269Z" fill="#EDD523"/>
</svg>
