<svg width="70" height="75" viewBox="0 0 70 75" fill="none" xmlns="http://www.w3.org/2000/svg">
<path fill-rule="evenodd" clip-rule="evenodd" d="M19.5493 15.1978C18.7712 14.3434 18.3511 13.2 18.3859 12.023C18.4182 10.8486 18.903 9.73356 19.7283 8.92822C19.9694 8.70882 20.3274 8.70882 20.5685 8.92822C21.3987 9.72834 21.8859 10.8408 21.9257 12.0178C21.9655 13.1922 21.5528 14.3382 20.7773 15.1978V17.9596C21.7915 16.2612 23.7776 15.4791 25.6221 16.0496C25.9278 16.1554 26.1118 16.4806 26.0472 16.811C25.7787 17.975 25.0677 18.9791 24.0759 19.5908C23.0816 20.2025 21.8934 20.3703 20.7772 20.0554V22.2881H19.5492V20.0218C18.4356 20.3393 17.2449 20.1715 16.2531 19.5598C15.2588 18.9481 14.5478 17.9441 14.2818 16.7774C14.2147 16.4496 14.3962 16.1244 14.7019 16.016C16.5463 15.4482 18.5325 16.2302 19.5492 17.926L19.5493 15.1978ZM6.14808 70.537H8.20386C8.37289 70.537 8.53447 70.4673 8.65378 70.3434C8.7731 70.2195 8.84022 70.0517 8.84022 69.8762V23.0338C8.84022 22.8583 8.7731 22.6905 8.65378 22.5666C8.53447 22.4427 8.37289 22.373 8.20386 22.373H6.14808C5.79759 22.373 5.51172 22.6699 5.51172 23.0338V69.902C5.51172 70.0775 5.57884 70.2453 5.69815 70.3692C5.81747 70.4931 5.97905 70.5628 6.14808 70.5628V70.537ZM63.8535 70.537H61.7978C61.4473 70.537 61.1614 70.2402 61.1614 69.8762V23.0338C61.1614 22.6699 61.4473 22.373 61.7978 22.373H63.8535C64.0226 22.373 64.1841 22.4427 64.3035 22.5666C64.4228 22.6905 64.4899 22.8583 64.4899 23.0338V69.902C64.4899 70.0775 64.4228 70.2453 64.3035 70.3692C64.1841 70.4931 64.0226 70.5628 63.8535 70.5628V70.537ZM14.1847 56.39C14.9975 56.4003 15.7383 56.8856 16.0963 57.6444C16.4542 58.4006 16.3697 59.304 15.88 59.9803C15.3903 60.654 14.5775 60.9844 13.777 60.8347C12.9766 60.685 12.3254 60.081 12.0917 59.2705H10.0484V57.9954H12.0917C12.3651 57.0456 13.2053 56.3926 14.1599 56.39H14.1847ZM55.8169 56.39C55.0041 56.4003 54.2633 56.8856 53.9053 57.6444C53.5474 58.4006 53.6319 59.304 54.1216 59.9803C54.6113 60.654 55.4242 60.9844 56.2246 60.8347C57.025 60.685 57.6763 60.081 57.9099 59.2705H59.9781V57.9954H57.9099C57.6365 57.0456 56.7963 56.3926 55.8417 56.39H55.8169ZM15.4129 54.547C15.0003 54.5522 14.615 54.7664 14.3838 55.1226C16.1039 55.311 17.409 56.821 17.409 58.6175C17.409 60.414 16.1039 61.9213 14.3838 62.1123C14.61 62.4763 14.9978 62.6931 15.4129 62.6931H54.5887C55.0038 62.6931 55.3916 62.4763 55.6178 62.1123C53.833 61.9988 52.441 60.4604 52.441 58.6046C52.441 56.7462 53.833 55.2079 55.6178 55.0943C55.3867 54.7407 55.0014 54.5264 54.5887 54.5213L15.4129 54.547ZM19.5493 46.1738C17.9509 44.3954 18.0379 41.6078 19.7407 39.9378C19.9818 39.7184 20.3397 39.7184 20.5809 39.9378C22.2836 41.6078 22.3706 44.3903 20.7772 46.1738V48.9433C21.1451 48.3187 21.6597 47.7999 22.2737 47.436C23.2904 46.8269 24.5035 46.6772 25.627 47.0282C25.9353 47.1314 26.1192 47.4566 26.0546 47.787C25.7811 48.9718 25.0528 49.9861 24.0361 50.5953C23.0517 51.1889 21.8809 51.3464 20.7847 51.0315V53.2719H19.5492V51.0315C18.4356 51.3489 17.2449 51.1812 16.2531 50.5695C15.2587 49.9577 14.5478 48.9537 14.2818 47.787C14.2147 47.4592 14.3961 47.134 14.7019 47.0282C16.5488 46.4552 18.535 47.2399 19.5492 48.9434L19.5493 46.1738ZM50.4504 46.1738V48.9433H50.4529C51.4672 47.2398 53.4533 46.4552 55.3002 47.0282C55.606 47.134 55.7874 47.4592 55.7203 47.787C55.4544 48.9536 54.7434 49.9577 53.7491 50.5694C52.7572 51.1811 51.5665 51.3489 50.4529 51.0314V53.2718H49.2249V51.0314C48.1286 51.3463 46.9554 51.1889 45.971 50.5952C44.9568 49.9861 44.2284 48.9717 43.955 47.787C43.8904 47.4566 44.0743 47.1314 44.3801 47.0281C45.5061 46.6771 46.7192 46.8268 47.7359 47.436C48.3449 47.7999 48.8569 48.3187 49.2248 48.9433V46.1738C47.6314 44.3902 47.7184 41.6077 49.4212 39.9378C49.6623 39.7184 50.0203 39.7184 50.2614 39.9378C51.9642 41.6077 52.0512 44.3954 50.4528 46.1738L50.4504 46.1738ZM35.6378 46.1738V48.9433C36.652 47.2398 38.6381 46.4552 40.4876 47.0282C40.7909 47.134 40.9723 47.4592 40.9077 47.787C40.6417 48.9536 39.9283 49.9577 38.9364 50.5694C37.9421 51.1811 36.7514 51.3489 35.6378 51.0314V53.2718H34.3651V51.0314C33.2514 51.3489 32.0607 51.1811 31.0664 50.5694C30.0746 49.9577 29.3611 48.9536 29.0951 47.787C29.0305 47.4592 29.212 47.134 29.5152 47.0282C31.3646 46.4552 33.3508 47.2398 34.365 48.9433V46.1738C32.7667 44.3954 32.8512 41.6078 34.5564 39.9378C34.7951 39.7184 35.1555 39.7184 35.3966 39.9378C37.0994 41.6078 37.1864 44.3954 35.588 46.1738H35.6378ZM14.1854 25.3801C14.9982 25.3904 15.739 25.8757 16.0969 26.6345C16.4549 27.3908 16.3704 28.2942 15.8807 28.9678C15.391 29.6441 14.5781 29.9744 13.7777 29.8248C12.9773 29.6751 12.326 29.0711 12.0923 28.2606H10.049V26.9855H12.0923C12.3658 26.0357 13.206 25.3826 14.1605 25.3801L14.1854 25.3801ZM55.8175 25.3801C55.0047 25.3904 54.2639 25.8757 53.906 26.6345C53.548 27.3908 53.6325 28.2942 54.1222 28.9678C54.6119 29.6441 55.4248 29.9744 56.2252 29.8248C57.0256 29.6751 57.6769 29.0711 57.9106 28.2606H59.9787V26.9855H57.9106C57.6371 26.0357 56.7969 25.3826 55.8424 25.3801L55.8175 25.3801ZM15.4161 23.5294H15.4136C14.9985 23.5294 14.6107 23.7488 14.3845 24.1102C16.1693 24.2264 17.5613 25.7621 17.5613 27.6205C17.5613 29.4789 16.1693 31.0147 14.3845 31.1283C14.6107 31.4922 14.9985 31.709 15.4136 31.709H54.5894C55.0045 31.709 55.3923 31.4922 55.6185 31.1283C53.8337 31.0147 52.4417 29.4789 52.4417 27.6205C52.4417 25.7621 53.8337 24.2264 55.6185 24.1102C55.3923 23.7488 55.0046 23.5294 54.5894 23.5294H15.4161ZM50.4536 15.1978V17.9596C51.4703 16.2613 53.4565 15.4792 55.3009 16.0496C55.6067 16.158 55.7881 16.4833 55.721 16.811C55.4551 17.9777 54.7441 18.9818 53.7498 19.5935C52.7579 20.2052 51.5672 20.373 50.4536 20.0555V22.2881H49.2256V20.0219C48.1095 20.3368 46.9213 20.169 45.927 19.5573C44.9351 18.9456 44.2242 17.9441 43.9557 16.7775C43.8911 16.4471 44.075 16.1219 44.3808 16.0161C46.2252 15.4456 48.2114 16.2277 49.2256 17.9261V15.1978C47.6322 13.4143 47.7192 10.6318 49.422 8.95927C49.6631 8.73988 50.021 8.73988 50.2622 8.95927C51.9649 10.6318 52.052 13.4169 50.4536 15.1978ZM35.6384 15.1978V17.9596C36.6552 16.2613 38.6413 15.4792 40.4882 16.0496C40.7915 16.158 40.973 16.4833 40.9083 16.811C40.6349 17.97 39.919 18.9688 38.9271 19.5728C37.9353 20.1768 36.7471 20.3395 35.6384 20.022V22.2546H34.3657V20.022C33.2521 20.3394 32.0614 20.1717 31.067 19.5599C30.0752 18.9482 29.3618 17.9442 29.0958 16.7775C29.0311 16.4497 29.2126 16.1245 29.5159 16.0161C31.3628 15.4483 33.3489 16.2303 34.3657 17.9261V15.1979C32.7673 13.4169 32.8518 10.6319 34.5571 8.95932C34.7957 8.73993 35.1562 8.73993 35.3973 8.95932C37.1149 10.6164 37.2244 13.404 35.6384 15.1978Z" fill="#125938"/>
</svg>
