<svg width="24" height="24" viewBox="0 0 24 24" fill="none" xmlns="http://www.w3.org/2000/svg">
<path d="M12 20C16.4184 20 20 16.4184 20 12C20 7.5816 16.4184 4 12 4C7.5816 4 4 7.5816 4 12C4 13.1032 4.224 14.1544 4.6272 15.1104C4.8504 15.6384 4.9616 15.9024 4.976 16.1024C4.9896 16.3024 4.9304 16.5216 4.8128 16.9608L4 20L7.0392 19.1872C7.4784 19.0696 7.6976 19.0112 7.8976 19.024C8.0976 19.0384 8.3616 19.1496 8.8896 19.3728C9.87412 19.7874 10.9317 20.0007 12 20Z" stroke="#002140" stroke-width="1.5" stroke-linecap="round" stroke-linejoin="round"/>
<path d="M9.95289 12.2261L10.4755 11.5776C10.6957 11.304 10.9675 11.0496 10.9897 10.6848C10.9945 10.593 10.9297 10.1802 10.8007 9.35399C10.7497 9.0294 10.4461 9 10.1839 9C9.84189 9 9.67089 9 9.50109 9.078C9.2863 9.1758 9.0661 9.45119 9.0175 9.68219C8.9791 9.86519 9.0079 9.99118 9.0649 10.2432C9.3061 11.313 9.87309 12.3695 10.7515 13.2485C11.6305 14.1269 12.687 14.6939 13.7574 14.9351C14.0094 14.9921 14.1348 15.0209 14.3178 14.9825C14.5488 14.9345 14.8242 14.7137 14.9226 14.4989C15 14.3291 15 14.1581 15 13.8161C15 13.5533 14.9706 13.2503 14.646 13.1993C13.8198 13.0697 13.407 13.0055 13.3152 13.0103C12.951 13.0319 12.696 13.3043 12.4224 13.5245L11.7739 14.0465" stroke="#002140" stroke-width="1.5" stroke-linecap="round" stroke-linejoin="round"/>
</svg>
