<svg width="40" height="40" viewBox="0 0 40 40" fill="none" xmlns="http://www.w3.org/2000/svg">
<circle cx="20" cy="20" r="20" fill="#EAF6E4" fill-opacity="0.59"/>
<path d="M28.7311 17.7309C27.9061 14.5684 25.3623 12.0246 22.1655 11.234C18.9686 10.4434 15.4967 11.4746 13.2967 13.9496C10.5811 16.9746 10.2373 21.5121 12.4373 24.9496C12.2655 26.1871 12.128 27.4246 11.9561 28.6621C11.8873 29.109 12.4373 29.4184 12.8155 29.3152C14.0186 28.9715 15.2561 28.6621 16.4592 28.3184C19.7248 29.659 23.5061 29.0402 26.1186 26.634C28.5592 24.3996 29.5561 20.8934 28.7311 17.7309ZM26.3248 24.3652C24.2623 27.3902 20.2061 28.5246 16.8717 27.0121C16.8717 27.0121 16.8717 27.0121 16.8373 27.0121C16.6998 26.9434 16.528 26.909 16.3217 26.9434C15.3592 27.2184 14.3967 27.459 13.4342 27.734C13.5373 26.909 13.6405 26.1184 13.7436 25.2934C13.778 25.0184 13.8467 24.709 13.7092 24.434C13.6061 24.2621 13.4686 24.0902 13.3655 23.884C13.1248 23.4715 12.9186 23.0246 12.7467 22.5777C12.1967 20.9965 12.1623 19.2434 12.678 17.6621C13.5717 14.8777 16.1155 12.7809 19.003 12.4371C21.9936 12.0246 24.9842 13.4684 26.5311 15.9777C28.1123 18.5559 28.0092 21.8559 26.3248 24.3652Z" fill="url(#paint0_linear_534_3304)"/>
<path d="M24.7773 21.1339L23.2304 19.9307C22.7492 19.5526 22.0961 19.6214 21.6836 20.0339L21.2367 20.4807C20.8929 20.2745 20.5836 20.0339 20.2742 19.7589C19.9992 19.4839 19.7586 19.1401 19.5523 18.7964L19.9992 18.3495C20.4117 17.937 20.4461 17.2839 20.1023 16.8026L18.8992 15.2214C18.6586 14.8776 18.2804 14.6714 17.8679 14.6714C17.4554 14.637 17.0429 14.8089 16.7679 15.0839L15.4273 16.4245C14.6711 17.1807 14.4992 18.3495 14.9804 19.312C15.6336 20.5495 16.4586 21.6495 17.4211 22.612C18.3836 23.5745 19.5179 24.3995 20.7211 25.0526C21.0992 25.2589 21.4773 25.3276 21.8554 25.3276C22.4742 25.3276 23.1273 25.087 23.5742 24.6057L24.9148 23.2651C25.1898 22.9901 25.3617 22.5776 25.3273 22.1651C25.3273 21.7526 25.1211 21.3745 24.7773 21.1339ZM23.9523 22.3026L22.6117 23.6432C22.2679 23.987 21.7523 24.0557 21.3398 23.8495C20.2398 23.2651 19.2429 22.5432 18.3492 21.6495C17.4554 20.7557 16.7336 19.7589 16.1492 18.6589C15.9429 18.2464 16.0117 17.7307 16.3554 17.387L17.6961 16.0464C17.6961 16.0464 17.6961 16.0464 17.7304 16.0464C17.7648 16.0464 17.7648 16.0464 17.7648 16.0807L18.8648 17.5245L18.4179 17.937C18.0742 18.2807 17.9711 18.8307 18.2117 19.2776C18.4867 19.8276 18.8648 20.3089 19.2773 20.7214C19.6898 21.1339 20.1711 21.512 20.7211 21.787C21.1679 22.0276 21.6836 21.9245 22.0273 21.5807L22.5086 21.0995L23.9179 22.1995C23.9179 22.1995 23.9523 22.1995 23.9523 22.2339C23.9523 22.2682 23.9523 22.3026 23.9523 22.3026Z" fill="url(#paint1_linear_534_3304)"/>
<defs>
<linearGradient id="paint0_linear_534_3304" x1="20.006" y1="10.9727" x2="20.006" y2="29.3351" gradientUnits="userSpaceOnUse">
<stop stop-color="#ADB815"/>
<stop offset="1" stop-color="#18392A"/>
</linearGradient>
<linearGradient id="paint1_linear_534_3304" x1="20.0213" y1="14.667" x2="20.0213" y2="25.3276" gradientUnits="userSpaceOnUse">
<stop stop-color="#ADB815"/>
<stop offset="1" stop-color="#18392A"/>
</linearGradient>
</defs>
</svg>
