<svg width="24" height="25" viewBox="0 0 24 25" fill="none" xmlns="http://www.w3.org/2000/svg">
<path d="M12 24.3677C14.4036 24.3677 24 16.0912 24 8.85576C24 4.3255 20.6573 0.643555 16.5517 0.643555C15.021 0.643555 13.7053 1.15504 12.5221 2.2083L12 2.67343L11.4779 2.2083C10.2947 1.15504 8.97414 0.643555 7.44828 0.643555C3.34266 0.643555 0 4.3255 0 8.85576C0 16.0912 9.59628 24.3677 12 24.3677ZM2.18855 6.13615C3.18099 3.75516 5.37927 2.32231 7.78759 2.48094C9.16957 2.57183 10.2413 3.22054 11.3792 4.64271L11.7186 5.06687C11.78 5.14529 11.8883 5.19519 11.9999 5.19519C12.1114 5.19519 12.2197 5.14885 12.2811 5.06687L12.6206 4.64271C13.7585 3.21876 14.8301 2.57183 16.2122 2.48094C18.6206 2.31698 20.8173 3.75342 21.8112 6.13615C22.5806 7.98782 22.5224 10.064 21.6366 12.3094C19.634 17.3869 13.8246 21.8995 12.2601 22.4698L11.9998 22.566L11.7396 22.4698C10.1798 21.8995 4.36581 17.3869 2.36305 12.3094C1.47728 10.0639 1.41918 7.98946 2.18855 6.13615Z" fill="#002140"/>
</svg>
